<?xml version="1.0" standalone="no"?>
<!DOCTYPE svg PUBLIC "-//W3C//DTD SVG 20010904//EN"
 "http://www.w3.org/TR/2001/REC-SVG-20010904/DTD/svg10.dtd">
<svg version="1.0" xmlns="http://www.w3.org/2000/svg"
 width="935.000000pt" height="935.000000pt" viewBox="0 0 935.000000 935.000000"
 preserveAspectRatio="xMidYMid meet">
<metadata>
Created by potrace 1.11, written by Peter Selinger 2001-2013
</metadata>
<g transform="translate(0.000000,935.000000) scale(0.100000,-0.100000)"
fill="#000000" stroke="none">
<path d="M3475 9084 c-11 -8 -32 -14 -47 -11 -16 2 -28 0 -28 -5 0 -4 -8 -8
-17 -8 -25 -1 -51 -22 -55 -45 -8 -48 -83 -92 -129 -76 -15 5 -30 7 -33 4 -3
-4 -6 -1 -6 6 0 7 -5 9 -11 5 -6 -4 -35 -8 -63 -9 -57 -3 -106 -19 -106 -36 0
-6 -12 -10 -27 -9 -16 1 -32 1 -38 0 -33 -7 -78 0 -99 14 -14 9 -32 16 -40 16
-8 0 -16 10 -18 23 -2 14 -10 23 -23 23 -11 1 -27 2 -37 3 -17 1 -19 16 -5 39
6 8 0 12 -20 12 -22 0 -29 -5 -30 -20 -1 -11 2 -20 8 -20 12 0 11 -34 -2 -80
-13 -43 -58 -77 -77 -58 -9 9 -12 9 -12 0 0 -23 -49 -13 -66 13 -16 25 -44 34
-44 15 0 -6 -6 -10 -12 -9 -21 3 -77 -24 -83 -39 -3 -7 0 -22 6 -33 9 -17 7
-21 -12 -26 -20 -6 -21 -10 -15 -64 4 -47 3 -59 -9 -59 -7 0 -17 5 -20 11 -5
7 -15 3 -31 -11 -17 -17 -30 -21 -49 -16 -20 5 -26 3 -22 -6 2 -7 -10 -20 -27
-28 -18 -9 -32 -24 -34 -36 -2 -17 -12 -23 -50 -28 -29 -4 -48 -2 -50 4 -8 22
-35 41 -51 35 -9 -4 -20 -7 -26 -8 -5 -1 -22 -14 -36 -29 -15 -16 -34 -28 -42
-28 -9 0 -19 -4 -22 -10 -9 -15 -25 -12 -25 5 0 19 -24 19 -40 0 -7 -9 -20
-13 -29 -10 -9 2 -29 -4 -45 -14 -23 -16 -34 -17 -53 -8 -17 8 -27 7 -35 -1
-16 -16 -28 -15 -28 3 0 8 -7 15 -15 15 -9 0 -12 -6 -9 -15 8 -20 2 -19 -26 5
-13 11 -34 20 -47 20 -14 0 -21 4 -18 10 4 6 -8 10 -29 10 -19 0 -38 5 -41 11
-4 6 -14 8 -23 4 -8 -3 -19 0 -23 6 -5 9 -13 8 -32 -4 -23 -15 -25 -15 -30 3
-8 31 -64 52 -151 57 -56 3 -92 11 -115 24 -27 16 -36 17 -42 7 -7 -11 -12
-11 -29 0 -12 7 -20 8 -20 2 0 -5 -9 -10 -21 -10 -11 0 -17 4 -14 10 3 6 -1 7
-10 4 -9 -4 -25 2 -36 12 -15 14 -36 19 -75 18 -30 0 -54 4 -54 8 0 4 -13 8
-29 8 -16 0 -51 9 -77 20 -26 11 -49 18 -52 15 -3 -3 -11 0 -17 5 -7 6 -40 13
-74 16 -33 4 -61 11 -61 16 0 6 -7 7 -16 4 -8 -3 -24 -1 -35 5 -19 10 -19 6
-17 -163 l3 -173 24 3 c13 2 21 0 18 -5 -3 -4 7 -9 21 -9 42 -2 156 -34 163
-45 3 -6 34 -10 67 -11 34 0 62 -4 62 -8 0 -4 13 -13 30 -20 16 -7 30 -20 30
-29 0 -12 2 -13 8 -3 5 7 16 10 24 7 9 -4 19 -2 23 4 3 6 0 9 -8 5 -8 -3 -18
-1 -22 5 -3 7 2 11 15 11 12 0 25 -10 31 -24 6 -13 20 -26 30 -29 14 -4 17
-12 15 -33 -4 -27 -1 -29 28 -28 17 0 39 4 49 8 25 12 33 -1 14 -22 -15 -16
-14 -18 15 -31 24 -11 33 -11 36 -3 5 17 14 15 47 -14 21 -18 38 -24 57 -22
15 3 25 1 22 -4 -3 -5 20 -6 52 -3 49 6 56 4 51 -9 -4 -11 0 -16 13 -17 11 -1
25 -2 32 -3 6 -1 12 5 14 12 1 7 0 8 -3 2 -8 -17 -26 -11 -19 6 4 10 -1 25
-10 35 -9 10 -14 24 -11 31 4 8 6 7 6 -4 1 -10 7 -18 15 -18 8 0 16 -7 20 -15
6 -17 36 -20 36 -4 0 8 4 8 14 0 11 -10 20 -10 36 -1 20 10 21 10 16 -8 -4
-13 -1 -22 9 -25 10 -4 17 2 21 19 5 18 9 22 15 13 6 -10 13 -10 33 -1 16 7
28 8 31 2 4 -6 -1 -10 -9 -10 -27 0 -18 -29 15 -45 26 -14 28 -19 18 -31 -9
-10 -9 -18 -2 -22 5 -4 10 -15 10 -24 0 -13 -8 -18 -29 -18 -17 0 -39 -10 -53
-25 -24 -23 -35 -52 -16 -41 5 3 11 -20 13 -51 3 -31 10 -59 16 -61 19 -6 15
-72 -3 -72 -9 0 -20 -10 -26 -22 -6 -13 -25 -30 -42 -39 -18 -9 -34 -24 -35
-35 -2 -10 -11 -25 -20 -32 -11 -9 -13 -15 -6 -20 6 -4 12 -26 12 -49 2 -34
-1 -42 -16 -40 -10 0 -32 -10 -49 -23 -27 -19 -30 -26 -21 -43 8 -16 7 -19 -4
-15 -18 7 -35 -18 -44 -68 -4 -22 -15 -51 -25 -66 -11 -14 -19 -33 -19 -42 0
-9 -6 -16 -14 -16 -18 0 -37 -56 -39 -115 -1 -25 -5 -45 -8 -45 -3 0 -9 -30
-12 -67 -6 -68 -24 -132 -41 -144 -5 -4 -6 -14 -3 -24 4 -9 0 -30 -9 -46 -20
-39 -28 -139 -11 -139 7 -1 3 -8 -9 -18 -18 -15 -21 -29 -21 -117 0 -103 -4
-153 -15 -170 -3 -6 -9 -59 -12 -120 -16 -250 -25 -336 -36 -350 -5 -6 -5 -17
0 -25 14 -22 13 -73 -2 -64 -7 5 -8 3 -2 -7 5 -8 7 -22 5 -33 -1 -11 2 -16 8
-12 7 5 10 -34 9 -121 -1 -70 2 -211 6 -313 3 -102 7 -196 7 -210 1 -70 12
-150 20 -144 5 3 7 -5 5 -18 -3 -13 -5 -23 -6 -23 -1 0 -3 -15 -4 -32 -1 -18
2 -33 6 -33 4 0 8 -27 8 -59 0 -33 5 -63 11 -66 6 -4 8 -13 5 -20 -2 -7 -2
-16 2 -20 7 -7 13 -72 13 -142 0 -34 4 -43 17 -44 10 0 12 -3 5 -6 -8 -3 -13
-23 -13 -49 0 -30 4 -43 13 -41 6 1 10 -5 8 -13 -3 -8 -4 -24 -4 -35 0 -11 1
-56 2 -100 2 -75 10 -122 31 -170 5 -11 11 -47 15 -80 3 -33 8 -71 10 -85 1
-14 3 -31 4 -38 1 -7 6 -10 11 -7 6 3 10 0 10 -7 1 -37 13 -94 21 -103 5 -5 9
-24 9 -41 0 -18 4 -43 9 -56 4 -13 11 -54 15 -93 4 -38 12 -76 19 -85 21 -24
38 -71 31 -82 -4 -6 -2 -8 4 -4 20 12 42 -24 42 -68 0 -56 10 -107 20 -101 7
5 25 -61 21 -78 -1 -5 3 -6 8 -3 5 3 12 -14 15 -39 4 -25 12 -45 17 -45 6 0 8
-12 4 -29 -6 -29 -6 -29 19 -18 14 7 27 20 30 31 3 12 9 15 18 10 7 -5 20 -9
28 -9 9 0 14 -7 12 -19 -8 -46 37 -83 66 -54 9 9 13 7 17 -8 4 -10 13 -33 22
-50 16 -35 14 -70 -5 -67 -7 2 -12 -5 -12 -16 0 -10 -7 -25 -16 -32 -21 -17
-56 -98 -48 -110 3 -5 0 -9 -5 -9 -6 0 -11 -18 -11 -40 0 -34 -7 -48 -40 -82
-22 -23 -40 -46 -40 -51 0 -5 -6 -15 -14 -22 -8 -8 -17 -43 -21 -77 -4 -34
-13 -80 -21 -100 -7 -21 -11 -38 -9 -38 2 0 -5 -21 -16 -46 -12 -25 -22 -58
-24 -72 -2 -15 -6 -56 -10 -92 -3 -36 -10 -78 -15 -95 -5 -16 -11 -47 -14 -68
-4 -21 -13 -51 -21 -67 -8 -16 -15 -36 -15 -45 0 -8 -4 -15 -10 -15 -5 0 -10
-16 -10 -35 0 -19 -4 -35 -10 -35 -5 0 -10 -22 -10 -49 0 -62 -7 -81 -30 -81
-11 0 -21 -4 -25 -9 -3 -5 -19 -12 -35 -16 -18 -4 -27 -11 -23 -18 4 -6 0 -8
-10 -4 -19 7 -67 -11 -67 -25 0 -4 -21 -18 -47 -31 -26 -12 -55 -29 -64 -38
-9 -10 -31 -20 -48 -24 -17 -4 -31 -11 -31 -16 0 -5 -12 -15 -27 -22 -36 -15
-54 -33 -45 -42 4 -5 2 -5 -5 -1 -6 3 -14 2 -18 -4 -3 -5 -15 -10 -25 -10 -10
0 -20 -4 -22 -10 -1 -5 -15 -11 -30 -12 -16 -1 -28 -6 -28 -11 0 -4 -4 -6 -9
-3 -5 3 -14 -1 -21 -9 -7 -8 -18 -15 -25 -15 -8 0 -22 -11 -33 -25 -13 -16
-26 -23 -36 -19 -9 4 -18 0 -22 -9 -3 -9 -12 -13 -21 -10 -11 4 -14 2 -9 -5 4
-7 -14 -21 -49 -37 l-55 -26 0 -560 0 -559 3395 0 c2708 0 3396 3 3399 12 2 7
10 34 16 61 12 46 14 47 51 47 22 0 39 4 39 9 0 16 68 10 83 -7 9 -10 15 -34
14 -57 -2 -32 -6 -39 -19 -37 -12 2 -16 -2 -12 -13 5 -13 41 -15 264 -15 l259
0 3 22 c2 17 11 24 32 26 25 3 27 6 22 30 -13 55 -13 57 22 56 33 -1 33 0 29
36 -3 32 -2 37 14 33 28 -8 109 35 109 57 0 18 -1 18 -30 2 -27 -15 -31 -16
-45 -1 -21 21 -9 49 21 49 23 0 24 3 18 40 -6 35 -4 40 19 51 51 23 63 104 22
159 -14 19 -32 35 -41 36 -30 5 -45 14 -39 24 3 6 -1 7 -10 4 -11 -5 -14 -2
-9 10 4 10 0 18 -10 22 -9 3 -16 14 -16 24 0 21 -39 38 -49 21 -7 -12 -51 -3
-51 10 0 5 -6 6 -13 3 -7 -2 -22 4 -32 16 -10 11 -22 20 -27 20 -5 0 -23 13
-41 30 -18 16 -42 30 -54 30 -13 0 -23 4 -23 10 0 5 -11 12 -25 16 -14 3 -25
10 -25 16 0 5 -4 7 -9 4 -5 -4 -22 0 -38 8 -15 8 -53 26 -83 40 -30 13 -103
47 -162 75 -58 28 -112 51 -120 51 -8 0 -19 5 -26 12 -7 7 -12 8 -12 3 0 -5
-13 4 -29 19 -16 15 -35 28 -42 30 -8 1 -39 14 -69 28 -186 88 -203 92 -251
62 -20 -12 -54 -28 -77 -35 -23 -6 -39 -16 -36 -20 9 -15 -8 -10 -28 8 -22 20
-35 11 -13 -10 23 -23 18 -30 -14 -24 -20 4 -31 2 -35 -8 -3 -9 -16 -14 -31
-13 -17 2 -24 7 -20 16 2 7 1 10 -4 7 -16 -9 -24 15 -11 30 8 10 9 15 2 15 -6
0 -14 -4 -17 -10 -3 -5 -17 -10 -31 -10 -23 0 -23 -1 -6 -19 40 -45 44 -51 29
-51 -8 0 -18 10 -24 22 l-10 23 -7 -22 c-8 -26 -31 -30 -40 -8 -3 8 -1 15 5
15 9 0 4 37 -7 49 -2 3 -27 4 -54 2 -56 -2 -112 23 -107 49 1 10 -5 14 -22 12
-13 -1 -29 2 -35 6 -18 14 -56 21 -56 10 0 -5 -17 -8 -37 -6 -30 2 -38 -1 -41
-16 -3 -14 0 -17 17 -11 15 4 21 2 21 -9 0 -8 -5 -18 -10 -21 -6 -4 4 -22 25
-43 19 -20 35 -43 35 -50 0 -10 7 -12 25 -8 22 6 25 3 25 -18 0 -28 25 -40 64
-30 29 7 34 -7 11 -26 -23 -19 -18 -40 10 -40 24 0 27 -3 29 -32 1 -7 6 -16
11 -20 6 -4 0 -8 -13 -8 -12 0 -25 -7 -28 -15 -4 -8 -13 -15 -21 -15 -9 0 -22
-8 -29 -18 -12 -15 -15 -15 -24 -2 -9 13 -12 13 -23 -2 -8 -10 -35 -20 -67
-24 -51 -7 -53 -6 -47 15 4 16 1 21 -14 21 -10 0 -19 -5 -19 -12 0 -9 -3 -9
-12 0 -16 16 -68 15 -68 -1 0 -7 -11 -23 -25 -35 l-25 -22 -17 37 c-10 21 -19
40 -20 42 -1 2 -9 -2 -18 -9 -9 -7 -19 -10 -23 -6 -4 4 1 12 11 17 21 12 23
39 2 39 -8 0 -15 -7 -15 -15 0 -8 -5 -15 -11 -15 -5 0 -8 4 -5 9 4 5 -3 7 -14
4 -11 -3 -27 0 -35 7 -11 9 -18 9 -35 -3 -11 -7 -17 -17 -14 -20 4 -4 -9 -6
-29 -5 -31 1 -34 3 -24 19 16 25 6 31 -52 32 -28 0 -51 4 -51 9 0 4 -8 8 -18
8 -9 0 -23 9 -30 21 -7 12 -16 18 -19 15 -3 -3 -12 1 -20 9 -8 8 -32 15 -54
15 -21 0 -39 4 -39 9 0 5 -11 12 -25 15 -27 7 -34 26 -10 26 20 0 19 19 -1 27
-10 4 -22 -1 -30 -11 -10 -14 -17 -15 -33 -7 -27 15 -31 14 -31 -10 0 -11 -4
-17 -10 -14 -5 3 -10 15 -10 26 0 12 -7 19 -20 19 -15 0 -20 7 -20 26 0 23 -3
26 -27 20 l-28 -6 25 14 c20 12 22 16 9 21 -8 3 -28 1 -42 -4 -26 -10 -27 -9
-21 14 5 22 3 25 -16 23 -13 -2 -25 3 -27 10 -4 9 2 11 21 6 22 -5 26 -3 26
15 0 12 -4 21 -10 21 -5 0 -10 -5 -10 -10 0 -7 -6 -7 -19 0 -27 14 -31 13 -31
-7 0 -11 -7 -5 -16 15 -9 17 -23 32 -31 32 -16 0 -68 50 -103 100 -13 19 -32
41 -42 48 -26 19 -22 35 6 28 22 -5 24 -2 29 44 8 63 17 81 28 52 11 -29 49
-30 49 -1 0 16 -4 19 -20 14 -11 -4 -20 -2 -20 4 0 26 -37 9 -53 -24 -16 -34
-39 -45 -52 -26 -3 6 2 14 10 19 9 5 13 15 10 25 -6 13 -10 14 -26 4 -10 -6
-19 -19 -19 -28 0 -9 -7 -19 -15 -23 -8 -3 -15 -11 -15 -18 0 -8 3 -9 10 -2
12 12 80 -5 80 -18 0 -21 -103 -10 -122 13 -9 10 -24 19 -33 19 -11 0 -15 5
-11 16 4 11 0 14 -17 12 -16 -2 -22 2 -22 17 -1 21 -3 21 -47 11 -23 -5 -27
-2 -33 24 -8 34 -55 69 -55 40 0 -5 9 -10 20 -10 26 0 26 -17 -1 -25 -23 -8
-80 12 -92 32 -4 7 -14 13 -21 13 -7 0 -22 9 -33 20 -22 19 -22 19 -52 -8 -30
-25 -42 -62 -21 -62 6 0 10 -4 10 -10 0 -5 -5 -10 -12 -10 -6 0 -20 -8 -30
-17 -14 -13 -21 -14 -30 -5 -16 16 -34 15 -53 -4 -9 -9 -19 -14 -22 -10 -3 3
4 14 15 25 32 27 27 37 -18 33 -29 -3 -41 0 -46 11 -3 9 -12 13 -19 11 -7 -3
-16 3 -20 15 -8 27 -35 31 -67 8 -28 -18 -28 -18 -28 1 0 11 5 22 12 24 6 2 8
9 5 15 -11 18 -77 -6 -77 -28 0 -9 6 -19 13 -22 6 -2 8 -8 4 -13 -4 -4 -21 -3
-37 3 -17 6 -30 8 -30 4 0 -5 -11 -6 -24 -4 -16 3 -27 14 -31 32 l-7 26 -15
-23 c-9 -12 -21 -22 -28 -22 -6 0 -18 -11 -25 -25 -17 -31 -22 -26 -29 27 -3
23 -12 43 -19 46 -10 3 -12 -4 -9 -26 3 -20 0 -35 -10 -43 -12 -10 -18 -7 -37
16 -15 19 -25 25 -30 17 -4 -7 0 -15 9 -18 8 -4 20 -15 26 -25 7 -15 6 -19 -6
-19 -8 0 -15 7 -15 15 0 9 -13 18 -31 22 -19 3 -28 10 -25 19 6 14 -21 40 -31
30 -4 -4 -1 -16 6 -27 17 -29 4 -38 -15 -11 -8 12 -22 22 -30 22 -17 0 -17 -1
-5 -33 10 -25 9 -25 -17 -11 -35 18 -43 18 -36 -1 4 -8 -1 -17 -10 -21 -9 -3
-16 -12 -16 -19 0 -7 -7 -18 -15 -25 -12 -10 -15 -10 -15 4 0 9 -3 16 -7 17
-62 7 -88 3 -91 -14 -3 -16 -1 -17 17 -7 13 7 21 7 21 1 0 -6 7 -8 16 -4 13 5
15 2 9 -15 -4 -13 -2 -22 4 -22 6 0 11 -4 11 -10 0 -5 -9 -10 -21 -10 -14 0
-19 5 -16 14 3 8 -2 16 -12 19 -14 3 -17 0 -13 -16 3 -11 13 -22 24 -24 10 -3
18 -9 18 -14 0 -5 6 -6 13 -3 8 3 19 -7 28 -23 14 -27 34 -47 43 -41 9 6 45
-35 50 -58 5 -20 11 -24 29 -20 21 6 20 5 -2 -6 -20 -11 -26 -9 -41 9 -10 12
-20 19 -24 16 -3 -3 -12 0 -21 7 -8 7 -15 9 -15 6 0 -4 -7 0 -16 8 -8 9 -24
16 -35 16 -10 0 -19 4 -19 9 0 5 -14 12 -31 16 -17 4 -39 15 -50 26 -10 10
-25 16 -33 13 -9 -3 -20 3 -28 15 -7 12 -20 21 -29 21 -9 0 -28 11 -43 25 -15
14 -31 25 -37 25 -5 0 -9 5 -9 10 0 6 -13 10 -29 10 -16 0 -31 6 -35 15 -3 8
-18 21 -33 27 -15 7 -33 19 -38 26 -6 7 -18 14 -26 15 -9 2 -27 9 -40 18 -13
8 -45 25 -71 38 -26 13 -55 32 -64 42 -10 11 -21 19 -26 19 -4 0 -17 8 -27 17
-32 29 -44 37 -92 60 -25 13 -56 32 -69 43 -13 11 -29 20 -37 20 -7 0 -13 6
-13 14 0 13 -19 26 -46 31 -7 2 -25 16 -40 32 -16 16 -45 40 -64 53 -19 13
-47 36 -62 52 -15 15 -32 28 -38 28 -6 0 -13 7 -16 15 -4 8 -12 15 -20 15 -7
0 -18 9 -24 19 -5 11 -18 22 -28 25 -11 4 -25 18 -32 31 -7 14 -18 25 -24 25
-16 1 -63 40 -48 40 7 0 10 5 7 10 -4 6 -11 8 -16 4 -6 -3 -22 6 -36 20 -19
20 -26 36 -25 62 1 20 -5 42 -12 50 -8 8 -12 23 -9 36 5 17 3 20 -10 15 -11
-4 -17 -1 -17 9 0 11 -6 13 -20 9 -23 -7 -24 -6 -10 29 10 27 6 30 -32 27 -14
-2 -18 5 -18 34 0 33 -1 35 -21 24 -13 -6 -19 -7 -15 -1 3 6 0 12 -6 15 -10 3
-10 7 -1 19 10 12 9 19 -6 35 -14 15 -16 24 -9 31 8 8 7 13 -5 17 -9 4 -13 13
-10 22 3 8 0 32 -7 53 -14 43 -2 74 26 63 10 -4 14 3 14 23 0 31 37 74 64 74
9 0 21 9 28 20 7 11 21 20 30 20 10 0 18 7 18 15 0 8 5 15 10 15 6 0 10 11 10
25 0 20 5 25 25 25 27 0 46 27 27 39 -15 9 13 51 34 51 8 0 14 10 14 25 0 14
5 25 10 25 6 0 10 9 10 20 0 14 7 20 21 20 17 0 20 5 16 21 -4 17 -3 19 6 10
21 -21 34 -11 40 31 3 24 11 44 16 46 6 2 11 8 11 13 0 6 11 22 24 36 14 15
23 31 20 35 -3 5 5 19 19 32 20 19 26 35 29 82 3 55 5 59 28 59 20 0 26 6 28
30 3 29 3 29 -12 10 -16 -20 -16 -20 -31 0 -15 18 -14 20 10 28 21 7 24 13 18
35 -3 15 -10 28 -15 30 -4 2 -5 14 -2 26 3 15 -3 31 -20 49 -31 34 -33 51 -6
42 11 -4 20 -2 20 4 0 6 6 11 14 11 19 0 26 45 11 67 -7 10 -16 33 -20 51 -3
17 -11 32 -16 32 -5 0 -8 3 -7 8 3 10 -10 50 -33 100 -22 49 -49 168 -40 177
3 3 0 9 -7 14 -6 4 -12 29 -13 56 -1 28 -5 59 -10 71 -13 35 -31 215 -23 232
3 9 8 31 10 47 11 103 17 132 35 181 11 30 25 54 30 54 5 0 9 9 9 20 0 42 179
209 217 202 6 -1 14 2 18 8 3 5 17 10 31 10 13 0 24 3 24 8 0 10 173 2 184 -9
6 -5 18 -9 28 -9 10 0 18 -4 18 -10 0 -5 6 -10 13 -10 7 0 18 -9 25 -21 7 -12
16 -18 19 -15 3 3 17 -6 29 -20 13 -14 32 -24 41 -22 12 2 21 -8 30 -32 6 -19
12 -29 12 -22 2 25 38 -7 45 -38 3 -18 19 -44 36 -58 27 -24 42 -72 22 -72 -7
0 -9 -47 -3 -60 2 -3 5 -23 7 -45 7 -80 26 -124 61 -140 18 -9 39 -15 46 -13
6 2 26 -12 43 -30 32 -33 64 -42 64 -18 0 9 -7 12 -19 9 -15 -4 -20 0 -18 16
1 20 27 40 27 20 0 -19 22 3 36 37 14 33 34 46 34 23 0 -6 7 -9 15 -5 9 3 24
-3 35 -14 11 -11 17 -20 13 -20 -4 0 -2 -5 5 -12 8 -8 15 -8 27 2 14 12 18 11
26 -1 5 -8 9 -19 9 -26 0 -8 7 -10 18 -6 14 6 15 4 5 -9 -7 -8 -10 -18 -6 -21
12 -13 44 -7 49 8 8 19 24 19 24 0 0 -8 7 -15 15 -15 11 0 15 -12 15 -44 0
-26 9 -61 22 -85 20 -37 23 -39 38 -26 23 21 47 19 60 -5 6 -11 22 -23 35 -26
14 -3 25 -10 25 -15 0 -5 7 -9 15 -9 8 0 15 -5 15 -11 0 -5 -4 -7 -10 -4 -15
9 -12 -4 5 -21 20 -20 33 -10 27 21 -2 15 0 25 7 25 6 0 11 7 11 15 0 8 -4 15
-10 15 -5 0 -10 12 -10 27 0 14 3 23 7 20 10 -11 33 14 33 37 0 17 -2 18 -10
6 -8 -12 -10 -9 -10 13 0 15 5 27 10 27 6 0 8 10 4 24 -9 35 12 66 44 66 25 1
25 2 10 14 -20 14 -25 42 -7 30 8 -5 10 1 7 18 -5 26 12 48 36 48 9 0 25 -20
36 -45 11 -25 25 -45 30 -45 6 0 10 -8 10 -19 0 -10 9 -30 20 -44 11 -14 20
-34 20 -44 0 -18 69 -103 83 -103 17 0 4 21 -23 37 -16 9 -30 23 -30 31 0 7 3
11 8 8 4 -2 16 2 27 10 10 8 13 14 7 14 -7 0 -12 7 -12 16 0 8 4 13 9 10 19
-12 38 5 33 30 -2 13 -9 24 -14 24 -5 0 -6 5 -3 10 4 6 1 18 -6 26 -10 13 -10
17 0 24 10 5 10 13 3 25 -11 20 -5 55 10 55 7 0 6 5 0 13 -6 7 -9 23 -5 35 3
12 1 22 -3 22 -5 0 -9 35 -8 78 2 77 32 172 54 172 6 0 10 11 10 25 0 14 3 25
8 25 16 0 34 -18 28 -28 -3 -5 2 -13 12 -18 27 -12 62 -14 62 -3 0 5 11 9 24
9 27 0 40 22 24 38 -8 8 -1 17 23 31 19 12 38 21 42 21 5 0 6 4 3 8 -3 5 32 8
77 6 49 -1 83 -6 85 -13 2 -6 11 -11 19 -11 13 0 14 -2 2 -17 -13 -17 -13 -17
6 -3 11 8 23 19 26 24 4 4 22 8 42 8 28 0 35 3 30 17 -4 13 -1 12 11 -3 8 -10
17 -24 19 -30 3 -6 11 -3 20 8 14 19 15 19 26 -2 15 -28 22 -27 96 2 40 17 62
21 66 14 4 -6 12 -7 18 -4 6 4 9 12 6 17 -8 13 9 11 22 -2 6 -6 17 -8 24 -3
15 9 213 9 228 0 5 -4 12 -2 16 3 3 6 31 8 63 5 88 -8 268 -15 356 -15 44 0
109 -6 145 -14 36 -7 69 -12 72 -9 4 2 9 -2 12 -8 3 -11 9 -11 26 0 21 12 53
3 74 -23 6 -6 10 -6 14 3 11 29 106 4 96 -26 -3 -7 1 -10 11 -6 20 8 34 -25
16 -36 -10 -6 -9 -9 1 -12 18 -6 19 -92 2 -109 -22 -22 -28 0 -9 33 14 22 15
29 5 26 -8 -2 -20 -17 -28 -33 -13 -27 -14 -27 -27 -10 -8 10 -14 22 -14 27 0
4 -5 8 -11 8 -8 0 -8 -5 1 -15 10 -13 9 -15 -8 -15 -12 0 -25 -7 -30 -16 -8
-15 -11 -14 -25 6 -14 20 -36 12 -22 -9 3 -5 1 -12 -5 -16 -5 -3 -10 1 -10 9
0 9 -9 16 -20 16 -25 0 -25 9 -3 26 10 7 15 16 11 20 -14 14 -39 -19 -33 -43
4 -16 1 -23 -10 -23 -8 0 -15 9 -15 20 0 22 -7 25 -30 10 -12 -8 -12 -10 2
-15 23 -9 11 -37 -13 -30 -14 5 -19 1 -19 -11 0 -13 -3 -14 -15 -4 -11 9 -18
8 -36 -9 -25 -23 -85 -29 -92 -8 -2 6 -8 9 -12 5 -4 -4 -2 -16 6 -25 7 -10 10
-15 5 -11 -5 4 -15 0 -23 -8 -15 -15 -38 -10 -28 7 4 5 2 9 -4 9 -5 0 -13 -9
-16 -20 -3 -11 -13 -20 -21 -20 -8 0 -14 -5 -14 -10 0 -6 -11 -8 -25 -4 -19 5
-25 2 -25 -10 0 -22 78 -96 101 -96 11 0 17 -4 14 -10 -3 -6 1 -10 9 -10 8 0
18 5 21 10 5 8 11 8 19 0 7 -5 39 -11 70 -13 37 -1 55 -6 52 -14 -3 -6 5 -14
17 -17 33 -9 34 -8 32 18 -3 21 1 23 34 21 20 -1 46 -5 59 -9 15 -5 22 -3 22
6 1 8 7 5 16 -7 8 -11 18 -20 22 -21 4 0 14 -4 23 -8 9 -4 27 -8 40 -10 49 -5
61 -16 56 -52 -3 -19 -1 -37 5 -40 13 -8 -13 -36 -29 -30 -7 3 -13 -1 -13 -9
0 -8 5 -15 10 -15 6 0 10 -8 10 -17 0 -16 2 -16 11 -3 8 12 9 7 6 -17 -2 -18
0 -33 3 -33 4 0 8 -22 8 -49 2 -56 15 -122 39 -196 11 -34 32 -65 66 -99 38
-38 50 -56 49 -78 -1 -23 2 -27 12 -18 10 8 15 5 19 -11 5 -17 11 -21 36 -17
17 3 31 2 31 -1 0 -9 104 -10 115 -2 6 5 30 7 54 6 25 0 39 1 33 3 -27 9 -9
22 23 17 25 -3 38 0 41 9 3 8 21 17 40 20 21 4 34 13 34 22 0 8 6 14 13 13 35
-4 77 29 77 63 0 10 4 18 9 18 11 0 73 60 63 60 -4 0 -1 4 7 9 12 8 12 12 2
25 -11 14 -11 16 6 16 16 0 42 40 47 73 0 4 6 11 12 15 6 4 14 24 18 45 4 20
11 37 16 37 6 0 10 9 10 19 0 11 5 32 12 48 6 15 11 31 10 36 -1 4 2 7 6 7 5
0 9 6 10 13 1 17 31 108 43 129 5 10 9 27 9 38 0 11 5 20 11 20 6 0 9 6 6 13
-2 6 2 18 9 25 16 14 18 12 71 -71 21 -31 40 -57 44 -57 5 0 17 75 34 225 20
171 25 207 32 218 4 7 8 18 9 24 1 7 12 29 24 48 15 24 29 35 46 35 13 0 24 5
24 11 0 6 7 9 14 6 10 -4 13 -1 9 9 -3 7 0 14 6 14 6 0 11 -4 11 -9 0 -5 9 -7
20 -4 11 3 17 9 14 14 -3 5 -1 9 5 9 6 0 8 7 5 15 -7 18 15 20 51 3 26 -12 33
-34 13 -40 -28 -10 7 -28 52 -28 41 0 55 -5 85 -31 l35 -31 -3 -79 c-2 -44 1
-79 5 -79 5 0 6 -10 3 -22 -9 -40 -30 -201 -40 -313 -4 -44 -3 -47 9 -29 14
20 35 85 43 139 3 17 9 37 13 45 5 9 11 36 15 60 3 25 12 50 18 55 7 6 12 19
12 30 0 11 5 29 12 40 6 11 15 43 19 70 4 28 10 52 14 55 4 3 9 27 12 53 4 36
2 50 -8 54 -21 8 -17 44 6 50 27 7 27 49 0 58 -11 3 -25 3 -32 -1 -7 -5 -26
-7 -42 -5 -23 2 -28 0 -23 -13 8 -20 -11 -20 -37 -1 -11 8 -28 13 -38 9 -13
-4 -16 -1 -13 9 6 13 -4 17 -52 18 -13 1 -20 6 -17 11 4 6 -3 5 -16 -2 -12 -6
-28 -9 -37 -6 -8 3 -24 -1 -35 -8 -18 -13 -25 -13 -49 0 -16 8 -28 19 -26 25
1 7 -4 14 -12 17 -9 3 -11 0 -6 -8 5 -8 4 -11 -3 -6 -6 4 -9 13 -5 21 6 18
-19 20 -48 5 -13 -7 -19 -7 -19 0 0 5 -7 10 -15 10 -8 0 -15 -5 -15 -11 0 -5
5 -7 11 -3 6 3 3 -5 -6 -20 -9 -14 -22 -23 -28 -19 -6 3 -7 1 -3 -5 4 -7 -3
-17 -18 -24 -14 -6 -26 -16 -26 -21 0 -5 -13 -7 -30 -3 -17 3 -31 1 -31 -4 -1
-6 -3 -14 -4 -20 -1 -5 -3 -13 -4 -16 0 -4 -8 -1 -16 6 -8 7 -13 16 -10 20 3
5 -4 11 -14 15 -13 4 -18 11 -14 22 5 12 2 15 -10 10 -9 -3 -17 -3 -17 2 0 4
-9 18 -20 31 -11 12 -22 38 -26 56 -3 19 -11 34 -16 34 -6 0 -8 11 -6 25 3 14
-1 30 -8 36 -8 6 -14 17 -14 23 0 14 -143 9 -148 -5 -2 -5 -10 -9 -18 -9 -9 0
-12 5 -9 10 7 12 -12 12 -40 1 -11 -5 -25 -4 -32 1 -13 10 -14 9 -17 -14 -1
-7 -9 -12 -19 -10 -11 2 -15 -2 -11 -13 4 -9 1 -15 -9 -15 -8 0 -17 4 -19 10
-1 5 -14 10 -28 10 -14 0 -40 0 -57 0 -18 0 -33 -4 -33 -10 0 -5 -6 -7 -14 -4
-7 3 -16 -2 -19 -10 -4 -9 -18 -16 -32 -16 -15 0 -23 -4 -20 -10 3 -6 -1 -7
-9 -4 -10 4 -16 1 -16 -7 0 -7 -3 -9 -7 -6 -3 4 -11 3 -17 -2 -16 -13 -46 -16
-89 -7 -24 4 -43 3 -51 -4 -10 -7 -28 -7 -64 1 -43 10 -56 10 -85 -4 -39 -19
-63 -21 -71 -8 -5 7 -69 15 -231 27 -22 2 -40 3 -40 4 0 0 -36 3 -80 6 -44 2
-100 7 -125 10 -86 9 -307 16 -562 17 -142 1 -258 4 -258 7 0 3 -57 5 -126 5
-69 0 -128 3 -131 8 -2 4 -16 4 -30 1 -19 -5 -24 -4 -18 6 5 9 2 10 -14 5 -15
-5 -21 -2 -21 9 0 9 -7 16 -15 16 -27 0 -95 34 -95 48 0 8 9 25 19 39 11 13
17 31 14 39 -8 21 18 66 34 60 8 -3 28 8 45 24 24 23 34 28 45 19 10 -9 12 -9
8 2 -3 8 4 28 15 44 14 21 20 25 20 13 0 -24 16 -23 23 2 3 14 14 20 31 20 16
0 26 6 26 15 0 8 6 12 14 9 8 -3 17 -1 21 5 3 6 1 11 -4 11 -6 0 -11 7 -11 15
0 10 10 15 29 15 41 0 84 18 75 31 -4 7 2 9 17 7 16 -2 36 8 61 31 31 28 37
39 31 60 -3 14 -11 29 -17 33 -7 5 -4 8 6 8 11 0 20 -10 24 -25 6 -24 34 -36
34 -15 0 6 -5 10 -11 10 -6 0 -8 9 -4 20 14 43 15 70 4 70 -7 0 1 13 17 28 16
15 35 40 43 54 7 15 22 29 33 31 10 3 24 19 31 36 9 24 16 30 30 25 16 -5 18
-2 13 14 -5 15 -1 24 13 31 11 6 23 20 26 31 3 11 13 20 21 20 8 0 14 5 14 10
0 16 60 12 66 -5 7 -18 34 -20 34 -2 0 6 7 3 16 -8 14 -19 133 -66 168 -66 10
0 21 -9 23 -20 4 -15 8 -17 14 -8 6 10 11 10 22 1 7 -7 16 -9 20 -6 3 3 14 1
24 -4 11 -6 37 -13 59 -15 21 -2 51 -9 65 -15 20 -8 31 -7 47 4 17 12 21 12
26 -2 5 -13 9 -14 21 -4 8 7 38 13 67 15 29 1 67 5 83 9 17 3 46 8 66 10 20 1
41 6 48 10 6 4 14 0 17 -8 3 -9 10 -13 15 -10 11 6 89 -36 89 -49 0 -5 7 -6
15 -3 10 3 27 -6 45 -24 16 -17 36 -30 45 -30 8 0 15 -4 15 -9 0 -4 12 -8 28
-7 17 0 26 -4 24 -13 -2 -8 4 -10 16 -7 56 18 103 14 152 -12 47 -25 63 -42
40 -42 -5 0 -10 -5 -10 -11 0 -5 6 -7 12 -3 17 10 160 5 172 -6 12 -12 37 0
29 14 -4 7 -1 6 9 -2 8 -7 23 -10 32 -6 14 5 20 -4 18 -27 -1 -3 16 -12 38
-19 22 -7 40 -21 43 -31 3 -11 14 -19 25 -19 11 0 25 -6 32 -14 6 -8 18 -12
26 -9 8 3 21 -3 29 -13 11 -15 16 -17 26 -6 7 6 21 12 31 12 10 0 21 6 24 14
4 11 15 13 37 9 18 -3 48 -6 69 -7 25 -1 33 -4 27 -12 -12 -14 -1 -24 28 -24
14 0 23 6 23 15 0 9 6 15 14 13 8 -2 15 2 16 7 3 16 22 35 30 30 4 -3 10 2 14
10 3 8 1 15 -4 15 -12 0 -1 53 13 62 9 6 9 10 -1 17 -8 4 -13 21 -11 37 4 52
0 64 -18 57 -13 -5 -15 -3 -8 13 4 10 7 34 6 51 -1 27 2 31 15 26 14 -5 15 -3
4 16 -6 12 -9 37 -6 54 3 18 3 26 0 19 -11 -23 -24 -1 -24 40 0 32 3 39 15 34
10 -3 15 1 15 14 0 27 18 34 47 19 19 -10 23 -18 18 -38 -4 -14 -11 -29 -17
-32 -17 -11 1 -49 23 -49 11 0 17 -4 14 -10 -3 -5 -1 -10 5 -10 6 0 13 6 16
14 3 8 19 20 35 26 16 7 29 18 28 24 -4 33 1 38 31 32 19 -3 29 -2 25 4 -6 9
8 14 29 11 5 -1 6 5 3 13 -4 9 -2 18 3 21 6 3 7 39 4 83 -7 92 -6 150 2 163 3
5 1 9 -5 9 -13 0 -9 92 4 103 6 6 6 10 -2 14 -15 5 -18 33 -4 33 5 0 11 -9 14
-20 6 -24 34 -37 48 -23 7 7 6 15 -4 24 -7 8 -12 19 -10 26 2 6 -7 23 -21 37
-15 14 -26 31 -26 38 -1 7 -27 42 -60 77 -33 35 -57 68 -54 72 6 10 -17 24
-41 24 -26 0 -38 56 -18 84 10 15 11 26 4 40 -6 10 -7 22 -3 26 4 5 1 5 -5 1
-8 -4 -13 -1 -13 9 0 9 -4 14 -9 11 -5 -3 -33 16 -62 44 -30 27 -62 50 -72 50
-11 0 -20 10 -23 29 -4 20 -14 31 -30 35 -22 6 -23 10 -21 71 3 62 1 67 -29
96 -20 19 -37 28 -45 24 -8 -5 -10 -4 -5 3 4 7 2 12 -4 12 -6 0 -8 5 -5 10 3
6 0 10 -7 10 -13 0 -67 44 -124 99 -12 12 -28 21 -37 21 -8 0 -24 11 -35 24
-13 18 -25 23 -40 19 -12 -3 -19 -9 -16 -14 3 -5 0 -9 -6 -9 -7 0 -10 -7 -6
-17 4 -13 1 -12 -13 5 -11 12 -24 22 -30 22 -6 0 -11 3 -11 8 0 11 -80 43 -91
36 -6 -3 -21 6 -34 20 -13 14 -29 26 -35 26 -5 0 -10 5 -10 10 0 6 -6 10 -14
10 -7 0 -26 25 -41 55 -16 30 -32 55 -36 55 -4 0 -10 11 -13 25 -4 14 -11 23
-16 20 -6 -3 -10 -1 -10 5 0 6 -5 8 -10 5 -6 -4 -9 -1 -8 7 2 7 -7 14 -19 16
-13 2 -20 8 -17 16 7 19 -64 79 -87 73 -12 -3 -19 0 -19 9 0 8 -7 14 -15 14
-8 0 -15 -5 -15 -11 0 -5 4 -8 9 -5 9 6 25 -23 17 -31 -3 -3 -15 2 -28 11 -12
9 -33 16 -45 16 -13 0 -23 5 -23 11 0 5 -13 15 -30 20 -16 6 -30 17 -30 25 0
8 -4 14 -10 14 -5 0 -10 7 -10 15 0 9 -6 12 -17 8 -11 -4 -14 -3 -9 5 5 8 0
12 -13 12 -12 0 -21 5 -21 10 0 6 -6 10 -12 9 -20 -3 -49 12 -42 22 5 8 -5 11
-60 13 -10 1 -23 12 -28 26 -7 20 -11 22 -18 10 -7 -12 -12 -12 -22 -2 -6 6
-20 12 -30 12 -10 0 -18 6 -18 14 0 8 -13 17 -30 21 -16 4 -30 10 -30 15 0 4
-8 7 -17 5 -10 -2 -24 -4 -31 -4 -7 -1 -10 -5 -7 -11 4 -6 -5 -10 -19 -10 -16
0 -26 6 -26 15 0 8 -6 15 -14 15 -22 0 -29 19 -15 38 7 9 10 14 5 10 -4 -3
-23 11 -43 33 -19 21 -38 37 -43 34 -4 -2 -19 9 -35 25 -16 17 -35 27 -46 25
-11 -2 -19 2 -19 10 0 7 -6 15 -14 18 -25 10 -5 -32 35 -74 35 -37 37 -42 26
-66 -9 -21 -9 -27 1 -31 15 -5 16 -64 0 -80 -9 -9 -5 -12 20 -12 42 0 41 -18
-3 -64 -26 -28 -40 -36 -56 -31 -15 5 -22 2 -26 -14 -3 -12 -11 -21 -18 -21
-17 0 -25 36 -12 49 8 8 5 11 -10 11 -31 0 -35 25 -7 49 29 25 30 36 7 50 -16
9 -16 12 -3 21 12 8 13 13 3 30 -7 11 -13 28 -13 37 -1 10 -9 36 -20 58 -11
22 -19 48 -20 58 0 10 -7 20 -15 23 -8 4 -15 17 -15 30 0 24 -39 74 -58 74 -6
0 -14 -9 -17 -20 -10 -31 -26 -24 -20 9 5 27 3 28 -32 25 -20 -1 -39 -6 -42
-11 -3 -5 -12 -8 -18 -7 -7 1 -17 2 -23 3 -5 0 -10 6 -10 12 0 6 9 9 20 6 15
-4 20 0 20 14 0 10 -5 19 -12 19 -6 0 -3 6 7 14 18 13 17 14 -6 29 -13 9 -36
18 -51 21 -14 2 -45 15 -67 28 -34 19 -43 20 -50 9 -5 -8 -11 -9 -15 -3 -7 12
-46 12 -46 0 0 -4 -12 -1 -27 6 -52 25 -98 37 -101 26 -3 -8 -8 -8 -17 0 -8 7
-21 7 -39 0 -17 -6 -26 -6 -26 0 0 6 -6 10 -14 10 -8 0 -16 6 -19 13 -3 9 -7
9 -18 0 -12 -9 -24 -9 -59 3 -25 9 -67 18 -94 20 -27 3 -61 11 -76 19 -15 8
-52 13 -86 12 -32 -1 -65 3 -73 8 -10 5 -16 4 -19 -3 -2 -7 -11 -8 -26 -2 -30
11 -116 14 -141 5 -38 -13 -44 -14 -50 -5 -10 16 -55 12 -55 -5 0 -18 -31 -20
-48 -3 -10 10 -15 10 -21 -1 -6 -9 -11 -10 -15 -3 -4 6 -13 9 -21 6 -7 -3 -23
-1 -34 6 -12 6 -21 7 -21 1 0 -5 -8 -12 -17 -15 -10 -4 -14 -4 -10 0 11 11
-13 34 -37 34 -12 0 -27 5 -33 11 -5 5 -22 7 -37 3 -19 -4 -26 -13 -26 -30 0
-13 -5 -24 -11 -24 -6 0 -9 9 -6 20 4 15 0 20 -14 20 -13 0 -19 -7 -19 -21 0
-19 -2 -20 -16 -8 -13 11 -17 10 -25 -4 -12 -21 -59 -23 -59 -3 0 8 5 18 11
21 6 5 4 11 -6 19 -20 14 -10 46 13 44 45 -3 62 3 62 22 0 24 -17 25 -45 4z
m666 -332 c4 -2 4 -15 0 -30 -6 -21 -14 -28 -38 -30 -35 -4 -49 18 -32 50 6
11 8 26 5 34 -3 8 0 21 7 28 10 12 16 8 32 -18 11 -17 23 -32 26 -34z m404 58
c3 -5 1 -10 -4 -10 -6 0 -11 5 -11 10 0 6 2 10 4 10 3 0 8 -4 11 -10z m-495
-10 c0 -5 -5 -10 -11 -10 -5 0 -7 5 -4 10 3 6 8 10 11 10 2 0 4 -4 4 -10z
m-217 -16 c9 -4 17 -11 17 -17 0 -6 10 -21 22 -34 12 -13 16 -23 10 -23 -7 0
-12 -12 -12 -26 0 -14 4 -23 10 -19 6 3 11 0 12 -7 2 -22 5 -32 11 -48 4 -8 8
-33 10 -55 3 -22 8 -48 12 -57 4 -11 3 -18 -4 -18 -6 0 -11 6 -12 13 0 8 -2 9
-5 0 -3 -7 -13 -3 -28 12 -17 17 -22 31 -18 55 3 23 1 31 -7 26 -6 -4 -11 -1
-11 7 0 8 -6 20 -13 26 -8 6 -14 26 -15 45 -1 18 -11 50 -23 70 -17 30 -19 39
-9 51 7 9 18 13 24 10 6 -3 19 -8 29 -11z m887 1 c0 -2 -6 -5 -13 -8 -8 -3
-14 1 -14 8 0 7 6 11 14 8 7 -3 13 -6 13 -8z m-142 -18 c21 -16 13 -27 -19
-25 -36 3 -60 25 -39 38 14 9 36 4 58 -13z m8 -78 c-1 -28 -19 -49 -41 -49 -6
0 -10 19 -11 43 0 41 1 43 27 39 22 -3 26 -9 25 -33z m-942 -36 c6 1 11 -7 11
-18 0 -11 -6 -19 -12 -17 -17 3 -16 -9 3 -58 19 -46 19 -46 -19 -55 -17 -5
-27 -3 -27 4 0 6 -16 28 -35 50 -32 35 -35 43 -33 90 2 28 4 51 6 51 1 0 12
-10 24 -22 l23 -23 9 27 10 27 14 -29 c8 -16 19 -28 26 -27z m1426 -58 c0 -8
-4 -15 -10 -15 -5 0 -10 7 -10 15 0 8 5 15 10 15 6 0 10 -7 10 -15z m23 -46
c4 -16 3 -18 -9 -8 -16 13 -19 29 -5 29 5 0 11 -9 14 -21z m-1788 -8 c3 -5 1
-12 -5 -16 -5 -3 -10 1 -10 9 0 18 6 21 15 7z m1745 -36 c-8 -10 -8 -19 -1
-34 17 -31 13 -36 -7 -10 -11 13 -24 38 -29 55 l-11 32 29 -15 c23 -12 27 -18
19 -28z m67 -7 c-4 -12 -2 -27 4 -34 14 -17 -5 -27 -33 -18 -21 6 -21 7 -4 20
10 7 15 17 11 23 -8 13 2 31 17 31 6 0 8 -10 5 -22z m-1991 -18 c5 0 22 -11
38 -23 l29 -24 -31 -1 c-18 0 -32 4 -32 10 0 6 -9 8 -19 5 -19 -5 -31 15 -31
52 0 11 4 11 18 -2 10 -10 23 -17 28 -17z m285 8 c14 -22 10 -58 -6 -58 -10 0
-15 10 -15 30 0 23 -4 30 -20 30 -11 0 -20 4 -20 9 0 13 52 4 61 -11z m-578
-16 c-2 -7 0 -12 5 -12 4 0 7 -16 8 -35 0 -18 -3 -32 -8 -29 -4 3 -8 11 -8 19
0 7 -6 20 -13 27 -19 19 -17 50 2 45 9 -2 15 -9 14 -15z m1297 -10 c0 -20 -26
-41 -39 -33 -12 8 -12 12 -2 25 14 17 41 22 41 8z m1060 -10 c0 -12 59 -31 66
-21 9 15 30 10 57 -15 14 -13 32 -26 39 -29 7 -3 2 -6 -11 -6 -17 -1 -22 -5
-17 -17 9 -23 -22 -56 -46 -48 -10 3 -17 2 -16 -3 2 -4 -1 -9 -7 -10 -5 -1 -9
5 -7 13 2 8 -13 29 -33 48 -19 18 -35 41 -35 50 0 9 -4 16 -10 16 -5 0 -10 7
-10 15 0 8 7 15 15 15 8 0 15 -4 15 -8z m-120 -32 c0 -5 -4 -10 -10 -10 -5 0
-10 5 -10 10 0 6 5 10 10 10 6 0 10 -4 10 -10z m-917 -19 c18 5 32 9 33 9 1 0
4 -9 7 -20 3 -11 13 -20 22 -20 10 0 13 5 9 12 -4 7 -3 8 4 4 7 -4 12 -15 12
-25 0 -14 -6 -17 -25 -13 -14 2 -28 8 -31 13 -8 14 -24 10 -24 -5 0 -8 7 -16
15 -18 10 -2 12 -7 5 -18 -8 -12 -12 -12 -18 -2 -5 7 -16 10 -24 7 -9 -4 -18
0 -21 9 -5 11 0 16 13 16 11 0 20 2 20 4 0 2 3 13 6 23 6 15 4 16 -6 6 -15
-14 -41 0 -39 21 0 8 2 8 5 -1 4 -8 15 -9 37 -2z m-1263 -11 c0 -5 -4 -10 -9
-10 -6 0 -13 5 -16 10 -3 6 1 10 9 10 9 0 16 -4 16 -10z m14 -101 c9 -44 8
-59 -4 -59 -5 0 -10 10 -10 23 0 12 -4 29 -9 37 -6 8 -7 18 -5 22 10 17 22 7
28 -23z m-1945 -5 c3 -2 -1 -10 -7 -16 -9 -9 -12 -9 -12 0 0 7 -9 12 -20 12
-11 0 -20 5 -20 11 0 10 48 5 59 -7z m1871 1 c0 -8 -4 -15 -10 -15 -5 0 -10 7
-10 15 0 8 5 15 10 15 6 0 10 -7 10 -15z m2430 -26 c0 -6 -4 -7 -10 -4 -5 3
-10 11 -10 16 0 6 5 7 10 4 6 -3 10 -11 10 -16z m78 -37 c2 -7 -2 -10 -12 -6
-9 3 -16 11 -16 16 0 13 23 5 28 -10z m69 -34 c-3 -8 -6 -5 -6 6 -1 11 2 17 5
13 3 -3 4 -12 1 -19z m-3937 -22 c0 -3 -4 -8 -10 -11 -5 -3 -10 -1 -10 4 0 6
5 11 10 11 6 0 10 -2 10 -4z m3985 -16 c-3 -5 -11 -10 -16 -10 -6 0 -7 5 -4
10 3 6 11 10 16 10 6 0 7 -4 4 -10z m59 3 c-5 -5 -12 -12 -15 -16 -3 -5 -9 -2
-12 7 -5 12 0 16 15 16 12 0 17 -3 12 -7z m196 -164 c12 -9 12 -10 -4 -5 -12
4 -25 -1 -37 -15 -24 -28 -24 -32 1 -19 14 7 20 7 20 0 0 -5 7 -10 15 -10 22
0 18 -17 -5 -23 -10 -3 -21 0 -23 7 -3 8 -8 8 -18 -1 -18 -17 -44 -16 -59 2
-9 10 -9 15 -1 15 6 0 11 7 11 15 0 8 8 15 18 15 10 0 27 7 38 15 23 17 25 18
44 4z m-151 -23 c19 -23 -2 -26 -29 -5 -24 18 -24 19 -4 19 12 0 27 -6 33 -14z
m201 -30 c0 -3 -4 -8 -10 -11 -5 -3 -10 -1 -10 4 0 6 5 11 10 11 6 0 10 -2 10
-4z m-1660 -320 c0 -3 -4 -8 -10 -11 -5 -3 -10 -1 -10 4 0 6 5 11 10 11 6 0
10 -2 10 -4z m3344 -662 c3 -9 6 -24 6 -35 0 -10 5 -19 10 -19 6 0 10 -4 10
-10 0 -14 -33 -12 -49 3 -11 10 -12 8 -6 -10 4 -14 2 -23 -4 -23 -18 0 -13 42
7 56 14 11 15 15 3 23 -7 5 -10 14 -7 20 10 16 23 14 30 -5z m-80 -160 c7 -18
0 -34 -15 -34 -5 0 -9 11 -9 25 0 28 15 34 24 9z m4 -79 c-3 -3 -9 2 -12 12
-6 14 -5 15 5 6 7 -7 10 -15 7 -18z m122 -270 c0 -8 -7 -15 -16 -15 -14 0 -14
3 -4 15 7 8 14 15 16 15 2 0 4 -7 4 -15z m-1853 -17 c-3 -8 -6 -5 -6 6 -1 11
2 17 5 13 3 -3 4 -12 1 -19z m-45 -23 c3 -14 2 -25 -3 -25 -12 0 -30 36 -22
44 12 12 21 6 25 -19z m-260 -2 c-10 -4 -9 -9 4 -24 21 -24 13 -35 -14 -18
-23 14 -18 49 7 48 11 0 12 -2 3 -6z m55 -60 c-9 -9 -19 -14 -23 -11 -10 10 6
28 24 28 15 0 15 -1 -1 -17z m53 -3 c0 -5 -5 -10 -11 -10 -5 0 -7 5 -4 10 3 6
8 10 11 10 2 0 4 -4 4 -10z m1934 -1119 c13 -24 13 -30 2 -34 -25 -10 -49 37
-29 56 10 10 11 9 27 -22z m-1049 -51 c3 -5 2 -10 -4 -10 -5 0 -13 5 -16 10
-3 6 -2 10 4 10 5 0 13 -4 16 -10z m215 -20 c18 0 50 -30 50 -47 0 -7 5 -13
10 -13 19 0 10 -42 -10 -47 -11 -3 -17 -10 -14 -15 4 -6 -9 -25 -28 -43 -20
-17 -38 -41 -42 -52 -3 -10 -22 -25 -41 -33 -19 -7 -32 -17 -29 -21 2 -4 -19
-8 -47 -7 -29 0 -47 3 -42 6 15 9 18 33 8 56 -4 10 -4 21 1 25 12 8 14 41 2
41 -5 0 -6 6 -1 13 9 13 10 17 13 50 1 12 4 16 7 10 9 -23 22 -13 29 21 3 19
13 37 21 40 9 4 13 13 9 22 -5 13 -3 14 6 6 9 -7 19 -6 32 4 17 12 22 12 36
-1 9 -8 23 -15 30 -15z m365 10 c3 -5 0 -10 -7 -10 -7 0 -2 -8 12 -18 14 -9
26 -23 28 -30 5 -24 -26 -97 -40 -97 -28 0 -48 -32 -42 -63 5 -27 2 -32 -27
-48 -19 -10 -40 -17 -48 -15 -7 1 -10 -2 -6 -8 3 -6 0 -11 -9 -11 -8 0 -16 -4
-18 -9 -1 -5 -12 -3 -22 5 -19 13 -19 14 7 14 33 0 36 25 5 35 -13 3 -18 9
-12 11 7 3 10 13 7 23 -3 14 3 20 25 24 18 4 31 14 35 27 3 12 11 18 19 15 11
-4 14 3 14 30 -1 30 -5 36 -33 46 -33 10 -39 19 -26 32 3 4 15 0 25 -10 17
-15 18 -15 18 4 0 17 6 21 33 19 26 -1 33 3 35 22 4 23 16 29 27 12z m-2095
-50 c0 -5 -5 -10 -11 -10 -5 0 -7 5 -4 10 3 6 8 10 11 10 2 0 4 -4 4 -10z
m2160 -51 c0 -11 -4 -17 -10 -14 -5 3 -10 13 -10 21 0 8 5 14 10 14 6 0 10 -9
10 -21z m-196 -14 c-4 -8 -8 -15 -10 -15 -2 0 -4 7 -4 15 0 8 4 15 10 15 5 0
7 -7 4 -15z m-84 -415 c0 -5 -4 -10 -10 -10 -5 0 -10 5 -10 10 0 6 5 10 10 10
6 0 10 -4 10 -10z m-50 -20 c0 -5 -7 -10 -16 -10 -8 0 -12 5 -9 10 3 6 10 10
16 10 5 0 9 -4 9 -10z m47 -53 c-2 -7 3 -18 12 -25 13 -11 13 -12 1 -7 -11 5
-11 3 1 -7 9 -7 18 -21 20 -31 4 -16 6 -16 33 -2 17 9 39 15 50 13 28 -4 33
-42 8 -60 -10 -7 -27 -28 -36 -47 -14 -27 -15 -35 -5 -42 7 -4 16 -6 20 -4 3
3 9 -13 13 -35 4 -25 14 -43 26 -50 11 -6 18 -15 15 -21 -4 -5 -1 -8 6 -7 7 2
15 -5 17 -14 3 -14 -3 -18 -23 -18 -27 0 -27 -1 -21 -45 7 -42 -3 -60 -19 -35
-12 19 -25 10 -25 -19 0 -23 -4 -28 -18 -25 -9 3 -26 -3 -37 -13 -11 -10 -31
-19 -44 -21 -13 -1 -38 -9 -55 -17 -39 -19 -176 -30 -176 -14 0 5 -4 8 -8 5
-5 -3 -20 1 -35 9 -14 7 -28 11 -31 7 -11 -10 -67 59 -82 100 -18 52 -19 211
-1 225 14 12 86 11 105 -1 14 -9 46 19 37 33 -3 5 5 13 17 17 32 10 53 43 26
40 -7 0 -13 4 -13 9 0 6 13 9 28 8 28 -2 28 -1 12 23 -8 13 -14 24 -13 25 2 0
15 2 31 3 20 1 27 -3 27 -16 0 -10 5 -18 11 -18 7 0 9 11 6 30 -5 22 -3 30 8
30 8 0 15 -8 16 -17 0 -14 2 -13 9 5 5 12 14 22 20 22 5 0 10 6 10 14 0 8 6
16 13 19 17 6 49 -12 44 -26z m-371 -32 c-5 -19 -2 -25 11 -26 11 0 13 -3 6
-6 -7 -2 -13 -11 -13 -19 0 -8 -7 -14 -15 -14 -9 0 -15 9 -15 23 0 34 11 67
22 67 6 0 7 -11 4 -25z m48 -55 c-6 -6 -10 -2 -11 12 -2 16 1 18 10 9 7 -7 8
-14 1 -21z m-4056 -551 c12 -19 11 -19 -8 -9 -11 6 -20 15 -20 20 0 17 15 11
28 -11z m-443 -1469 c3 -5 1 -10 -4 -10 -6 0 -11 5 -11 10 0 6 2 10 4 10 3 0
8 -4 11 -10z m2548 -893 c-3 -5 -13 -1 -23 8 -18 16 -18 16 -13 -4 5 -18 -15
-51 -31 -51 -12 0 -5 40 7 41 9 0 9 2 0 5 -8 4 -7 10 5 23 16 16 19 16 38 2
12 -9 20 -20 17 -24z m-582 18 c0 -6 -10 -12 -22 -13 -19 -3 -20 -2 -8 12 15
16 31 17 30 1z m227 -2 c-2 -10 -11 -19 -21 -21 -16 -3 -17 -1 -7 17 13 25 33
28 28 4z m-568 -40 c0 -9 -3 -14 -6 -10 -4 3 -13 -1 -21 -9 -8 -8 -19 -11 -25
-8 -5 3 3 14 19 24 35 23 33 23 33 3z m1044 -9 c10 -25 -1 -29 -14 -5 -6 12
-7 21 -1 21 5 0 12 -7 15 -16z m-292 -46 c-15 -15 -26 -4 -18 18 5 13 9 15 18
6 9 -9 9 -15 0 -24z m-672 12 c0 -5 -2 -10 -4 -10 -3 0 -8 5 -11 10 -3 6 -1
10 4 10 6 0 11 -4 11 -10z m-145 -40 c3 -5 2 -10 -4 -10 -5 0 -13 5 -16 10 -3
6 -2 10 4 10 5 0 13 -4 16 -10z m1405 -80 c0 -5 -4 -10 -10 -10 -5 0 -10 5
-10 10 0 6 5 10 10 10 6 0 10 -4 10 -10z m-1120 -200 c0 -5 -4 -10 -10 -10 -5
0 -10 5 -10 10 0 6 5 10 10 10 6 0 10 -4 10 -10z m1457 -132 c-3 -8 -6 -5 -6
6 -1 11 2 17 5 13 3 -3 4 -12 1 -19z m1258 -28 c3 -5 -1 -10 -9 -10 -9 0 -16
5 -16 10 0 6 4 10 9 10 6 0 13 -4 16 -10z m-85 -10 c0 -5 -7 -10 -15 -10 -8 0
-15 5 -15 10 0 6 7 10 15 10 8 0 15 -4 15 -10z m-20 -30 c0 -5 10 -9 21 -7 25
2 33 -11 19 -33 -8 -13 -11 -12 -24 5 -9 11 -16 16 -16 11 0 -11 -30 14 -30
25 0 5 7 9 15 9 8 0 15 -4 15 -10z m80 0 c0 -5 -4 -10 -10 -10 -5 0 -10 5 -10
10 0 6 5 10 10 10 6 0 10 -4 10 -10z m-625 -120 c-3 -5 -10 -10 -16 -10 -5 0
-9 5 -9 10 0 6 7 10 16 10 8 0 12 -4 9 -10z m50 -40 c3 -5 -1 -10 -10 -10 -9
0 -13 5 -10 10 3 6 8 10 10 10 2 0 7 -4 10 -10z m1245 -25 c17 -9 30 -11 30
-5 0 5 8 10 18 10 20 0 57 -55 47 -70 -11 -18 -64 -11 -75 9 -5 11 -20 21 -31
23 -12 2 -28 13 -37 26 -13 20 -13 22 2 22 9 0 30 -7 46 -15z m-992 -7 c19
-19 14 -26 -13 -20 -25 4 -31 13 -18 25 9 10 17 9 31 -5z m-58 -18 c0 -11 -4
-20 -10 -20 -5 0 -10 9 -10 20 0 11 5 20 10 20 6 0 10 -9 10 -20z m1214 -35
c20 -30 20 -35 2 -35 -17 0 -48 39 -40 52 9 14 21 9 38 -17z m106 -39 c0 -9 7
-12 19 -9 10 3 22 0 25 -6 4 -5 13 -8 20 -5 13 5 66 -49 66 -67 0 -5 11 -14
24 -18 24 -10 41 -47 25 -57 -5 -3 -9 4 -9 15 0 11 -3 22 -8 24 -4 3 -7 -9 -7
-26 0 -29 -3 -32 -33 -35 -34 -3 -77 22 -66 39 3 5 1 9 -5 9 -5 0 -13 20 -17
45 -5 37 -10 45 -27 45 -38 0 -73 51 -51 73 10 10 44 -12 44 -27z m240 -201
c0 -8 -6 -12 -14 -9 -8 3 -12 12 -9 20 6 17 23 9 23 -11z m-1264 -2 c8 -10 14
-44 14 -79 0 -60 0 -60 35 -74 31 -12 35 -18 35 -51 0 -21 -4 -41 -10 -44 -5
-3 -10 -21 -10 -39 0 -19 -7 -39 -15 -46 -8 -7 -15 -10 -15 -6 0 4 -13 0 -30
-9 -34 -18 -44 -19 -35 -5 4 6 1 18 -7 27 -9 11 -13 48 -13 122 0 58 -4 112
-8 119 -5 8 -3 12 8 12 12 0 15 6 9 23 -3 12 -11 24 -16 26 -10 3 21 39 36 40
5 1 15 -7 22 -16z m299 -144 c5 -5 19 -9 32 -9 13 0 23 -4 23 -10 0 -5 9 -10
20 -10 11 0 20 -5 20 -11 0 -11 61 -9 70 3 9 11 34 14 35 3 1 -20 40 -55 61
-55 11 0 29 -9 39 -20 10 -11 14 -20 10 -20 -5 0 -5 -3 -2 -7 4 -3 13 2 21 12
13 18 51 32 40 14 -3 -5 0 -9 6 -9 6 0 8 -5 4 -11 -4 -8 1 -9 16 -4 22 7 22 6
-5 -29 -28 -37 -45 -39 -45 -5 0 23 -8 24 -30 4 -14 -13 -19 -13 -44 0 -16 8
-37 15 -47 15 -11 0 -19 4 -19 9 0 5 -11 12 -25 15 -14 4 -23 11 -20 16 3 6
-6 15 -21 20 -27 11 -64 5 -64 -10 0 -16 -39 -17 -57 -1 -10 9 -36 25 -58 35
-47 22 -55 32 -55 67 0 26 1 27 43 17 23 -5 46 -13 52 -19z m824 -75 c6 -15 9
-29 6 -33 -8 -7 -35 28 -35 46 0 22 16 15 29 -13z m41 11 c0 -8 -2 -15 -4 -15
-2 0 -6 7 -10 15 -3 8 -1 15 4 15 6 0 10 -7 10 -15z m-392 -91 c18 -8 34 -19
37 -25 4 -5 17 -9 31 -9 27 0 28 -3 14 -29 -7 -15 -19 -18 -56 -15 -37 2 -52
9 -75 36 -28 30 -29 34 -13 45 22 16 24 16 62 -3z"/>
<path d="M6758 4923 c7 -3 16 -2 19 1 4 3 -2 6 -13 5 -11 0 -14 -3 -6 -6z"/>
<path d="M3570 9055 c-14 -16 -10 -18 14 -9 9 3 16 10 16 15 0 14 -16 11 -30
-6z"/>
<path d="M1348 9043 c6 -2 18 -2 25 0 6 3 1 5 -13 5 -14 0 -19 -2 -12 -5z"/>
<path d="M3510 9040 c0 -5 5 -10 10 -10 6 0 10 5 10 10 0 6 -4 10 -10 10 -5 0
-10 -4 -10 -10z"/>
<path d="M5305 8680 c-3 -5 -1 -10 4 -10 6 0 11 5 11 10 0 6 -2 10 -4 10 -3 0
-8 -4 -11 -10z"/>
<path d="M830 8280 c0 -5 5 -10 10 -10 6 0 10 5 10 10 0 6 -4 10 -10 10 -5 0
-10 -4 -10 -10z"/>
<path d="M938 8183 c7 -3 16 -2 19 1 4 3 -2 6 -13 5 -11 0 -14 -3 -6 -6z"/>
<path d="M1380 8110 c0 -5 7 -10 15 -10 8 0 15 5 15 10 0 6 -7 10 -15 10 -8 0
-15 -4 -15 -10z"/>
<path d="M496 7355 c-14 -11 -16 -15 -5 -15 12 0 12 -2 -1 -10 -8 -5 -15 -17
-15 -27 0 -10 -5 -18 -12 -18 -27 0 -24 -15 4 -21 20 -4 30 -12 29 -22 -1 -10
6 -16 17 -16 9 1 17 -2 17 -6 0 -5 -8 -11 -17 -14 -10 -2 5 -2 32 1 29 3 46 2
42 -3 -9 -9 -14 -11 -49 -13 -33 -2 -18 -8 40 -15 34 -4 52 -3 48 3 -4 5 -1
13 5 17 8 4 9 3 5 -5 -10 -16 34 -31 57 -19 17 9 17 11 -6 41 -38 52 -38 53 6
51 64 -3 107 -15 107 -31 0 -20 -28 -27 -57 -14 -32 15 -53 0 -33 -24 7 -8 9
-15 6 -15 -4 0 -1 -6 6 -13 16 -17 188 -47 265 -47 45 0 54 3 49 15 -3 8 -1
15 4 15 6 0 9 3 9 8 -5 29 3 42 26 42 14 0 25 5 25 10 0 6 -4 10 -10 10 -5 0
-8 15 -5 35 4 34 4 35 -33 35 -20 1 -62 3 -92 6 -30 2 -66 5 -79 4 -13 0 -30
5 -37 11 -7 6 -18 8 -24 4 -5 -3 -10 -2 -10 3 0 12 -69 21 -76 11 -2 -4 -26
-6 -52 -3 -26 2 -73 6 -106 9 -64 5 -78 11 -56 25 8 6 11 10 5 10 -5 -1 -19
-7 -29 -15z m464 -150 c0 -8 -4 -15 -10 -15 -5 0 -10 7 -10 15 0 8 5 15 10 15
6 0 10 -7 10 -15z m-13 -61 c-3 -3 -12 -4 -19 -1 -8 3 -5 6 6 6 11 1 17 -2 13
-5z"/>
<path d="M445 7350 c4 -6 11 -8 16 -5 14 9 11 15 -7 15 -8 0 -12 -5 -9 -10z"/>
<path d="M1073 7134 c-15 -16 -16 -24 -4 -24 8 0 24 30 19 35 -2 2 -9 -3 -15
-11z"/>
<path d="M1126 7097 c3 -10 9 -15 12 -12 3 3 0 11 -7 18 -10 9 -11 8 -5 -6z"/>
<path d="M7674 6980 c-16 -6 -20 -15 -17 -34 6 -30 18 -34 193 -71 63 -13 180
-38 260 -55 162 -34 354 -76 415 -91 22 -6 60 -14 85 -19 97 -20 130 -33 145
-57 12 -18 13 -28 6 -37 -9 -10 -4 -16 19 -26 29 -12 34 -20 44 -75 6 -34 20
-618 17 -711 -2 -46 3 -72 18 -99 18 -35 19 -65 1 -65 -5 0 -11 8 -13 18 -3 9
-5 2 -6 -15 -1 -31 0 -32 25 -22 42 15 45 19 28 36 -11 12 -12 18 -4 23 7 4
10 20 9 36 -2 16 0 35 4 42 5 6 5 16 2 22 -11 18 -8 195 3 217 13 23 5 113 -9
113 -5 0 -9 7 -9 15 0 8 3 15 8 15 7 0 8 7 15 135 12 233 19 283 39 288 17 5
19 13 16 78 -3 71 -4 73 -33 81 -16 5 -48 10 -70 12 -22 2 -47 6 -55 9 -19 7
-226 47 -265 51 -16 2 -50 9 -75 15 -25 7 -92 23 -150 37 -58 14 -123 30 -145
35 -22 6 -49 12 -60 13 -23 3 -123 26 -145 34 -8 2 -24 6 -35 7 -12 2 -67 15
-123 29 -114 29 -109 28 -138 16z"/>
<path d="M6320 6056 c0 -2 7 -7 16 -10 8 -3 12 -2 9 4 -6 10 -25 14 -25 6z"/>
<path d="M6430 6040 c-8 -5 -12 -11 -9 -14 2 -3 11 -1 19 4 8 5 12 11 9 14 -2
3 -11 1 -19 -4z"/>
<path d="M4900 5975 c0 -8 2 -15 4 -15 2 0 6 7 10 15 3 8 1 15 -4 15 -6 0 -10
-7 -10 -15z"/>
<path d="M6900 5860 c0 -5 5 -10 10 -10 6 0 10 5 10 10 0 6 -4 10 -10 10 -5 0
-10 -4 -10 -10z"/>
<path d="M4564 5735 c22 -17 36 -19 36 -6 0 10 -24 21 -43 21 -7 0 -3 -7 7
-15z"/>
<path d="M8880 5599 c0 -5 5 -7 10 -4 6 3 10 8 10 11 0 2 -4 4 -10 4 -5 0 -10
-5 -10 -11z"/>
<path d="M8849 5588 c-1 -7 -1 -17 0 -21 1 -5 4 -127 7 -270 4 -213 8 -263 20
-270 19 -11 18 -28 -1 -21 -13 5 -15 -8 -15 -87 0 -89 1 -92 18 -75 12 13 14
20 5 23 -19 7 -16 23 5 23 18 0 17 -1 13 135 -1 21 -4 26 -10 16 -17 -26 -22
8 -6 39 8 16 13 30 10 30 -3 0 1 14 10 30 9 17 11 30 6 30 -5 0 -12 8 -14 18
-3 10 -5 5 -7 -13 l-2 -30 -8 29 c-7 21 -5 35 5 50 18 24 20 105 4 140 -9 20
-9 28 3 40 11 11 13 26 8 60 -4 28 -3 49 4 56 8 8 4 16 -13 29 -14 11 -19 20
-12 22 6 2 3 9 -9 17 -16 10 -20 10 -21 0z m35 -329 c-3 -5 -10 -7 -15 -3 -5
3 -7 10 -3 15 3 5 10 7 15 3 5 -3 7 -10 3 -15z m6 -321 c0 -16 -3 -19 -11 -11
-6 6 -8 16 -5 22 11 17 16 13 16 -11z"/>
<path d="M4267 4970 c-3 -11 -1 -20 4 -20 5 0 9 9 9 20 0 11 -2 20 -4 20 -2 0
-6 -9 -9 -20z"/>
<path d="M2528 4973 c-10 -2 -18 -9 -18 -14 0 -5 -9 -9 -20 -9 -11 0 -20 -7
-20 -15 0 -8 -5 -15 -11 -15 -16 0 -48 -42 -49 -63 0 -10 -7 -20 -15 -23 -8
-3 -17 -22 -21 -42 -4 -21 -10 -39 -13 -42 -13 -10 -43 -149 -43 -201 0 -58
18 -139 31 -139 5 0 11 19 15 42 5 30 10 38 16 29 5 -9 8 6 7 41 -2 54 18 112
34 102 5 -3 11 7 14 21 3 14 7 35 10 48 2 13 15 29 27 36 13 6 31 31 41 55 18
44 39 56 100 57 9 0 17 5 17 10 0 6 -4 7 -10 4 -5 -3 -10 -1 -10 4 0 13 10 14
29 2 16 -10 41 -4 41 10 0 5 -7 9 -15 9 -8 0 -15 5 -15 10 0 6 6 10 14 8 8 -2
15 0 15 5 3 30 -3 37 -41 48 -24 6 -51 15 -60 20 -19 9 -22 10 -50 2z m108
-70 c-11 -11 -17 4 -9 23 7 18 8 18 11 1 2 -10 1 -21 -2 -24z"/>
<path d="M2728 4953 c-19 -5 -25 -23 -8 -23 6 0 10 -9 10 -20 0 -11 5 -20 11
-20 6 0 8 8 4 19 -3 11 -1 22 5 26 11 7 13 -3 10 -55 -1 -19 -8 -40 -16 -47
-14 -10 -13 -13 3 -22 17 -10 17 -10 1 -11 -22 0 -23 -19 -2 -48 9 -13 14 -32
11 -43 -4 -15 0 -19 19 -19 13 0 24 -5 24 -11 0 -5 14 -15 30 -20 17 -6 30
-15 30 -20 0 -5 9 -9 19 -9 10 0 21 -7 25 -15 3 -8 13 -15 21 -15 14 0 13 -5
-5 -31 -13 -18 -28 -28 -36 -25 -18 7 -121 -47 -151 -79 -12 -13 -31 -38 -43
-57 -11 -18 -20 -27 -20 -20 0 7 -5 10 -10 7 -6 -4 -8 -10 -5 -15 3 -5 1 -11
-5 -15 -6 -4 -8 -10 -5 -15 2 -4 0 -22 -6 -40 -9 -24 -9 -34 0 -39 8 -6 9 -15
2 -33 -14 -37 -4 -67 20 -61 10 3 19 0 19 -6 0 -6 5 -11 10 -11 6 0 10 13 10
30 0 23 5 31 25 36 14 3 25 10 25 15 0 5 6 8 13 7 7 -2 11 6 10 22 -3 23 -2
23 11 8 15 -20 26 -14 26 15 0 16 2 17 15 7 13 -11 20 -9 38 9 13 11 29 21 35
21 7 0 12 8 12 18 0 11 13 24 33 33 30 13 32 18 39 76 4 35 9 67 13 73 3 5 -1
23 -10 39 -8 16 -12 38 -8 47 5 13 2 16 -8 12 -12 -5 -15 3 -13 35 2 43 -47
167 -66 167 -5 0 -16 15 -25 34 -9 19 -24 37 -33 40 -20 6 -50 26 -70 44 -7 6
-14 11 -15 11 -1 -1 -10 -3 -19 -6z"/>
<path d="M3011 4884 c0 -11 3 -14 6 -6 3 7 2 16 -1 19 -3 4 -6 -2 -5 -13z"/>
<path d="M5790 4890 c0 -5 5 -10 10 -10 6 0 10 5 10 10 0 6 -4 10 -10 10 -5 0
-10 -4 -10 -10z"/>
<path d="M2655 4820 c3 -5 8 -10 11 -10 2 0 4 5 4 10 0 6 -5 10 -11 10 -5 0
-7 -4 -4 -10z"/>
<path d="M2700 4819 c0 -5 5 -7 10 -4 6 3 10 8 10 11 0 2 -4 4 -10 4 -5 0 -10
-5 -10 -11z"/>
<path d="M8870 4798 c0 -19 2 -20 10 -8 13 19 13 30 0 30 -5 0 -10 -10 -10
-22z"/>
<path d="M8878 4724 c-5 -4 -8 -19 -8 -33 1 -23 2 -24 11 -8 11 19 9 53 -3 41z"/>
<path d="M8890 4648 c0 -19 2 -20 10 -8 13 19 13 30 0 30 -5 0 -10 -10 -10
-22z"/>
<path d="M7679 4503 c0 -5 -2 -16 -4 -25 -2 -10 1 -18 6 -18 5 0 9 4 9 9 0 5
3 16 6 25 3 9 1 16 -5 16 -6 0 -11 -3 -12 -7z"/>
<path d="M3470 4485 c7 -8 16 -12 21 -9 13 8 1 24 -18 24 -13 0 -13 -3 -3 -15z"/>
<path d="M6037 4480 c-3 -11 -2 -22 2 -25 12 -7 52 25 46 36 -11 17 -43 9 -48
-11z"/>
<path d="M3060 4370 c0 -5 5 -10 11 -10 5 0 7 -5 4 -11 -4 -6 -13 -8 -21 -5
-8 3 -14 0 -14 -7 0 -7 -16 -23 -34 -37 -19 -14 -32 -29 -29 -33 5 -9 -35 -42
-51 -42 -13 0 -44 -58 -38 -72 2 -7 -1 -13 -7 -13 -7 0 -16 -10 -21 -22 -8
-20 -9 -20 -9 -4 -1 18 -2 18 -19 3 -10 -9 -27 -14 -37 -12 -14 3 -28 -6 -45
-27 -14 -18 -19 -29 -12 -25 6 5 12 4 12 -2 0 -6 -4 -11 -9 -11 -20 0 -16 -36
6 -53 15 -12 31 -16 55 -11 18 3 50 7 71 8 46 4 77 30 77 67 0 32 10 42 30 28
10 -5 11 -9 3 -9 -7 0 -10 -7 -7 -15 4 -8 12 -15 20 -15 8 0 14 -5 14 -12 0
-6 6 -3 14 8 11 14 11 21 3 26 -10 6 31 11 59 7 4 0 14 10 23 24 9 13 22 22
29 20 6 -3 12 0 12 6 0 6 -4 11 -8 11 -5 0 -9 31 -10 69 0 38 -8 85 -16 104
-8 20 -13 37 -11 39 2 2 -8 11 -21 21 -13 10 -24 13 -24 7z"/>
<path d="M3192 3958 c-7 -7 -12 -21 -12 -33 0 -12 -4 -25 -9 -30 -6 -6 -4 -17
4 -28 10 -14 20 -17 37 -11 13 4 30 7 37 5 12 -2 12 0 3 12 -6 7 -8 18 -4 22
4 5 1 5 -5 1 -16 -9 -40 4 -26 13 6 4 6 16 -2 33 -8 22 -14 25 -23 16z"/>
<path d="M6530 3890 c0 -5 5 -10 10 -10 6 0 10 5 10 10 0 6 -4 10 -10 10 -5 0
-10 -4 -10 -10z"/>
<path d="M6705 3850 c-3 -5 3 -10 15 -10 12 0 18 5 15 10 -3 6 -10 10 -15 10
-5 0 -12 -4 -15 -10z"/>
<path d="M6676 3824 c-3 -9 -11 -14 -18 -12 -18 6 -85 -79 -78 -100 0 -1 -11
-13 -25 -25 -20 -18 -25 -33 -29 -85 -2 -34 0 -64 4 -67 4 -3 11 -17 15 -32 9
-39 34 -63 62 -63 13 0 22 -4 18 -9 -3 -5 4 -12 15 -16 11 -3 20 -12 20 -19 0
-7 9 -23 20 -36 11 -13 20 -27 20 -32 0 -4 12 -8 26 -8 22 0 25 -2 14 -15 -11
-13 -9 -15 13 -15 17 0 26 -7 30 -22 l6 -23 21 23 c11 12 28 22 38 22 14 -1
14 -3 -3 -13 -23 -13 -22 -47 0 -47 8 0 12 -9 10 -25 -4 -41 28 -27 39 18 5
23 10 26 31 21 15 -4 25 -2 25 5 0 6 17 11 38 11 20 0 44 4 52 10 9 6 17 5 22
-3 8 -14 68 45 68 68 0 15 2 16 124 19 30 0 51 6 53 14 3 6 0 12 -6 12 -6 0
-23 13 -38 29 -40 40 -62 50 -133 54 -64 5 -118 -7 -132 -27 -6 -8 -10 -8 -16
1 -4 7 -24 10 -45 9 -21 -2 -40 0 -42 5 -3 4 -21 5 -40 2 -24 -4 -43 0 -61 11
-14 10 -32 15 -40 12 -17 -7 -80 52 -94 88 -12 31 -12 99 0 136 4 14 8 19 9
13 2 -21 19 -15 26 8 4 12 2 26 -4 32 -14 14 -15 50 -1 42 6 -3 10 3 10 14 0
25 -16 36 -24 15z m439 -494 c3 -5 2 -10 -4 -10 -5 0 -13 5 -16 10 -3 6 -2 10
4 10 5 0 13 -4 16 -10z"/>
<path d="M2314 3816 c-6 -17 2 -36 17 -36 12 0 12 37 -1 45 -6 3 -13 -1 -16
-9z"/>
<path d="M2410 3760 c0 -5 5 -10 10 -10 6 0 10 5 10 10 0 6 -4 10 -10 10 -5 0
-10 -4 -10 -10z"/>
<path d="M2843 3447 c-8 -13 18 -37 39 -37 10 0 17 -4 13 -10 -3 -6 -15 -6
-30 0 -13 5 -27 6 -29 1 -8 -13 5 -21 34 -21 15 0 33 -7 40 -15 10 -13 9 -15
-9 -15 -25 0 -26 -4 -4 -41 14 -24 23 -29 42 -24 29 7 44 -11 30 -37 -8 -15
-6 -18 13 -19 13 -1 29 -1 36 0 17 2 15 -14 -3 -29 -19 -16 -10 -30 21 -30 17
0 24 -5 24 -19 0 -11 5 -23 10 -26 6 -3 10 3 10 13 0 11 11 27 25 36 24 16 25
16 25 -4 0 -11 -7 -20 -15 -20 -8 0 -15 -7 -15 -15 0 -8 4 -15 9 -15 5 0 17
-3 27 -7 13 -5 16 -3 11 10 -4 12 -1 17 9 17 12 0 15 7 12 25 -4 17 -1 25 8
25 8 0 14 -7 14 -15 0 -9 9 -15 25 -15 18 0 25 5 25 19 0 11 -6 22 -12 24 -7
3 -3 6 10 6 15 1 22 7 22 21 0 13 7 20 20 20 11 0 20 5 20 10 0 6 -7 10 -15
10 -19 0 -19 9 0 34 11 14 15 16 15 5 0 -12 2 -12 10 1 13 20 13 57 -1 65 -15
10 -21 1 -25 -36 -5 -41 -14 -51 -14 -16 0 16 -5 25 -12 23 -7 -3 -35 -7 -62
-10 -39 -5 -47 -3 -43 8 4 11 -9 16 -54 21 -43 5 -62 12 -70 26 -5 10 -18 19
-29 19 -10 0 -21 6 -23 13 -4 9 -8 9 -15 -2 -7 -9 -17 -11 -33 -5 -13 4 -28 7
-34 5 -5 -1 -4 3 3 10 6 7 12 16 12 21 0 10 -60 5 -67 -5z m105 -125 c2 -7 -3
-12 -12 -12 -9 0 -16 7 -16 16 0 17 22 14 28 -4z"/>
<path d="M6023 2973 c-13 -9 -23 -22 -23 -29 0 -8 -7 -14 -16 -14 -8 0 -12 -4
-9 -10 3 -5 1 -10 -4 -10 -7 0 -11 -27 -11 -70 0 -55 3 -71 18 -79 9 -6 11
-11 5 -11 -26 0 -12 -16 35 -37 47 -23 58 -29 123 -70 19 -13 49 -23 65 -23
17 0 35 -5 41 -11 21 -21 30 1 27 63 -4 60 11 128 28 128 4 0 8 6 8 14 0 8 7
16 15 20 8 3 12 11 10 18 -4 9 7 13 40 13 39 0 48 -4 67 -32 25 -35 93 -75 73
-43 -6 9 8 14 28 11 4 -1 17 8 29 18 21 20 21 20 53 -5 19 -14 36 -32 39 -40
8 -22 34 -17 38 9 2 15 9 21 21 19 10 -2 17 3 17 13 0 9 6 23 14 30 12 12 15
11 19 -6 6 -21 23 -21 90 -3 9 3 17 1 17 -5 0 -6 9 -11 20 -11 11 0 20 4 20
10 0 5 9 14 20 20 21 11 22 6 20 -97 0 -18 5 -35 10 -38 6 -3 10 -21 10 -40 0
-27 -4 -34 -26 -39 l-26 -7 45 -44 c24 -25 52 -61 61 -82 10 -21 24 -51 32
-66 9 -15 13 -34 10 -42 -2 -7 2 -19 10 -26 8 -6 12 -14 10 -16 -3 -3 0 -16 5
-30 8 -23 7 -25 -12 -20 -11 3 -18 3 -15 0 3 -3 0 -15 -5 -26 -14 -24 -18 -77
-7 -77 4 0 8 11 8 24 0 13 8 30 18 37 14 11 15 11 5 0 -19 -22 8 -42 43 -31
16 4 21 9 12 9 -23 1 -23 5 7 37 24 26 29 27 65 17 28 -7 40 -7 40 0 0 7 4 7
12 -1 19 -19 30 -14 18 7 -6 11 -6 22 -1 25 5 3 12 -11 17 -32 11 -52 11 -66
-1 -74 -6 -5 -5 -11 4 -17 15 -9 16 -20 22 -174 1 -49 6 -90 10 -93 4 -2 25
-2 47 2 l39 6 2 60 c1 33 7 72 13 86 6 15 11 29 10 32 0 3 -3 25 -7 50 -4 25
-9 47 -11 49 -2 2 1 10 7 17 8 10 8 22 0 46 -7 20 -11 135 -12 320 l0 288 -25
17 c-31 20 -51 22 -189 24 -152 1 -155 1 -155 -15 0 -15 -23 -28 -55 -32 -10
-1 -21 -7 -23 -13 -5 -16 -22 -3 -22 17 0 10 -8 24 -18 32 -51 42 -52 43 -66
31 -16 -13 -80 -19 -252 -23 -74 -2 -116 -7 -127 -16 -9 -8 -22 -10 -28 -6 -7
4 -44 8 -83 8 -39 1 -76 5 -83 9 -6 4 -14 3 -18 -3 -4 -7 -13 -6 -27 1 -11 6
-33 8 -49 5 -36 -7 -79 11 -72 30 3 8 0 14 -6 14 -6 0 -11 -7 -11 -15 0 -16
-20 -19 -58 -8 -13 3 -19 9 -13 12 5 4 7 11 3 18 -5 7 -14 6 -29 -4z m152
-133 c4 -11 11 -18 16 -15 5 4 9 -2 9 -12 0 -11 6 -25 13 -32 10 -10 9 -14 -5
-22 -9 -5 -24 -16 -32 -24 -20 -21 -23 -19 -30 16 -3 17 -10 28 -15 25 -5 -3
-11 4 -15 16 -3 15 2 30 16 45 26 28 35 29 43 3z m1075 -500 c0 -5 -5 -10 -11
-10 -5 0 -7 5 -4 10 3 6 8 10 11 10 2 0 4 -4 4 -10z"/>
<path d="M6847 2813 c-4 -3 -7 -11 -7 -17 0 -6 5 -5 12 2 6 6 9 14 7 17 -3 3
-9 2 -12 -2z"/>
<path d="M6450 2638 c0 -6 -9 -22 -21 -34 l-20 -22 26 -28 c23 -25 29 -27 47
-15 11 7 17 8 13 2 -4 -7 5 -11 24 -11 17 0 31 -4 31 -8 0 -14 149 -29 154
-15 3 6 14 9 28 6 l23 -6 -23 26 c-41 44 -103 43 -87 0 6 -18 -30 -16 -45 2
-7 8 -17 15 -21 15 -18 0 -79 63 -79 82 0 13 -7 18 -25 18 -14 0 -25 -5 -25
-12z"/>
<path d="M7683 2452 c-27 -24 -26 -55 3 -110 8 -15 14 -32 14 -38 0 -14 77
-39 114 -37 16 1 32 7 36 13 4 7 10 11 14 11 20 -3 26 1 26 14 0 8 -5 15 -10
15 -7 0 -7 6 -1 19 7 13 6 24 -4 37 -8 11 -15 27 -15 36 0 11 -5 15 -15 12
-10 -4 -15 0 -15 11 0 11 -5 15 -14 12 -9 -4 -17 2 -21 13 -9 28 -79 23 -112
-8z m73 -108 c-5 -13 -10 -14 -18 -6 -6 6 -8 18 -4 28 5 13 10 14 18 6 6 -6 8
-18 4 -28z"/>
<path d="M646 2184 c-3 -9 -6 -17 -6 -19 0 -9 55 -55 65 -55 6 0 21 -10 35
-22 32 -29 79 -38 147 -27 18 3 20 6 11 22 -8 16 -17 18 -54 13 -26 -3 -44 -2
-44 4 0 6 -6 10 -14 10 -8 0 -16 3 -18 8 -5 11 -66 52 -77 52 -5 0 -16 7 -24
15 -13 13 -16 13 -21 -1z"/>
<path d="M1170 2153 c-26 -7 -64 -27 -78 -40 -9 -9 -19 -10 -32 -3 -18 10 -90
14 -90 6 0 -2 -3 -12 -7 -22 -5 -15 -1 -16 41 -10 26 4 56 9 66 11 10 2 40 6
67 10 79 10 143 26 143 36 0 5 -3 9 -7 10 -59 5 -91 5 -103 2z"/>
<path d="M4240 1704 c0 -8 5 -12 10 -9 6 4 8 11 5 16 -9 14 -15 11 -15 -7z"/>
<path d="M3700 1690 c0 -5 5 -10 11 -10 5 0 7 5 4 10 -3 6 -8 10 -11 10 -2 0
-4 -4 -4 -10z"/>
<path d="M3726 1657 c3 -10 9 -15 12 -12 3 3 0 11 -7 18 -10 9 -11 8 -5 -6z"/>
<path d="M3860 1644 c0 -8 5 -12 10 -9 6 3 10 10 10 16 0 5 -4 9 -10 9 -5 0
-10 -7 -10 -16z"/>
<path d="M4090 1640 c0 -5 5 -10 10 -10 6 0 10 5 10 10 0 6 -4 10 -10 10 -5 0
-10 -4 -10 -10z"/>
<path d="M4546 1635 c4 -8 10 -15 15 -15 4 0 6 7 3 15 -4 8 -10 15 -15 15 -4
0 -6 -7 -3 -15z"/>
<path d="M4590 1640 c0 -5 9 -10 21 -10 11 0 17 5 14 10 -3 6 -13 10 -21 10
-8 0 -14 -4 -14 -10z"/>
<path d="M3750 1630 c0 -5 5 -10 10 -10 6 0 10 5 10 10 0 6 -4 10 -10 10 -5 0
-10 -4 -10 -10z"/>
<path d="M4457 1626 c-6 -15 1 -26 15 -26 4 0 8 9 8 20 0 23 -15 27 -23 6z"/>
<path d="M4820 1630 c0 -5 7 -10 15 -10 8 0 15 5 15 10 0 6 -7 10 -15 10 -8 0
-15 -4 -15 -10z"/>
<path d="M4220 1615 c0 -8 -6 -15 -14 -15 -8 0 -17 -4 -20 -9 -4 -5 5 -6 21
-2 27 7 46 41 24 41 -6 0 -11 -7 -11 -15z"/>
<path d="M3373 1606 c-4 -7 -15 -16 -23 -19 -11 -4 -9 -6 6 -6 11 -1 29 8 39
19 16 18 16 20 2 20 -9 0 -20 -6 -24 -14z"/>
<path d="M3265 1600 c-16 -7 -17 -9 -3 -9 9 -1 20 4 23 9 7 11 7 11 -20 0z"/>
<path d="M4660 1589 c0 -5 5 -7 10 -4 6 3 10 8 10 11 0 2 -4 4 -10 4 -5 0 -10
-5 -10 -11z"/>
<path d="M4819 1573 c-12 -15 -12 -16 4 -10 10 4 23 7 28 7 6 0 7 5 4 10 -9
15 -21 12 -36 -7z"/>
<path d="M4706 1545 c-3 -9 0 -15 9 -15 16 0 20 16 6 24 -5 3 -11 -1 -15 -9z"/>
<path d="M4747 1533 c-4 -3 -7 -12 -7 -20 0 -17 26 -17 33 1 8 21 -11 35 -26
19z"/>
<path d="M4920 1451 c-13 -25 -13 -31 0 -31 6 0 10 7 10 15 0 8 7 15 15 15 8
0 15 5 15 10 0 18 -29 11 -40 -9z"/>
<path d="M5100 1385 c-11 -13 -10 -14 4 -9 9 3 16 10 16 15 0 13 -6 11 -20 -6z"/>
<path d="M4905 1380 c-3 -5 -1 -10 4 -10 6 0 11 5 11 10 0 6 -2 10 -4 10 -3 0
-8 -4 -11 -10z"/>
<path d="M4946 1348 c2 -46 4 -49 15 -42 6 3 9 15 6 25 -3 11 -1 19 4 19 5 0
9 -6 9 -12 0 -9 3 -8 9 2 12 18 7 27 -21 32 -20 4 -23 0 -22 -24z"/>
<path d="M5100 1249 c0 -5 5 -7 10 -4 6 3 10 8 10 11 0 2 -4 4 -10 4 -5 0 -10
-5 -10 -11z"/>
<path d="M8777 1130 c-4 -14 -6 -37 -5 -52 3 -30 -15 -40 -20 -11 -2 10 -8 22
-13 28 -5 5 -9 -26 -9 -78 0 -71 3 -88 18 -96 16 -10 16 -10 0 -11 -10 0 -18
-4 -18 -10 0 -17 28 -11 49 11 26 28 29 61 16 160 -9 61 -14 77 -18 59z"/>
<path d="M5260 1070 c12 -23 35 -22 35 1 0 8 -10 15 -23 17 -21 3 -22 1 -12
-18z"/>
<path d="M6100 1080 c0 -5 5 -10 11 -10 5 0 7 5 4 10 -3 6 -8 10 -11 10 -2 0
-4 -4 -4 -10z"/>
<path d="M5378 1023 c6 -2 18 -2 25 0 6 3 1 5 -13 5 -14 0 -19 -2 -12 -5z"/>
<path d="M5600 980 c0 -5 7 -10 15 -10 8 0 15 5 15 10 0 6 -7 10 -15 10 -8 0
-15 -4 -15 -10z"/>
<path d="M7960 970 c0 -11 2 -20 4 -20 2 0 6 9 9 20 3 11 1 20 -4 20 -5 0 -9
-9 -9 -20z"/>
<path d="M5551 961 c-19 -12 -10 -30 11 -22 10 3 14 11 10 18 -5 7 -13 9 -21
4z"/>
<path d="M5645 960 c-3 -5 1 -10 9 -10 9 0 16 5 16 10 0 6 -4 10 -9 10 -6 0
-13 -4 -16 -10z"/>
<path d="M6255 900 c-3 -5 -1 -10 4 -10 6 0 11 5 11 10 0 6 -2 10 -4 10 -3 0
-8 -4 -11 -10z"/>
<path d="M6225 891 c-3 -5 -1 -12 5 -16 5 -3 10 1 10 9 0 18 -6 21 -15 7z"/>
<path d="M5905 869 c-9 -14 4 -27 13 -13 4 6 14 14 22 17 10 4 8 6 -7 6 -12 1
-25 -4 -28 -10z"/>
<path d="M8345 383 c-11 -3 -24 -9 -29 -14 -17 -15 29 -10 50 6 19 15 15 16
-21 8z"/>
<path d="M8229 341 c-1 -3 -1 -9 0 -13 0 -4 -5 -5 -12 -2 -8 3 -25 -4 -38 -15
-22 -19 -23 -20 -4 -20 27 -1 110 38 101 46 -8 9 -46 12 -47 4z"/>
</g>
</svg>
