<?xml version="1.0" standalone="no"?>
<!DOCTYPE svg PUBLIC "-//W3C//DTD SVG 20010904//EN"
 "http://www.w3.org/TR/2001/REC-SVG-20010904/DTD/svg10.dtd">
<svg version="1.0" xmlns="http://www.w3.org/2000/svg"
 width="480.000000pt" height="480.000000pt" viewBox="0 0 480.000000 480.000000"
 preserveAspectRatio="xMidYMid meet">
<metadata>
Created by potrace 1.11, written by Peter Selinger 2001-2013
</metadata>
<g transform="translate(0.000000,480.000000) scale(0.100000,-0.100000)"
fill="#000000" stroke="none">
<path d="M1989 4659 c-36 -4 -87 -14 -113 -23 -25 -9 -55 -16 -64 -16 -10 0
-27 -7 -38 -16 -18 -15 -18 -15 4 -11 19 5 21 3 11 -9 -6 -8 -29 -14 -50 -14
-27 0 -42 -6 -52 -21 -9 -13 -17 -16 -22 -10 -10 18 -36 13 -33 -6 2 -11 -5
-19 -17 -21 -16 -4 -84 -50 -105 -72 -3 -3 -21 -13 -41 -22 -22 -10 -42 -29
-50 -47 -7 -16 -17 -27 -22 -24 -6 3 -21 -7 -36 -23 -14 -16 -44 -43 -67 -59
-22 -17 -58 -50 -80 -75 -21 -25 -49 -53 -61 -63 -13 -10 -23 -26 -23 -35 0
-9 -12 -28 -26 -42 -23 -21 -25 -30 -21 -70 3 -25 3 -37 0 -27 -8 30 -24 18
-21 -15 2 -24 8 -33 21 -32 12 1 17 -6 18 -25 0 -14 2 -36 5 -48 2 -15 -1 -23
-10 -23 -8 0 -16 -7 -20 -15 -4 -10 -14 -14 -32 -11 -25 5 -25 4 -20 -37 3
-23 3 -36 0 -29 -8 17 -24 15 -24 -4 0 -8 -4 -13 -9 -9 -6 3 -15 -5 -22 -17
-7 -13 -25 -39 -41 -58 -15 -19 -28 -42 -28 -51 0 -17 -26 -33 -33 -21 -2 4
-2 1 0 -7 2 -7 -5 -20 -14 -28 -10 -8 -12 -11 -4 -7 11 5 13 3 8 -10 -4 -10
-7 -24 -7 -33 0 -10 -6 -13 -16 -9 -12 5 -14 1 -9 -15 5 -15 4 -19 -4 -15 -7
5 -11 -2 -11 -18 0 -14 5 -26 11 -26 6 0 8 -9 4 -21 -5 -15 -4 -19 4 -15 6 4
11 0 11 -8 0 -9 5 -16 11 -16 6 0 9 9 6 20 -3 11 -1 18 4 14 5 -3 9 -1 9 5 0
6 10 15 21 22 17 9 23 8 30 -2 13 -21 11 -33 -5 -20 -11 9 -15 7 -19 -8 -2
-11 0 -24 6 -30 7 -7 5 -12 -6 -17 -9 -3 -17 -12 -17 -20 0 -8 -5 -14 -11 -14
-5 0 -7 -5 -4 -10 4 -6 15 -8 24 -5 15 4 18 0 16 -27 -3 -38 -13 -84 -25 -114
-10 -26 13 -157 29 -162 6 -2 11 -12 11 -23 0 -10 4 -19 8 -19 9 0 45 -77 45
-97 0 -7 7 -13 15 -13 7 0 12 -6 9 -12 -2 -7 5 -26 15 -41 17 -23 21 -47 22
-140 3 -117 23 -247 39 -247 5 0 6 7 3 16 -5 13 4 93 20 184 8 46 24 194 29
265 11 168 13 197 19 202 3 3 17 2 32 -1 21 -6 25 -11 20 -31 -4 -14 -1 -25 6
-27 8 -3 9 -12 0 -35 -6 -18 -7 -44 -3 -60 l7 -28 7 25 c7 23 8 23 18 7 8 -14
6 -27 -8 -56 l-19 -38 29 -13 c15 -7 58 -14 94 -16 73 -4 87 -10 79 -31 -8
-19 4 -40 13 -25 10 16 91 -9 92 -28 0 -10 2 -11 6 -2 2 6 9 9 15 6 5 -3 16 2
24 12 14 18 15 18 13 -1 -1 -11 -1 -23 0 -28 2 -13 51 24 51 39 0 8 6 11 15 8
21 -9 67 5 60 17 -4 5 6 22 22 38 53 53 73 79 73 95 0 9 4 16 10 16 5 0 7 6 4
14 -3 8 0 17 5 21 6 3 18 22 26 42 12 28 19 34 36 30 12 -3 30 -1 40 6 14 9
21 9 31 -1 11 -11 10 -16 -4 -26 -29 -21 -21 -28 22 -21 26 4 40 3 40 -4 0 -6
-5 -11 -11 -11 -5 0 -8 -4 -5 -8 3 -5 26 -8 51 -7 25 1 48 -2 51 -6 3 -5 -2
-9 -10 -9 -10 0 -13 -6 -10 -15 4 -9 19 -15 40 -15 24 0 34 -5 34 -15 0 -18
16 -20 23 -2 3 6 3 -3 0 -20 -5 -33 -5 -33 27 -26 24 4 31 3 26 -6 -4 -6 0
-14 8 -17 9 -3 16 -12 16 -20 0 -8 6 -14 13 -14 7 0 20 -12 29 -27 10 -16 18
-22 18 -15 0 17 20 15 20 -3 0 -16 12 -20 23 -8 4 3 2 12 -4 19 -9 11 -7 15 5
20 21 8 31 -2 31 -29 0 -27 34 -36 47 -13 14 24 34 19 61 -15 17 -23 30 -30
42 -25 14 5 15 9 5 21 -9 10 -9 15 -1 15 6 0 11 -4 11 -9 0 -5 25 -11 55 -13
48 -3 56 0 61 16 6 19 7 19 20 1 11 -14 16 -15 28 -6 11 9 22 4 55 -28 24 -23
41 -33 41 -25 0 17 17 19 22 3 2 -6 13 -9 23 -7 18 4 17 6 -7 16 -15 6 -28 21
-31 34 l-4 23 -2 -23 c-1 -29 -25 -24 -29 6 -2 16 4 25 20 31 17 7 19 10 6 10
-10 1 -18 6 -18 13 0 6 -10 2 -23 -10 -13 -12 -26 -22 -30 -22 -13 0 -7 58 8
70 8 7 15 19 15 27 0 11 7 13 24 9 13 -3 26 -2 28 4 2 5 17 12 35 16 27 5 32
3 36 -17 4 -22 4 -22 6 3 0 17 9 32 24 39 12 7 31 22 42 34 18 21 75 55 91 55
3 0 1 -6 -5 -14 -9 -10 -9 -16 -1 -21 7 -4 14 2 17 14 4 16 11 19 29 15 19 -5
24 -2 24 12 0 11 3 29 6 41 4 15 1 23 -14 27 -10 4 -24 17 -30 31 -7 16 -17
23 -27 19 -8 -3 -15 -2 -15 4 0 5 9 12 20 15 11 3 20 10 20 15 0 14 -34 25
-38 13 -2 -6 -8 -11 -14 -11 -6 0 -7 7 -4 15 9 25 -16 54 -52 61 -39 7 -52 23
-24 31 25 6 18 43 -9 43 -11 0 -19 5 -19 10 0 6 9 10 20 10 11 0 20 7 20 15 0
8 5 15 10 15 6 0 10 11 10 25 0 14 -4 25 -9 25 -5 0 -22 5 -38 12 -15 6 -33
10 -39 9 -6 0 -17 5 -23 13 -7 8 -20 12 -28 9 -10 -4 -14 -2 -10 4 4 6 -4 20
-17 31 -18 14 -23 25 -19 41 5 19 3 21 -19 16 -25 -6 -58 14 -58 36 0 5 -9 9
-19 9 -10 0 -22 8 -26 18 -7 15 -9 14 -15 -8 -7 -21 -8 -19 -9 15 -1 49 22 85
54 85 13 0 26 4 30 10 3 5 12 7 19 4 7 -3 19 2 26 11 16 19 30 19 30 0 0 -10
8 -15 23 -14 46 4 67 -1 67 -17 0 -11 8 -14 33 -12 25 2 32 -1 31 -14 -1 -11
5 -18 16 -18 23 0 108 -62 92 -68 -17 -5 -15 -42 3 -42 20 0 19 -10 -2 -25
-16 -12 -16 -14 2 -31 10 -11 23 -20 29 -20 6 -1 17 -2 24 -3 6 0 12 -10 12
-21 0 -14 7 -20 21 -20 11 0 18 -4 14 -9 -3 -6 3 -15 14 -21 15 -8 19 -18 16
-41 -2 -17 -6 -34 -9 -37 -3 -3 -1 -11 5 -18 12 -15 -14 -74 -33 -74 -7 0 -5
-7 4 -17 9 -10 13 -24 11 -31 -9 -24 7 -82 22 -82 8 0 15 -4 15 -8 0 -13 49
-36 78 -38 77 -3 78 -4 100 -43 12 -21 22 -44 22 -49 0 -6 11 -28 25 -48 14
-21 23 -44 21 -51 -3 -7 6 -24 20 -38 14 -14 22 -30 19 -35 -7 -12 14 -54 23
-45 7 6 8 10 11 38 3 28 21 -20 19 -52 -1 -20 3 -36 10 -39 17 -5 15 -29 -3
-36 -17 -6 -21 -46 -5 -46 6 0 10 5 10 10 0 6 3 10 8 10 4 0 8 -42 9 -93 4
-215 2 -202 38 -213 27 -9 37 -7 59 9 16 11 26 28 26 44 0 16 7 27 19 30 24 6
33 56 15 82 -7 10 -11 21 -7 24 3 4 0 13 -7 22 -7 8 -9 22 -6 32 6 15 10 13
31 -12 14 -17 23 -38 21 -47 -2 -10 0 -21 5 -24 13 -8 9 -134 -5 -159 -6 -11
-20 -30 -30 -43 -11 -12 -15 -22 -10 -22 18 0 54 31 54 47 0 8 9 27 19 42 43
60 57 120 56 246 0 108 -3 124 -24 158 -23 38 -61 51 -61 21 0 -9 -7 -14 -17
-12 -33 6 -44 119 -29 295 6 68 6 71 -14 66 -14 -4 -20 -1 -20 12 0 15 -2 16
-17 4 -15 -13 -16 -10 -9 31 4 25 11 49 17 55 17 17 10 57 -11 62 -25 7 -25
14 1 48 18 22 20 29 8 36 -23 14 -39 10 -39 -9 0 -11 -9 -27 -19 -36 -19 -17
-20 -17 -17 32 1 28 8 57 15 66 10 12 8 15 -10 18 -28 4 -49 56 -28 69 8 5 10
9 5 9 -5 0 -3 7 5 16 10 13 10 17 -1 24 -9 6 -18 3 -25 -7 -7 -9 -17 -14 -24
-12 -8 3 -6 11 7 25 26 28 86 22 77 -7 -4 -12 -1 -19 7 -19 8 -1 6 -6 -6 -15
-19 -15 -19 -15 2 -15 12 0 22 5 22 12 0 9 3 9 12 0 17 -17 23 -15 60 18 18
17 36 30 40 30 16 0 7 -26 -12 -38 -24 -15 -26 -32 -4 -32 8 0 13 -4 9 -9 -3
-6 -16 -4 -30 3 -29 15 -69 10 -87 -11 -9 -11 -9 -16 2 -23 9 -5 19 -1 30 13
30 37 57 -5 63 -98 1 -16 7 -39 13 -49 12 -20 34 -14 34 10 0 8 5 14 10 14 16
0 12 70 -5 76 -26 10 -16 84 11 84 8 0 14 7 14 15 0 13 18 20 43 16 20 -3 4
19 -18 25 -29 7 -34 34 -6 34 10 0 22 7 25 16 8 21 9 17 -19 49 l-24 29 2 -29
c2 -22 7 -29 20 -27 9 2 17 -2 17 -8 0 -5 -9 -10 -21 -10 -31 0 -61 20 -55 36
3 8 -1 14 -9 14 -8 0 -15 5 -15 10 0 16 -43 29 -58 17 -9 -7 -11 -6 -6 7 5 13
16 17 47 14 26 -2 42 2 44 10 3 8 -6 12 -29 12 -24 0 -29 3 -19 9 12 8 12 12
2 25 -10 12 -23 14 -54 9 -32 -5 -43 -2 -54 12 -7 11 -13 13 -13 7 0 -7 -5
-12 -11 -12 -5 0 -7 5 -3 11 4 7 -4 20 -17 30 -18 13 -21 21 -13 29 9 9 17 8
33 -2 11 -7 21 -16 21 -20 0 -5 9 -8 19 -8 11 0 21 -6 24 -12 3 -10 7 -10 19
-1 11 10 17 10 27 0 9 -9 14 -9 21 3 13 20 2 31 -25 24 -13 -3 -26 0 -31 7 -5
9 -2 11 8 6 30 -11 28 7 -4 40 -34 35 -53 41 -61 21 -3 -7 -6 -3 -6 10 -1 13
3 20 9 17 6 -3 10 1 10 10 0 8 -7 18 -15 21 -8 4 -15 17 -15 30 0 13 -11 34
-25 46 -14 12 -25 28 -25 35 0 7 -7 13 -15 13 -8 0 -15 7 -15 15 0 14 -47 52
-55 43 -2 -2 9 -18 25 -35 17 -18 30 -39 30 -47 0 -18 -4 -19 -28 -7 -9 5 -25
12 -35 15 -11 3 -21 15 -24 26 -3 11 -12 20 -19 20 -8 0 -14 5 -14 10 0 6 -11
10 -24 10 -13 0 -40 11 -60 25 -20 14 -42 25 -48 25 -6 0 -8 13 -4 35 7 35 -6
49 -18 20 -3 -8 -9 -15 -14 -15 -5 0 -44 35 -88 79 -44 43 -93 85 -109 94 -17
9 -46 31 -66 49 -20 18 -45 39 -55 46 -17 11 -17 12 6 7 l25 -6 -25 20 c-14
11 -27 15 -31 10 -6 -11 -39 -2 -39 11 0 12 -129 72 -165 76 -11 1 -38 7 -60
13 -123 32 -262 64 -275 64 -8 0 -17 4 -20 8 -6 8 -184 28 -235 27 -16 -1 -60
-5 -96 -9z m478 -185 c-3 -3 -12 -4 -19 -1 -8 3 -5 6 6 6 11 1 17 -2 13 -5z
m227 -29 c3 -8 1 -15 -3 -15 -5 0 -11 7 -15 15 -3 8 -1 15 3 15 5 0 11 -7 15
-15z m-34 -15 c0 -5 -4 -10 -10 -10 -5 0 -10 5 -10 10 0 6 5 10 10 10 6 0 10
-4 10 -10z m150 -26 c0 -8 -5 -12 -11 -8 -8 4 -8 0 0 -15 13 -24 27 -27 34 -8
3 6 6 -1 6 -17 1 -23 -2 -26 -12 -17 -8 6 -17 8 -20 4 -4 -3 -7 1 -7 10 0 13
-6 14 -37 5 -21 -6 -42 -15 -46 -22 -4 -6 -5 1 -2 15 6 23 4 26 -24 26 -37 0
-49 9 -32 26 9 9 13 9 20 -1 4 -7 18 -10 32 -8 13 3 30 5 37 5 7 1 10 6 7 11
-4 6 7 10 24 10 21 0 31 -5 31 -16z m91 -178 c6 -6 9 -4 9 7 0 25 45 23 47 -2
1 -14 -3 -18 -14 -14 -11 4 -14 3 -9 -6 5 -8 0 -14 -13 -18 -16 -4 -20 -11
-16 -24 7 -22 2 -23 -26 -9 -14 8 -24 8 -37 0 -16 -11 -16 -11 1 -6 12 4 17 0
17 -13 0 -25 -36 -65 -51 -55 -8 4 -9 3 -5 -4 4 -7 3 -12 -3 -12 -5 0 -11 5
-13 11 -3 9 -10 9 -26 0 -32 -17 -30 13 3 35 14 9 25 24 25 33 0 14 2 14 11 1
9 -12 9 -11 4 5 -18 50 -17 52 15 58 46 10 27 28 -21 21 -26 -4 -39 -3 -39 5
0 6 8 12 18 12 9 1 28 3 42 6 14 2 33 4 43 4 9 0 18 6 18 12 1 7 4 1 6 -13 3
-14 9 -29 14 -34z m137 -38 c-6 -18 -28 -21 -28 -4 0 9 7 16 16 16 9 0 14 -5
12 -12z m-264 -17 c3 -5 -1 -14 -9 -21 -13 -10 -15 -9 -15 9 0 21 14 28 24 12z
m184 -35 c-4 -30 -21 -26 -22 5 -1 18 3 25 12 22 7 -3 12 -15 10 -27z m-58
-16 c0 -5 -7 -10 -15 -10 -8 0 -15 5 -15 10 0 6 7 10 15 10 8 0 15 -4 15 -10z
m110 -17 c0 -5 -7 -17 -15 -27 -18 -24 -20 -42 -2 -28 6 5 22 13 34 16 18 6
20 4 16 -14 -3 -11 0 -20 6 -20 14 0 11 -32 -4 -42 -12 -9 -65 0 -82 14 -7 6
-22 8 -33 5 -24 -6 -37 8 -15 17 8 3 12 12 9 21 -4 9 -1 15 9 15 8 0 17 -9 20
-20 3 -11 11 -20 17 -20 10 0 10 3 0 15 -10 12 -10 18 0 30 7 8 9 15 5 15 -4
0 -2 7 5 15 13 16 30 20 30 8z m-55 -14 c10 -14 1 -21 -19 -13 -9 3 -13 10
-10 15 7 12 21 11 29 -2z m-55 -38 c0 -12 -20 -25 -27 -18 -7 7 6 27 18 27 5
0 9 -4 9 -9z m-30 -45 c0 -3 -4 -8 -10 -11 -5 -3 -10 -1 -10 4 0 6 5 11 10 11
6 0 10 -2 10 -4z m652 -28 c-8 -8 -9 -4 -5 13 4 13 8 18 11 10 2 -7 -1 -18 -6
-23z m-426 -3 c7 -18 45 -20 61 -4 18 18 46 2 40 -22 -5 -17 -2 -20 14 -16 10
3 19 1 19 -4 0 -5 -9 -9 -21 -9 -12 0 -18 -4 -13 -11 5 -9 -4 -10 -31 -5 -21
4 -41 3 -44 -2 -3 -5 -23 -12 -44 -15 -31 -5 -38 -3 -33 8 3 9 -1 15 -10 15
-13 0 -14 2 -1 14 8 8 23 12 35 10 28 -8 37 13 16 37 -10 11 -12 19 -5 19 6 0
14 -7 17 -15z m394 -20 c8 -10 23 -13 41 -10 27 5 28 4 17 -15 -10 -15 -10
-22 0 -32 18 -18 14 -38 -8 -38 -11 0 -20 -4 -20 -10 0 -5 -15 -10 -32 -9
l-33 1 33 9 c32 10 41 22 22 34 -7 4 -6 13 1 26 10 19 9 19 -10 10 -21 -12
-61 3 -61 23 0 4 7 3 15 -4 8 -6 19 -9 25 -5 7 5 5 12 -7 21 -10 7 -13 14 -7
14 6 0 17 -7 24 -15z m-2340 -15 c-13 -24 -26 -26 -33 -6 -6 15 6 24 31 25 10
1 10 -4 2 -19z m2157 4 c-3 -3 -12 -4 -19 -1 -8 3 -5 6 6 6 11 1 17 -2 13 -5z
m73 -35 c0 -5 -4 -9 -10 -9 -5 0 -10 7 -10 16 0 8 5 12 10 9 6 -3 10 -10 10
-16z m72 -1 c3 -7 13 -13 23 -13 10 0 20 -6 23 -14 4 -11 -4 -12 -34 -7 -89
16 -102 37 -27 45 6 0 13 -5 15 -11z m-122 -18 c0 -5 -2 -10 -4 -10 -3 0 -8 5
-11 10 -3 6 -1 10 4 10 6 0 11 -4 11 -10z m201 -100 c6 0 7 -5 3 -11 -8 -14
-24 8 -23 31 1 11 3 10 6 -2 2 -10 9 -18 14 -18z m-91 -30 c0 -5 -7 -7 -15 -4
-8 4 -15 8 -15 10 0 2 7 4 15 4 8 0 15 -4 15 -10z m-2489 -134 c-7 -8 -16 -27
-21 -43 -6 -21 -8 -23 -9 -8 -1 20 24 65 36 65 3 0 0 -6 -6 -14z m2652 -57
c12 -13 13 -19 5 -18 -7 1 -21 -1 -31 -6 -26 -11 -44 9 -27 30 17 20 32 19 53
-6z m-1003 -39 c0 -5 -7 -10 -16 -10 -8 0 -12 5 -9 10 3 6 10 10 16 10 5 0 9
-4 9 -10z m940 2 c0 -13 -12 -22 -22 -16 -10 6 -1 24 13 24 5 0 9 -4 9 -8z
m-873 -28 c-3 -3 -12 -4 -19 -1 -8 3 -5 6 6 6 11 1 17 -2 13 -5z m73 -59 c14
-8 21 -14 15 -14 -5 0 -21 6 -35 14 -14 8 -20 14 -15 14 6 0 21 -6 35 -14z
m-1860 -20 c5 3 11 1 15 -5 3 -6 -2 -13 -12 -17 -10 -4 -22 -11 -26 -17 -5 -7
-6 -4 -3 7 3 10 6 26 7 35 0 11 2 12 6 4 2 -6 9 -10 13 -7z m1135 -146 c-10
-15 -25 -10 -19 6 4 8 10 12 15 9 5 -3 7 -10 4 -15z m79 12 c3 -5 -1 -11 -9
-15 -9 -3 -15 0 -15 9 0 16 16 20 24 6z m-44 -41 c0 -5 -4 -10 -10 -10 -5 0
-10 5 -10 10 0 6 5 10 10 10 6 0 10 -4 10 -10z m-110 -59 c3 -2 -3 -1 -13 2
-20 7 -16 -4 11 -36 8 -9 12 -20 9 -23 -10 -10 -37 4 -44 23 -4 10 -12 21 -19
25 -7 5 -10 17 -7 28 5 18 6 18 32 3 14 -10 28 -19 31 -22z m1682 -13 c-7 -7
-12 -8 -12 -2 0 6 3 14 7 17 3 4 9 5 12 2 2 -3 -1 -11 -7 -17z m-11 -23 c5 4
9 -1 9 -10 0 -29 -25 -10 -27 21 -1 20 0 22 4 6 2 -12 9 -20 14 -17z m-1593
-21 c2 -16 9 -35 14 -42 14 -16 1 -29 -14 -14 -7 7 -19 12 -27 11 -11 0 -12
-2 -3 -6 22 -9 13 -33 -13 -33 -13 0 -28 -7 -33 -17 -6 -10 -16 -14 -26 -10
-16 6 -16 8 1 26 10 10 27 21 38 24 13 3 9 5 -13 6 -27 1 -36 -5 -53 -34 -30
-50 -47 -45 -54 15 -3 21 0 28 9 24 8 -3 30 2 51 10 21 9 54 16 74 17 29 0 32
2 16 9 -11 5 -14 9 -7 9 6 1 12 10 12 22 0 31 24 17 28 -17z m-160 -2 c2 -13
-2 -22 -10 -22 -8 0 -15 12 -16 26 -2 32 21 28 26 -4z m222 -82 c0 -5 -4 -10
-10 -10 -5 0 -10 5 -10 10 0 6 5 10 10 10 6 0 10 -4 10 -10z m-67 -37 c3 -5 1
-17 -4 -28 -7 -19 -8 -19 -8 2 -1 12 -9 24 -18 26 -14 4 -13 5 4 6 12 0 24 -2
26 -6z m-707 -73 c17 0 24 -5 24 -20 0 -24 -18 -27 -27 -4 -3 8 -12 13 -19 10
-10 -4 -14 3 -13 27 1 23 3 26 6 10 3 -16 11 -23 29 -23z m-66 -20 c0 -5 -10
-10 -22 -9 -22 0 -22 1 -3 9 11 5 21 9 23 9 1 1 2 -3 2 -9z m47 -34 c-4 -9
-13 -13 -22 -10 -8 3 -12 11 -9 16 4 6 10 5 15 -3 7 -11 9 -9 9 5 0 11 3 17 6
13 4 -3 4 -13 1 -21z m133 10 c0 -3 -4 -8 -10 -11 -5 -3 -10 -1 -10 4 0 6 5
11 10 11 6 0 10 -2 10 -4z m-66 -21 c-6 -16 -24 -21 -24 -7 0 11 11 22 21 22
5 0 6 -7 3 -15z m1354 -76 c-2 -6 -8 -10 -13 -10 -5 0 -11 4 -13 10 -2 6 4 11
13 11 9 0 15 -5 13 -11z m-388 -9 c0 -5 -2 -10 -4 -10 -3 0 -8 5 -11 10 -3 6
-1 10 4 10 6 0 11 -4 11 -10z m358 -41 c-2 -6 -8 -10 -13 -10 -5 0 -11 4 -13
10 -2 6 4 11 13 11 9 0 15 -5 13 -11z m-64 -48 c8 -12 -20 -22 -40 -14 -13 5
-13 7 -2 14 17 11 35 11 42 0z m1170 -53 c9 -17 16 -38 16 -48 0 -9 5 -21 12
-28 8 -8 9 -15 2 -22 -8 -8 -14 -7 -21 2 -16 22 -52 116 -45 122 11 12 21 5
36 -26z"/>
<path d="M3311 4205 c13 -13 27 -25 32 -25 4 0 23 -16 41 -35 32 -33 57 -45
56 -27 -1 4 -13 16 -27 27 -14 11 -42 35 -63 53 -44 38 -73 43 -39 7z"/>
<path d="M225 4201 c-3 -5 -1 -12 5 -16 5 -3 10 1 10 9 0 18 -6 21 -15 7z"/>
<path d="M210 4128 c0 -51 -31 -261 -42 -285 -6 -11 -9 -37 -6 -57 2 -20 1
-36 -2 -36 -11 0 -32 -119 -26 -145 4 -14 2 -25 -3 -25 -12 0 -33 -115 -33
-185 0 -41 -3 -54 -8 -40 l-9 20 -2 -20 c-1 -11 -3 -29 -4 -40 -4 -30 -45
-243 -56 -295 -6 -25 -13 -126 -16 -225 -5 -172 -1 -222 10 -125 3 25 10 68
16 95 6 28 12 69 15 92 2 23 7 47 11 53 4 7 9 32 11 57 2 25 9 51 15 59 6 7 8
18 4 23 -3 6 -1 19 5 30 5 11 6 22 2 25 -5 3 -8 30 -8 61 1 30 -3 55 -8 55 -5
0 -3 6 3 13 6 8 8 17 4 20 -3 4 -2 7 4 7 6 0 14 28 18 63 4 34 11 69 16 78 4
9 10 38 13 65 3 27 10 74 16 104 6 30 13 67 15 83 2 15 7 32 10 37 3 6 0 10
-7 10 -9 0 -10 2 -1 8 6 4 16 36 22 72 12 66 48 160 62 160 5 0 6 6 3 14 -3 7
2 20 10 29 9 9 13 22 10 30 -3 8 0 18 5 22 6 3 8 12 4 18 -4 7 -8 17 -9 22 -1
6 -9 27 -18 48 -21 47 -46 50 -46 5z m-93 -680 c-3 -7 -5 -2 -5 12 0 14 2 19
5 13 2 -7 2 -19 0 -25z"/>
<path d="M4034 4053 c4 -58 9 -109 11 -113 2 -4 7 -67 11 -141 3 -74 9 -136
14 -139 4 -3 10 -12 13 -20 3 -8 4 46 1 120 -8 211 -11 241 -22 252 -7 7 -8
37 -5 79 5 61 4 69 -12 69 -15 0 -16 -10 -11 -107z"/>
<path d="M568 3993 c6 -2 18 -2 25 0 6 3 1 5 -13 5 -14 0 -19 -2 -12 -5z"/>
<path d="M1060 3830 c0 -5 4 -10 9 -10 6 0 13 5 16 10 3 6 -1 10 -9 10 -9 0
-16 -4 -16 -10z"/>
<path d="M2675 3591 c-3 -5 -1 -12 4 -15 5 -3 11 1 15 9 6 16 -9 21 -19 6z"/>
<path d="M4078 3547 c-5 -46 2 -117 12 -117 8 0 3 140 -4 148 -2 1 -6 -12 -8
-31z"/>
<path d="M3826 3404 c-4 -10 -1 -14 6 -12 15 5 23 28 10 28 -5 0 -13 -7 -16
-16z"/>
<path d="M4085 3390 c3 -5 8 -10 11 -10 2 0 4 5 4 10 0 6 -5 10 -11 10 -5 0
-7 -4 -4 -10z"/>
<path d="M4094 3266 c4 -55 8 -102 11 -104 5 -5 9 65 5 83 -1 6 -4 33 -7 60
-9 90 -15 62 -9 -39z"/>
<path d="M830 3286 c0 -8 5 -18 10 -21 6 -3 10 1 10 9 0 8 -4 18 -10 21 -5 3
-10 -1 -10 -9z"/>
<path d="M2990 3280 c0 -5 4 -10 9 -10 6 0 13 5 16 10 3 6 -1 10 -9 10 -9 0
-16 -4 -16 -10z"/>
<path d="M3665 3251 c-4 -7 3 -21 16 -32 27 -24 33 -24 20 -1 -23 40 -28 44
-36 33z"/>
<path d="M3755 3200 c3 -5 8 -10 11 -10 2 0 4 5 4 10 0 6 -5 10 -11 10 -5 0
-7 -4 -4 -10z"/>
<path d="M4104 3065 c4 -49 9 -126 12 -170 2 -44 8 -145 14 -225 5 -80 12
-183 15 -230 3 -47 8 -98 10 -115 3 -16 7 -93 11 -170 3 -77 7 -156 9 -175 2
-19 4 -38 4 -42 1 -4 87 -8 192 -8 106 1 190 2 188 4 -2 3 -42 7 -88 10 -46 3
-86 8 -89 11 -3 2 -11 0 -19 -6 -9 -8 -17 -8 -26 0 -10 8 -17 7 -25 -1 -9 -9
-18 -9 -37 0 -14 7 -34 12 -43 12 -14 0 -17 11 -17 72 0 91 -7 200 -14 213 -3
6 -6 43 -7 84 -2 40 -5 110 -9 155 -3 44 -10 137 -16 206 -10 136 -11 147 -37
327 -21 146 -38 175 -28 48z"/>
<path d="M3080 3060 c0 -5 4 -10 9 -10 6 0 13 5 16 10 3 6 -1 10 -9 10 -9 0
-16 -4 -16 -10z"/>
<path d="M1155 3010 c3 -5 8 -10 11 -10 2 0 4 5 4 10 0 6 -5 10 -11 10 -5 0
-7 -4 -4 -10z"/>
<path d="M2850 2680 c0 -6 7 -13 16 -17 13 -5 13 -7 2 -14 -10 -7 -9 -9 5 -9
18 0 21 8 11 34 -7 18 -34 22 -34 6z"/>
<path d="M2400 2625 c0 -8 4 -15 9 -15 5 0 11 7 15 15 3 9 0 15 -9 15 -8 0
-15 -7 -15 -15z"/>
<path d="M2580 2625 c7 -8 19 -15 26 -15 8 0 14 7 14 15 0 10 -10 15 -26 15
-22 0 -25 -2 -14 -15z"/>
<path d="M2680 2632 c0 -14 11 -21 26 -15 21 8 17 23 -6 23 -11 0 -20 -4 -20
-8z"/>
<path d="M2638 2586 c-2 -23 0 -36 7 -36 7 0 11 13 10 30 -3 44 -12 47 -17 6z"/>
<path d="M2884 2595 c-3 -14 -13 -25 -20 -25 -12 0 -12 -3 -2 -14 14 -15 41
-10 31 7 -4 6 3 8 21 3 30 -7 32 -4 10 29 -21 32 -32 32 -40 0z"/>
<path d="M2800 2590 c0 -5 4 -10 9 -10 6 0 13 5 16 10 3 6 -1 10 -9 10 -9 0
-16 -4 -16 -10z"/>
<path d="M2526 2563 c-6 -14 -5 -15 5 -6 7 7 10 15 7 18 -3 3 -9 -2 -12 -12z"/>
<path d="M2685 2570 c-3 -5 1 -10 10 -10 9 0 13 5 10 10 -3 6 -8 10 -10 10 -2
0 -7 -4 -10 -10z"/>
<path d="M2975 2560 c-4 -6 -11 -8 -16 -5 -10 7 -13 -28 -3 -38 6 -6 44 35 44
47 0 10 -18 7 -25 -4z"/>
<path d="M2551 2524 c0 -11 3 -14 6 -6 3 7 2 16 -1 19 -3 4 -6 -2 -5 -13z"/>
<path d="M2750 2530 c0 -5 7 -10 16 -10 8 0 12 5 9 10 -3 6 -10 10 -16 10 -5
0 -9 -4 -9 -10z"/>
<path d="M3050 2520 c0 -5 5 -10 10 -10 6 0 10 5 10 10 0 6 -4 10 -10 10 -5 0
-10 -4 -10 -10z"/>
<path d="M2280 2495 c0 -8 -5 -15 -11 -15 -13 0 -5 -30 22 -83 30 -59 36 -123
14 -147 -10 -11 -23 -20 -28 -20 -15 0 -36 33 -37 58 0 12 -3 21 -7 20 -5 -2
-24 9 -44 25 -33 25 -44 27 -122 27 -59 0 -87 4 -89 12 -3 7 -11 13 -19 13 -8
1 -27 5 -42 9 -21 7 -31 4 -41 -9 -11 -15 -13 -15 -25 -1 -9 10 -18 13 -25 8
-6 -5 -24 -12 -40 -16 -22 -5 -26 -10 -17 -16 19 -11 6 -40 -19 -40 -11 0 -20
5 -20 10 0 18 -18 10 -25 -10 -4 -11 -10 -18 -14 -15 -5 2 -8 -13 -7 -35 0
-22 5 -41 11 -44 6 -2 10 -16 10 -32 -3 -59 87 -98 119 -52 9 12 16 17 16 10
0 -6 9 -12 20 -12 11 0 20 -6 20 -14 0 -8 8 -17 19 -21 14 -4 19 -15 19 -44 1
-34 -2 -38 -19 -34 -26 7 -25 -21 1 -47 11 -11 20 -25 20 -31 0 -10 52 -4 74
9 5 2 6 34 3 71 -2 36 -1 57 3 46 7 -18 8 -18 15 8 5 20 13 27 31 27 14 0 24
-6 24 -14 0 -13 58 -31 68 -21 3 3 0 5 -6 5 -7 0 -12 7 -12 15 0 8 -9 24 -21
36 -29 29 -19 32 29 9 22 -11 46 -20 51 -20 17 0 33 -38 18 -43 -6 -2 -9 -7
-6 -10 8 -9 81 30 92 48 12 22 37 18 37 -5 0 -14 7 -20 21 -20 18 0 21 4 16
30 -4 16 -2 32 3 35 6 4 8 10 5 15 -6 10 21 33 33 27 4 -3 7 6 6 21 -2 44 -3
45 -19 32 -21 -17 -19 -3 6 36 19 31 19 34 4 34 -14 0 -16 6 -11 30 5 27 3 30
-18 30 -33 0 -49 23 -49 73 0 38 -9 56 -29 57 -5 0 -8 -7 -8 -15z m-310 -161
c0 -2 -7 -4 -15 -4 -8 0 -15 4 -15 10 0 5 7 7 15 4 8 -4 15 -8 15 -10z m-230
-164 c0 -5 -4 -10 -10 -10 -5 0 -10 5 -10 10 0 6 5 10 10 10 6 0 10 -4 10 -10z"/>
<path d="M2380 2500 c0 -5 5 -10 10 -10 6 0 10 5 10 10 0 6 -4 10 -10 10 -5 0
-10 -4 -10 -10z"/>
<path d="M2330 2460 c-12 -8 -11 -10 8 -10 12 0 22 5 22 10 0 13 -11 13 -30 0z"/>
<path d="M2557 2441 c-4 -17 -3 -21 5 -13 5 5 8 16 6 23 -3 8 -7 3 -11 -10z"/>
<path d="M2975 2430 c4 -6 11 -8 16 -5 14 9 11 15 -7 15 -8 0 -12 -5 -9 -10z"/>
<path d="M2400 2380 c0 -5 5 -10 11 -10 5 0 7 5 4 10 -3 6 -8 10 -11 10 -2 0
-4 -4 -4 -10z"/>
<path d="M2880 2274 c0 -8 5 -12 10 -9 6 4 8 11 5 16 -9 14 -15 11 -15 -7z"/>
<path d="M2606 2271 c-4 -7 -5 -15 -2 -18 9 -9 19 4 14 18 -4 11 -6 11 -12 0z"/>
<path d="M2448 2193 c7 -3 16 -2 19 1 4 3 -2 6 -13 5 -11 0 -14 -3 -6 -6z"/>
<path d="M2388 2162 c12 -8 72 -4 72 4 0 2 -19 4 -42 4 -26 0 -38 -4 -30 -8z"/>
<path d="M3579 2078 c-1 -2 -3 -15 -5 -30 -2 -23 1 -28 19 -28 27 0 42 10 50
33 6 15 2 18 -16 16 -12 -2 -28 0 -34 4 -7 5 -14 7 -14 5z m31 -38 c0 -5 -4
-10 -10 -10 -5 0 -10 5 -10 10 0 6 5 10 10 10 6 0 10 -4 10 -10z"/>
<path d="M2161 2014 c0 -11 3 -14 6 -6 3 7 2 16 -1 19 -3 4 -6 -2 -5 -13z"/>
<path d="M2070 1940 c-9 -6 -10 -10 -3 -10 6 0 15 5 18 10 8 12 4 12 -15 0z"/>
<path d="M1830 1916 c0 -9 -12 -18 -27 -22 -49 -10 -55 -14 -60 -35 -4 -12
-11 -18 -20 -15 -8 3 -17 -2 -20 -12 -4 -9 -13 -23 -20 -30 -7 -8 -25 -29 -39
-48 -23 -30 -30 -33 -66 -30 l-40 4 5 -36 c3 -21 3 -31 0 -24 -12 30 -20 6
-20 -60 0 -58 2 -68 12 -55 7 10 15 17 19 17 4 0 18 12 31 26 16 17 38 28 67
31 38 5 69 23 118 67 19 17 88 28 96 15 3 -6 17 -8 29 -5 14 4 25 1 27 -6 4
-10 16 -10 58 0 32 8 57 9 63 3 12 -12 -11 -54 -26 -44 -19 12 -75 14 -82 3
-10 -17 -44 -11 -57 10 -7 11 -19 20 -27 20 -11 0 -11 -3 -1 -15 12 -15 3 -22
-51 -38 -9 -3 -19 -21 -23 -42 -6 -30 -11 -36 -29 -33 -15 2 -22 -2 -22 -13 0
-9 -9 -24 -19 -34 -13 -13 -16 -27 -12 -48 3 -16 6 -33 6 -38 0 -5 6 -9 13 -9
8 0 22 -9 31 -19 10 -11 24 -17 31 -15 7 3 15 -2 18 -10 4 -9 12 -16 20 -16 9
0 12 -9 9 -30 -3 -18 0 -30 7 -30 6 0 11 6 11 14 0 9 12 16 33 18 20 2 32 8
32 18 0 25 18 40 33 27 12 -9 11 -13 -5 -19 -11 -5 0 -7 30 -4 36 3 47 0 43
-9 -3 -8 2 -11 15 -8 10 3 19 10 19 15 0 6 9 8 19 5 31 -8 45 7 30 31 -17 26
-11 32 24 25 18 -4 27 -12 27 -24 0 -35 19 -29 22 8 3 33 7 38 30 41 24 3 27
-1 30 -30 2 -22 10 -36 26 -44 13 -6 23 -15 22 -20 -1 -5 7 -11 17 -12 10 -2
22 -8 28 -13 5 -5 17 -9 27 -9 10 0 18 -4 18 -10 0 -5 11 -10 23 -10 34 0 38
-9 20 -39 -11 -17 -12 -22 -3 -13 19 17 49 15 56 -3 9 -21 24 -19 24 4 0 10
-8 22 -17 26 -17 6 -17 7 0 20 10 7 19 28 21 47 2 19 7 41 11 48 13 22 -33 53
-70 46 -39 -7 -62 6 -41 23 10 8 16 9 21 1 3 -5 22 -10 41 -10 27 0 34 4 34
20 0 11 5 20 11 20 6 0 9 -9 6 -20 -5 -21 16 -45 33 -35 5 3 10 15 10 25 0 36
-12 50 -41 50 -22 0 -29 -5 -29 -20 0 -21 -24 -28 -35 -10 -9 14 -58 8 -71 -9
-17 -21 -35 -4 -28 26 4 16 2 28 -7 34 -7 4 -11 10 -8 13 3 3 15 -3 27 -14 18
-17 26 -19 44 -9 16 9 23 9 26 0 7 -21 32 -12 29 12 -2 19 2 22 26 19 15 -1
27 2 27 8 0 5 -16 10 -35 10 -37 0 -59 25 -35 40 8 5 9 9 1 14 -23 14 -11 36
19 36 17 0 30 3 30 8 0 15 65 5 68 -10 2 -12 10 -14 27 -9 31 8 31 8 16 53 -7
21 -21 40 -32 43 -16 5 -18 9 -8 21 9 12 9 13 -3 9 -11 -4 -17 1 -21 17 -4 15
-14 24 -27 24 -11 0 -20 -4 -20 -8 0 -13 -44 -8 -65 8 -17 13 -18 16 -5 24 9
6 10 10 3 10 -7 0 -16 -8 -21 -17 -8 -14 -14 -15 -41 -4 -17 8 -28 18 -24 24
3 6 1 7 -5 3 -7 -4 -26 0 -44 8 -122 55 -152 66 -178 66 -16 0 -32 -5 -35 -10
-4 -6 -15 -8 -24 -5 -10 3 -24 -1 -31 -10 -21 -25 -123 -17 -155 13 -19 17
-25 19 -25 8z m67 -292 c-3 -3 -12 -4 -19 -1 -8 3 -5 6 6 6 11 1 17 -2 13 -5z
m507 -18 c-3 -9 -10 -16 -15 -16 -6 0 -5 9 1 21 13 24 24 20 14 -5z m-81 -3
c3 -5 -6 -9 -19 -9 -13 -1 -24 2 -24 7 0 11 37 12 43 2z m-3 -133 c0 -5 -7
-10 -15 -10 -8 0 -15 5 -15 10 0 6 7 10 15 10 8 0 15 -4 15 -10z m-17 -85 c-3
-13 -30 -18 -51 -10 -14 5 -14 7 -2 16 19 11 56 8 53 -6z m160 8 c-13 -2 -33
-2 -45 0 -13 2 -3 4 22 4 25 0 35 -2 23 -4z m-9 -21 c2 -4 1 -14 -4 -22 -7
-11 -12 -12 -21 -3 -6 6 -8 16 -5 22 8 13 23 14 30 3z m-106 -14 c-2 -8 9 -14
25 -16 15 -2 27 -7 27 -12 0 -15 -34 -17 -52 -2 -9 7 -25 15 -35 17 -29 6 -29
6 -8 15 29 13 45 12 43 -2z"/>
<path d="M4618 1923 c7 -3 16 -2 19 1 4 3 -2 6 -13 5 -11 0 -14 -3 -6 -6z"/>
<path d="M2440 1900 c0 -5 9 -10 20 -10 11 0 20 5 20 10 0 6 -9 10 -20 10 -11
0 -20 -4 -20 -10z"/>
<path d="M2274 1879 c-3 -5 6 -9 20 -9 31 0 34 6 6 13 -11 3 -23 1 -26 -4z"/>
<path d="M2575 1770 c-3 -5 -1 -10 4 -10 6 0 11 5 11 10 0 6 -2 10 -4 10 -3 0
-8 -4 -11 -10z"/>
<path d="M1895 1680 c3 -5 10 -10 16 -10 5 0 9 5 9 10 0 6 -7 10 -16 10 -8 0
-12 -4 -9 -10z"/>
<path d="M2501 1614 c0 -11 3 -14 6 -6 3 7 2 16 -1 19 -3 4 -6 -2 -5 -13z"/>
<path d="M1541 1524 c0 -11 3 -14 6 -6 3 7 2 16 -1 19 -3 4 -6 -2 -5 -13z"/>
<path d="M2525 1530 c3 -5 13 -10 21 -10 8 0 12 5 9 10 -3 6 -13 10 -21 10 -8
0 -12 -4 -9 -10z"/>
<path d="M1616 1465 c2 -30 -1 -35 -19 -35 -17 0 -19 -2 -8 -9 20 -13 46 -6
70 18 l21 21 -20 20 c-31 31 -48 26 -44 -15z"/>
<path d="M1577 1463 c-12 -11 -8 -23 8 -23 8 0 15 7 15 15 0 16 -12 20 -23 8z"/>
<path d="M2705 1410 c-3 -5 -1 -10 4 -10 6 0 11 5 11 10 0 6 -2 10 -4 10 -3 0
-8 -4 -11 -10z"/>
<path d="M2544 1398 c-4 -5 -1 -15 5 -21 8 -8 11 -8 11 1 0 7 16 12 40 12 38
0 59 -19 23 -21 -13 0 -11 -3 6 -10 18 -7 27 -6 33 3 16 26 14 28 -90 42 -12
2 -25 -1 -28 -6z"/>
<path d="M1541 1361 c-10 -7 -10 -10 -1 -16 6 -4 16 -3 22 3 13 13 -4 23 -21
13z"/>
<path d="M2555 1360 c-4 -7 -3 -16 2 -21 12 -12 45 0 40 15 -5 15 -34 19 -42
6z"/>
<path d="M1760 1340 c0 -24 25 -27 34 -4 9 23 8 24 -14 24 -13 0 -20 -7 -20
-20z"/>
<path d="M2208 1353 c7 -3 16 -2 19 1 4 3 -2 6 -13 5 -11 0 -14 -3 -6 -6z"/>
<path d="M2688 1353 c7 -3 16 -2 19 1 4 3 -2 6 -13 5 -11 0 -14 -3 -6 -6z"/>
<path d="M1637 1333 c-13 -13 -7 -32 8 -27 8 4 15 12 15 20 0 15 -12 19 -23 7z"/>
<path d="M2145 1320 c-3 -5 -1 -10 4 -10 6 0 11 5 11 10 0 6 -2 10 -4 10 -3 0
-8 -4 -11 -10z"/>
<path d="M2640 1316 c0 -9 7 -16 16 -16 17 0 14 22 -4 28 -7 2 -12 -3 -12 -12z"/>
<path d="M2050 1301 c0 -12 5 -21 10 -21 6 0 10 6 10 14 0 8 -4 18 -10 21 -5
3 -10 -3 -10 -14z"/>
<path d="M1680 1299 c0 -25 28 -45 42 -31 9 9 9 12 -1 12 -8 0 -20 8 -27 18
-12 15 -13 15 -14 1z"/>
<path d="M1785 1290 c-3 -5 1 -10 10 -10 9 0 13 5 10 10 -3 6 -8 10 -10 10 -2
0 -7 -4 -10 -10z"/>
<path d="M2295 1270 c3 -5 8 -10 11 -10 2 0 4 5 4 10 0 6 -5 10 -11 10 -5 0
-7 -4 -4 -10z"/>
<path d="M2321 1264 c0 -11 3 -14 6 -6 3 7 2 16 -1 19 -3 4 -6 -2 -5 -13z"/>
<path d="M2350 1271 c0 -6 5 -13 10 -16 6 -3 10 1 10 9 0 9 -4 16 -10 16 -5 0
-10 -4 -10 -9z"/>
<path d="M2540 1260 c0 -11 4 -20 8 -20 5 0 15 -12 22 -27 7 -17 14 -23 17
-15 3 7 0 19 -7 27 -14 16 -5 35 16 35 8 0 14 5 14 10 0 6 -16 10 -35 10 -28
0 -35 -4 -35 -20z"/>
<path d="M2600 1234 c0 -8 5 -12 10 -9 6 3 10 10 10 16 0 5 -4 9 -10 9 -5 0
-10 -7 -10 -16z"/>
<path d="M3455 1198 c21 -95 24 -119 25 -189 1 -240 -92 -502 -189 -535 -18
-6 -31 -15 -29 -20 2 -5 -9 -10 -24 -12 -29 -3 -37 -17 -15 -25 9 -4 8 -6 -2
-6 -8 -1 -19 7 -26 16 -11 14 -10 20 4 30 15 11 15 12 0 13 -25 0 -32 30 -13
51 20 23 14 24 -31 5 -18 -8 -36 -12 -39 -8 -11 10 -6 22 8 22 8 0 17 7 20 16
4 12 2 15 -9 10 -10 -3 -15 1 -15 13 0 10 -7 24 -15 31 -8 7 -15 19 -15 26 0
8 -6 11 -15 8 -8 -4 -15 -1 -15 5 0 6 14 11 30 11 17 0 30 5 30 10 0 6 -13 10
-30 10 -38 0 -40 20 -2 21 25 2 26 2 3 6 -27 5 -51 25 -51 42 0 6 5 11 10 11
6 0 10 -7 10 -15 0 -8 5 -15 10 -15 6 0 10 7 10 15 0 8 -5 15 -11 15 -6 0 -8
9 -3 22 6 20 5 21 -9 10 -13 -11 -17 -10 -27 8 -10 18 -9 22 9 27 21 5 30 33
11 33 -5 0 -10 -5 -10 -11 0 -5 -4 -7 -10 -4 -16 10 -12 23 10 30 11 4 18 10
15 15 -3 5 -12 7 -20 3 -8 -3 -15 0 -15 6 0 6 5 11 11 11 8 0 7 5 -1 15 -7 9
-19 14 -26 11 -16 -6 -28 10 -18 25 4 8 9 7 15 -2 4 -7 11 -10 15 -6 4 3 1 13
-5 21 -10 12 -10 22 0 51 13 36 24 44 32 23 3 -9 11 -4 25 12 25 29 29 60 8
60 -19 0 -76 -33 -76 -44 0 -12 -32 -35 -48 -36 -9 0 -11 7 -7 20 5 14 2 20
-9 20 -9 0 -16 -9 -16 -20 0 -12 -7 -20 -17 -20 -9 0 -14 -3 -10 -6 10 -10
-18 -33 -44 -36 -13 -2 -30 -7 -36 -11 -9 -5 -13 -2 -13 9 0 16 -1 16 -12 2
-21 -26 -55 -28 -83 -6 l-26 20 -23 -21 c-26 -25 -41 -27 -32 -6 6 16 -5 18
-41 9 -27 -7 -30 -24 -5 -25 9 0 12 -3 5 -5 -7 -3 -22 0 -33 6 -18 9 -25 8
-41 -6 -11 -10 -17 -24 -15 -31 3 -7 1 -15 -3 -18 -5 -2 -11 6 -13 20 -4 18
-1 25 11 25 12 1 11 5 -8 20 -13 11 -29 20 -37 20 -18 0 -18 15 1 34 17 16 20
46 6 46 -5 0 -13 -9 -16 -20 -5 -15 -11 -18 -22 -11 -18 10 -53 3 -53 -10 0
-5 -7 -9 -15 -9 -18 0 -20 17 -2 23 9 3 9 7 0 17 -17 18 -34 2 -27 -26 5 -21
3 -23 -12 -17 -11 3 -23 12 -27 20 -9 15 -37 18 -37 3 0 -5 -17 -10 -37 -10
-21 0 -51 -7 -67 -15 -32 -17 -56 -19 -56 -6 0 5 7 12 16 15 15 6 15 8 -2 25
-22 21 -41 17 -23 -5 8 -10 8 -14 0 -14 -6 0 -11 -16 -11 -35 0 -19 -5 -35
-11 -35 -7 0 -9 10 -7 24 3 13 -1 35 -8 47 -10 18 -13 20 -14 7 0 -9 -12 -23
-27 -30 -15 -7 -33 -23 -39 -36 -6 -12 -15 -26 -19 -30 -5 -4 -5 -2 -1 5 4 7
4 23 1 36 l-7 25 -23 -24 c-29 -29 -41 -30 -57 -4 -17 26 -42 27 -35 1 3 -15
-1 -21 -17 -24 -17 -3 -15 -5 7 -6 26 -1 34 -11 20 -24 -3 -4 -12 -2 -19 4 -9
7 -19 7 -33 0 -11 -6 -27 -8 -36 -5 -9 4 -27 1 -40 -6 -20 -10 -27 -10 -49 6
-14 11 -26 27 -26 37 0 14 -5 17 -20 12 -13 -4 -23 0 -32 14 -7 12 -23 21 -36
21 -13 0 -83 -38 -156 -83 -72 -46 -183 -109 -246 -141 -63 -31 -128 -67 -144
-81 -16 -14 -34 -25 -39 -25 -6 0 -18 -6 -26 -14 -32 -29 -154 -87 -204 -97
-59 -12 -230 -78 -235 -91 -2 -4 -10 -8 -17 -8 -8 0 -18 -6 -22 -14 -8 -13
-89 -37 -126 -37 -32 0 -99 -28 -132 -56 -65 -55 -91 -73 -137 -95 l-47 -23
-1 -127 0 -128 884 0 c854 0 885 1 891 19 8 26 3 121 -7 127 -13 8 -10 112 5
117 8 3 2 13 -15 28 -16 14 -28 30 -28 37 0 7 -7 15 -16 19 -8 3 -14 15 -12
27 1 11 -6 37 -15 56 -32 63 -32 295 -1 403 6 20 40 23 51 3 14 -25 140 -95
183 -102 36 -6 80 -35 80 -54 0 -3 18 -4 40 -2 27 3 40 0 40 -8 0 -9 -14 -11
-50 -8 -37 4 -50 1 -55 -9 -7 -21 -7 -23 10 -23 8 0 15 -7 15 -15 0 -8 -8 -15
-17 -15 -14 0 -15 -2 -4 -9 7 -5 10 -14 7 -20 -4 -7 1 -11 13 -11 11 0 23 5
26 10 10 16 55 12 62 -5 8 -21 -3 -30 -20 -17 -17 14 -27 6 -27 -23 0 -29 10
-37 27 -24 10 9 13 8 13 -5 0 -9 -7 -16 -16 -16 -13 0 -14 -3 -5 -13 8 -10 7
-17 -1 -25 -8 -8 -8 -15 2 -27 12 -14 15 -13 37 6 29 28 31 8 2 -32 -18 -25
-19 -34 -9 -64 15 -46 29 -53 51 -24 14 18 21 21 27 11 5 -7 16 -10 25 -6 13
5 17 0 17 -19 0 -14 5 -29 10 -32 6 -3 10 4 10 17 0 22 0 22 26 -5 20 -22 24
-31 15 -40 -9 -9 -14 -9 -20 2 -6 9 -18 11 -35 7 -33 -8 -34 -24 -1 -31 14 -3
36 -7 50 -10 22 -5 25 -2 25 22 0 20 3 24 11 16 9 -9 15 -8 26 2 23 24 41 8
39 -34 -1 -28 3 -42 16 -50 11 -7 18 -7 18 -1 0 5 5 10 10 10 6 0 10 -10 10
-22 0 -17 3 -19 12 -10 9 9 7 16 -7 32 -14 16 -21 18 -27 8 -5 -8 -8 8 -6 40
1 38 -2 56 -13 63 -11 7 -9 9 7 9 23 0 43 -32 25 -38 -24 -8 0 -62 28 -62 16
0 25 22 12 29 -8 5 -9 15 -3 31 7 18 11 20 17 9 7 -11 11 -8 16 11 l6 25 11
-27 c14 -34 29 -43 49 -27 14 12 13 14 -8 19 -17 4 -24 13 -24 30 0 19 -5 24
-27 25 -14 0 -30 3 -34 7 -4 5 0 8 9 8 10 0 17 5 17 11 0 6 -7 9 -15 5 -8 -3
-15 -1 -15 4 0 6 9 10 20 10 11 0 20 -7 20 -15 0 -8 9 -15 20 -15 11 0 20 7
20 15 0 9 9 15 24 15 13 0 37 3 52 6 27 5 31 2 48 -36 10 -23 15 -44 11 -48
-8 -8 -25 18 -25 41 0 13 -9 17 -39 17 -48 0 -68 -20 -49 -50 11 -17 19 -20
51 -15 24 5 37 3 37 -4 0 -6 -8 -11 -17 -12 -11 0 -13 -3 -5 -6 6 -2 10 -9 7
-13 -13 -21 16 -18 39 5 26 26 46 32 46 15 0 -5 -9 -19 -20 -30 -11 -11 -20
-24 -20 -30 0 -18 18 -11 39 16 18 23 25 25 61 19 58 -10 58 -23 0 -17 -41 4
-50 2 -50 -12 0 -11 9 -16 26 -16 23 0 25 -2 14 -15 -9 -11 -22 -14 -49 -9
-32 6 -35 5 -23 -9 7 -8 15 -28 16 -44 2 -15 4 -32 5 -36 0 -4 11 -3 23 4 19
10 19 12 5 21 -10 5 -17 16 -17 23 0 18 5 18 31 4 17 -8 23 -7 35 8 12 17 13
17 14 1 0 -10 -4 -18 -10 -18 -5 0 -10 -7 -10 -16 0 -11 6 -13 19 -9 16 5 18
2 14 -14 -5 -18 -7 -18 -20 -6 -20 21 -39 19 -22 -2 8 -9 13 -24 11 -33 -2
-11 6 -20 20 -23 13 -4 467 -7 1011 -7 l987 0 0 370 c0 318 -2 370 -15 370 -8
0 -19 9 -25 20 -6 11 -19 20 -30 20 -10 0 -20 4 -22 9 -1 5 -19 11 -38 14 -19
3 -50 10 -69 16 -18 6 -36 10 -40 9 -12 -2 -46 16 -74 39 -16 13 -33 20 -39
17 -6 -4 -13 -3 -17 2 -10 14 -75 42 -115 49 -20 4 -36 11 -36 16 0 5 -4 9
-10 9 -5 0 -10 -7 -10 -15 0 -8 -4 -15 -10 -15 -5 0 -10 10 -10 21 0 19 -4 21
-35 16 -23 -4 -34 -2 -32 6 1 6 -4 11 -12 12 -7 0 -22 15 -32 34 -28 52 -33
55 -116 57 -69 3 -90 8 -173 47 -110 52 -299 107 -366 107 -25 0 -26 -2 -19
-32z m-1058 -200 c-3 -8 -6 -5 -6 6 -1 11 2 17 5 13 3 -3 4 -12 1 -19z m-233
-3 c-4 -8 -11 -12 -16 -9 -6 4 -5 10 3 15 19 12 19 11 13 -6z m-146 -30 c-1
-1 -14 -6 -28 -9 -21 -6 -22 -5 -7 4 9 6 17 19 17 28 1 15 2 15 11 -1 6 -10 9
-20 7 -22z m-158 -9 c0 -3 -4 -8 -10 -11 -5 -3 -10 -1 -10 4 0 6 5 11 10 11 6
0 10 -2 10 -4z m580 -10 c0 -3 -4 -8 -10 -11 -5 -3 -10 -1 -10 4 0 6 5 11 10
11 6 0 10 -2 10 -4z m-498 -38 c-5 -21 -6 -21 -12 -2 -8 21 -3 37 10 29 4 -3
6 -15 2 -27z m43 -8 c3 -5 1 -10 -4 -10 -6 0 -11 5 -11 10 0 6 2 10 4 10 3 0
8 -4 11 -10z m88 -27 c-7 -2 -21 -2 -30 0 -10 3 -4 5 12 5 17 0 24 -2 18 -5z
m2492 -84 c11 -17 -1 -21 -15 -4 -8 9 -8 15 -2 15 6 0 14 -5 17 -11z m-1555
-19 c0 -5 -5 -10 -11 -10 -5 0 -7 5 -4 10 3 6 8 10 11 10 2 0 4 -4 4 -10z
m-160 -36 c0 -8 -4 -12 -10 -9 -5 3 -10 10 -10 16 0 5 5 9 10 9 6 0 10 -7 10
-16z m165 -4 c3 -5 -1 -10 -10 -10 -9 0 -13 5 -10 10 3 6 8 10 10 10 2 0 7 -4
10 -10z m-835 -69 c0 -5 -9 -12 -20 -16 -11 -3 -19 -11 -17 -17 1 -6 -4 -13
-10 -15 -21 -8 -15 18 10 38 24 20 37 24 37 10z m57 -23 c0 -18 -2 -27 -4 -20
-3 6 -14 12 -25 12 -20 0 -21 1 -3 20 25 28 32 25 32 -12z m563 12 c0 -5 -5
-10 -11 -10 -5 0 -7 5 -4 10 3 6 8 10 11 10 2 0 4 -4 4 -10z m-742 -15 c1 -1
0 -10 -4 -19 -9 -23 -35 -16 -45 12 -8 20 -6 22 19 16 15 -4 28 -8 30 -9z
m675 -15 c-3 -11 -7 -20 -9 -20 -2 0 -4 9 -4 20 0 11 4 20 9 20 5 0 7 -9 4
-20z m167 0 c0 -5 -4 -10 -10 -10 -5 0 -10 5 -10 10 0 6 5 10 10 10 6 0 10 -4
10 -10z m-350 -20 c0 -5 -4 -10 -10 -10 -5 0 -10 5 -10 10 0 6 5 10 10 10 6 0
10 -4 10 -10z m45 0 c-3 -5 -13 -10 -21 -10 -8 0 -12 5 -9 10 3 6 13 10 21 10
8 0 12 -4 9 -10z m330 -50 c-3 -5 -15 -10 -26 -10 -11 0 -17 5 -14 10 3 6 15
10 26 10 11 0 17 -4 14 -10z m-345 -14 c0 -3 -4 -8 -10 -11 -5 -3 -10 -1 -10
4 0 6 5 11 10 11 6 0 10 -2 10 -4z m457 -18 c-3 -8 -6 -5 -6 6 -1 11 2 17 5
13 3 -3 4 -12 1 -19z m-287 -22 c0 -14 -7 -32 -16 -41 -10 -9 -14 -26 -11 -40
2 -14 0 -25 -4 -25 -5 0 -9 20 -9 45 0 34 4 45 16 45 8 0 13 4 9 10 -3 5 -12
7 -20 3 -9 -3 -15 1 -15 11 0 10 9 16 25 16 20 0 25 -5 25 -24z m-193 -8 c-3
-8 -6 -5 -6 6 -1 11 2 17 5 13 3 -3 4 -12 1 -19z m358 12 c3 -5 16 -10 27 -10
12 0 19 -3 15 -6 -9 -9 -77 5 -77 16 0 13 27 13 35 0z m-241 -17 c4 -10 4 -14
0 -10 -4 4 -12 2 -19 -3 -8 -6 -18 -5 -31 6 -16 14 -17 15 -1 10 9 -3 17 -1
17 4 0 17 28 11 34 -7z m236 -23 c12 -8 11 -10 -7 -10 -13 0 -23 5 -23 10 0
13 11 13 30 0z m-740 -10 c0 -5 -4 -10 -10 -10 -5 0 -10 5 -10 10 0 6 5 10 10
10 6 0 10 -4 10 -10z m76 -8 c1 -7 0 -8 -2 -3 -3 6 -12 7 -21 4 -11 -4 -14 -3
-9 6 9 14 29 10 32 -7z m166 -24 c-9 -9 -12 -7 -12 12 0 19 3 21 12 12 9 -9 9
-15 0 -24z m83 12 c3 -5 1 -10 -4 -10 -6 0 -11 5 -11 10 0 6 2 10 4 10 3 0 8
-4 11 -10z m-161 -45 c-12 -19 -24 -25 -48 -24 l-31 2 29 4 c17 3 30 12 33 24
3 10 12 19 19 19 12 0 11 -5 -2 -25z m354 -7 c0 -13 2 -31 4 -40 5 -26 -11
-21 -23 7 -8 19 -8 29 1 40 16 20 18 19 18 -7z m126 14 c-6 -4 -14 -14 -17
-22 -4 -10 -6 -8 -6 8 -1 15 5 22 17 22 10 0 13 -3 6 -8z m-574 -30 c0 -15 -2
-15 -10 -2 -13 20 -13 33 0 25 6 -3 10 -14 10 -23z m144 7 c-3 -5 -10 -7 -15
-3 -5 3 -7 10 -3 15 3 5 10 7 15 3 5 -3 7 -10 3 -15z m56 -5 c0 -16 -16 -19
-25 -4 -8 13 4 32 16 25 5 -4 9 -13 9 -21z m685 -3 c-8 -13 -35 -15 -35 -2 0
5 8 11 18 13 21 5 26 2 17 -11z m-985 -11 c0 -5 -4 -10 -10 -10 -5 0 -10 5
-10 10 0 6 5 10 10 10 6 0 10 -4 10 -10z m230 -11 c13 -24 5 -38 -12 -21 -15
15 -32 16 -23 2 9 -14 -3 -12 -19 2 -11 11 -11 15 3 25 23 18 39 16 51 -8z
m507 -1 c-3 -8 -6 -5 -6 6 -1 11 2 17 5 13 3 -3 4 -12 1 -19z m-112 -18 c-3
-5 2 -10 12 -10 10 0 25 -5 33 -10 12 -7 12 -12 2 -22 -9 -9 -12 -9 -12 0 0 7
-11 12 -24 12 -23 0 -41 22 -29 34 10 10 25 7 18 -4z m87 -5 c0 -5 -5 -11 -11
-13 -6 -2 -11 4 -11 13 0 9 5 15 11 13 6 -2 11 -8 11 -13z m-227 -4 c6 -11
-26 -31 -49 -31 -19 0 -21 26 -3 33 21 9 46 8 52 -2z m290 -20 c3 -5 1 -12 -5
-16 -5 -3 -10 1 -10 9 0 18 6 21 15 7z m-160 -21 c3 -4 -2 -14 -11 -21 -13
-10 -17 -10 -25 2 -15 24 -10 37 11 32 11 -3 22 -9 25 -13z m165 -20 c0 -5 -5
-10 -11 -10 -5 0 -7 5 -4 10 3 6 8 10 11 10 2 0 4 -4 4 -10z m-55 -10 c-3 -5
-12 -10 -20 -10 -8 0 -17 5 -20 10 -4 6 5 10 20 10 15 0 24 -4 20 -10z m30
-20 c3 -5 1 -10 -4 -10 -6 0 -11 5 -11 10 0 6 2 10 4 10 3 0 8 -4 11 -10z
m-45 -190 c0 -5 -2 -10 -4 -10 -3 0 -8 5 -11 10 -3 6 -1 10 4 10 6 0 11 -4 11
-10z"/>
<path d="M3112 1135 c-11 -13 -9 -14 10 -12 12 2 24 9 26 15 5 17 -20 14 -36
-3z"/>
<path d="M2386 1111 c-4 -7 -5 -15 -2 -18 9 -9 19 4 14 18 -4 11 -6 11 -12 0z"/>
<path d="M1490 1094 c0 -5 6 -18 13 -28 13 -17 14 -18 20 -2 4 10 3 14 -2 11
-6 -3 -14 3 -20 12 -6 10 -11 13 -11 7z"/>
<path d="M2568 1053 c7 -3 16 -2 19 1 4 3 -2 6 -13 5 -11 0 -14 -3 -6 -6z"/>
<path d="M2524 1019 c-3 -6 -2 -15 2 -19 12 -12 38 5 30 19 -9 14 -23 14 -32
0z"/>
<path d="M3035 1010 c-3 -5 -1 -10 4 -10 6 0 11 5 11 10 0 6 -2 10 -4 10 -3 0
-8 -4 -11 -10z"/>
<path d="M1660 970 c0 -5 5 -10 10 -10 6 0 10 5 10 10 0 6 -4 10 -10 10 -5 0
-10 -4 -10 -10z"/>
<path d="M3048 973 c7 -3 16 -2 19 1 4 3 -2 6 -13 5 -11 0 -14 -3 -6 -6z"/>
<path d="M3130 669 c0 -5 5 -7 10 -4 6 3 10 8 10 11 0 2 -4 4 -10 4 -5 0 -10
-5 -10 -11z"/>
<path d="M3130 641 c13 -10 13 -12 0 -20 -8 -6 -11 -13 -8 -16 4 -4 17 2 29
14 13 12 18 21 12 21 -6 0 -20 3 -30 6 -15 5 -16 4 -3 -5z"/>
<path d="M1920 630 c0 -5 5 -10 10 -10 6 0 10 5 10 10 0 6 -4 10 -10 10 -5 0
-10 -4 -10 -10z"/>
<path d="M3190 603 c0 -15 18 -35 23 -27 3 5 -1 15 -9 22 -8 7 -14 9 -14 5z"/>
<path d="M1993 473 c-22 -8 -14 -23 11 -23 13 0 26 7 30 15 5 15 -15 19 -41 8z"/>
<path d="M1925 460 c-3 -5 3 -10 14 -10 12 0 21 5 21 10 0 6 -6 10 -14 10 -8
0 -18 -4 -21 -10z"/>
<path d="M1720 369 c0 -5 5 -7 10 -4 6 3 10 8 10 11 0 2 -4 4 -10 4 -5 0 -10
-5 -10 -11z"/>
<path d="M2000 290 c0 -5 11 -10 24 -10 14 0 28 5 31 10 4 6 -7 10 -24 10 -17
0 -31 -4 -31 -10z"/>
<path d="M2560 220 c0 -5 5 -10 11 -10 5 0 7 5 4 10 -3 6 -8 10 -11 10 -2 0
-4 -4 -4 -10z"/>
<path d="M2065 211 c-3 -5 -1 -12 5 -16 5 -3 10 1 10 9 0 18 -6 21 -15 7z"/>
<path d="M2330 209 c0 -5 5 -7 10 -4 6 3 10 8 10 11 0 2 -4 4 -10 4 -5 0 -10
-5 -10 -11z"/>
<path d="M1771 194 c0 -11 3 -14 6 -6 3 7 2 16 -1 19 -3 4 -6 -2 -5 -13z"/>
<path d="M2474 164 c-4 -14 -2 -30 5 -37 8 -8 11 -7 11 3 0 8 3 25 6 38 4 13
2 22 -5 22 -6 0 -14 -12 -17 -26z"/>
<path d="M2525 180 c3 -5 8 -10 11 -10 2 0 4 5 4 10 0 6 -5 10 -11 10 -5 0 -7
-4 -4 -10z"/>
<path d="M2307 161 c-3 -11 1 -22 8 -25 9 -3 12 2 10 16 -6 29 -12 32 -18 9z"/>
<path d="M2510 144 c0 -17 22 -14 28 4 2 7 -3 12 -12 12 -9 0 -16 -7 -16 -16z"/>
<path d="M2587 153 c-4 -3 -7 -15 -7 -25 0 -20 -16 -24 -23 -5 -3 6 -6 0 -6
-14 -1 -23 2 -26 25 -21 15 3 23 10 20 18 -7 19 22 40 36 26 8 -8 8 -15 -1
-26 -8 -10 -9 -16 -1 -21 5 -3 10 -2 10 4 0 5 2 15 5 23 3 7 1 18 -3 24 -9 15
-46 26 -55 17z"/>
<path d="M2240 95 c0 -42 5 -43 36 -9 27 29 30 39 9 31 -8 -4 -17 -2 -20 3
-13 21 -25 8 -25 -25z"/>
<path d="M2145 100 c3 -5 8 -10 11 -10 2 0 4 5 4 10 0 6 -5 10 -11 10 -5 0 -7
-4 -4 -10z"/>
<path d="M2495 90 c-3 -5 1 -10 9 -10 9 0 16 5 16 10 0 6 -4 10 -9 10 -6 0
-13 -4 -16 -10z"/>
<path d="M2335 81 c-10 -18 13 -21 41 -6 l29 15 -32 0 c-17 0 -34 -4 -38 -9z"/>
<path d="M2180 70 c0 -5 5 -10 10 -10 6 0 10 5 10 10 0 6 -4 10 -10 10 -5 0
-10 -4 -10 -10z"/>
<path d="M2650 64 c0 -9 5 -14 12 -12 18 6 21 28 4 28 -9 0 -16 -7 -16 -16z"/>
<path d="M2720 40 c0 -5 5 -10 11 -10 5 0 7 5 4 10 -3 6 -8 10 -11 10 -2 0 -4
-4 -4 -10z"/>
<path d="M2251 16 c-10 -12 -8 -13 8 -9 12 3 18 9 15 14 -7 12 -10 11 -23 -5z"/>
<path d="M2480 20 c0 -13 27 -13 35 0 3 6 -3 10 -14 10 -12 0 -21 -4 -21 -10z"/>
</g>
</svg>
