 <svg version="1.0" xmlns="http://www.w3.org/2000/svg" width="700.000000pt" height="761.000000pt" viewBox="0 0 700.000000 761.000000" preserveAspectRatio="xMidYMid meet">
<metadata>
Created by potrace 1.12, written by Peter Selinger 2001-2015
</metadata>
<g transform="translate(0.000000,761.000000) scale(0.100000,-0.100000)" fill="#000000" stroke="none">
<path d="M2420 7580 c0 -5 7 -10 16 -10 8 0 12 5 9 10 -3 6 -10 10 -16 10 -5
0 -9 -4 -9 -10z"></path>
<path d="M2464 7562 c4 -7 13 -12 19 -12 7 0 39 -11 72 -24 114 -46 220 -84
310 -110 50 -15 112 -34 139 -42 47 -15 69 -12 50 5 -13 13 -114 48 -234 82
-115 33 -207 64 -258 86 -47 20 -107 29 -98 15z"></path>
<path d="M1580 7503 c1 -14 80 -96 87 -90 7 8 -64 97 -78 97 -5 0 -9 -3 -9 -7z"></path>
<path d="M1400 7442 c0 -18 59 -64 75 -58 10 3 30 -5 51 -20 19 -15 34 -21 34
-15 0 21 -34 48 -93 75 -64 29 -67 30 -67 18z"></path>
<path d="M2460 7430 c-14 -11 -33 -20 -43 -20 -10 0 -27 -5 -38 -10 -10 -6
-42 -12 -69 -14 -51 -4 -80 -19 -80 -41 0 -16 -40 -36 -65 -31 -11 2 -28 -5
-38 -15 -13 -14 -32 -19 -75 -19 -56 0 -57 0 -107 55 -41 45 -57 56 -93 61
-42 7 -43 6 -37 -18 9 -34 -10 -46 -75 -50 -48 -3 -55 -6 -58 -25 -2 -15 -10
-23 -23 -23 -10 0 -19 4 -19 9 0 5 -15 16 -32 24 -32 16 -33 15 -46 -9 -11
-21 -10 -28 8 -51 26 -33 26 -79 0 -93 -11 -6 -20 -20 -20 -31 0 -11 -11 -24
-25 -31 -14 -6 -35 -26 -46 -44 -23 -38 -81 -75 -99 -64 -7 4 -9 13 -6 19 13
21 -24 23 -57 4 -37 -22 -107 -37 -107 -22 0 12 -63 8 -72 -5 -9 -14 -207 34
-259 63 -21 12 -97 34 -129 37 -14 2 -54 10 -90 18 -36 9 -103 24 -150 35 -47
10 -101 25 -120 33 -33 14 -25 15 125 17 228 3 357 23 396 62 29 29 18 33 -32
10 -116 -51 -517 -63 -644 -18 -46 16 -56 40 -24 58 56 29 131 40 324 46 219
6 322 -4 366 -36 l26 -19 -5 24 c-7 36 -37 51 -127 63 -250 32 -570 -1 -611
-64 -22 -34 -14 -66 24 -91 29 -20 31 -23 13 -29 -10 -3 -65 -4 -120 -1 l-101
5 0 -234 0 -235 23 -4 c12 -3 60 -12 107 -21 47 -9 114 -23 150 -30 36 -8 103
-22 150 -30 47 -9 101 -21 120 -26 33 -9 284 -59 295 -59 3 0 2 -12 -1 -27 -6
-21 -2 -31 18 -47 22 -18 27 -32 31 -88 3 -39 1 -68 -4 -68 -5 0 -16 -18 -25
-40 -9 -22 -20 -40 -25 -40 -5 0 -9 -6 -9 -14 0 -8 -7 -16 -15 -20 -8 -3 -15
-16 -15 -29 0 -13 -6 -29 -12 -36 -7 -6 -13 -15 -13 -19 -1 -4 -15 -29 -33
-56 -18 -28 -32 -56 -32 -63 0 -7 -4 -13 -10 -13 -5 0 -10 -6 -10 -14 0 -25
-46 -46 -92 -42 -55 6 -237 31 -398 57 -69 10 -142 22 -162 25 l-38 6 0 -86
c0 -81 1 -86 23 -90 12 -3 85 -15 162 -26 208 -32 314 -49 373 -61 52 -10 54
-12 47 -37 -4 -15 -9 -51 -12 -79 -3 -36 -9 -53 -18 -53 -16 0 -31 -61 -21
-85 3 -9 -2 -27 -11 -41 -13 -20 -15 -44 -11 -135 4 -78 2 -124 -8 -156 -8
-25 -12 -48 -9 -52 2 -4 -1 -68 -7 -142 -6 -73 -10 -147 -10 -163 1 -16 -2
-34 -7 -40 -4 -6 -6 -36 -4 -66 2 -30 3 -97 3 -147 -1 -51 2 -98 6 -105 4 -7
9 -87 10 -178 2 -190 19 -423 34 -450 6 -10 10 -57 10 -104 0 -50 4 -88 11
-92 6 -3 9 -15 6 -25 -3 -10 -1 -37 4 -60 5 -22 10 -78 10 -122 1 -48 6 -90
14 -102 14 -23 26 -92 25 -149 -1 -26 6 -46 20 -61 12 -13 20 -29 18 -36 -2
-13 12 -90 32 -169 5 -19 7 -45 4 -56 -3 -12 1 -27 9 -36 8 -8 18 -32 21 -54
4 -22 11 -46 16 -54 9 -13 11 -13 20 0 11 17 12 11 10 -46 -1 -25 4 -45 14
-53 8 -7 12 -19 10 -26 -3 -7 2 -24 10 -37 9 -14 18 -49 21 -78 3 -30 12 -61
20 -70 8 -9 15 -22 15 -29 0 -7 6 -11 13 -8 6 2 12 15 12 28 0 18 5 23 20 21
21 -4 36 -18 73 -69 27 -39 28 -60 3 -87 -11 -12 -23 -37 -28 -56 -9 -35 -10
-35 -79 -43 -38 -4 -130 -17 -204 -27 -74 -10 -175 -24 -225 -31 -49 -6 -124
-17 -165 -23 l-75 -12 -3 -65 c-5 -105 -9 -103 198 -74 310 44 395 57 414 67
41 22 41 -46 -1 -172 -30 -87 -29 -86 -45 -73 -26 20 -72 21 -127 1 -31 -11
-80 -21 -110 -23 -38 -2 -59 -8 -67 -20 -11 -15 -18 -16 -45 -6 -18 6 -41 11
-52 11 -11 0 -46 18 -79 40 -33 22 -62 40 -64 40 -2 0 -4 -11 -4 -25 0 -15 10
-31 26 -42 14 -10 41 -31 61 -47 l35 -30 81 13 c45 7 109 15 142 18 33 3 65
10 72 15 14 11 116 23 136 15 10 -4 12 -16 6 -54 -13 -91 -30 -163 -47 -200
-19 -44 -20 -49 -30 -123 -7 -54 -8 -55 -47 -66 -22 -6 -53 -16 -68 -22 -16
-7 -32 -12 -36 -12 -5 0 -14 -7 -21 -15 -16 -19 -116 -75 -135 -75 -8 0 -33
-18 -55 -40 -31 -31 -48 -40 -74 -40 -18 0 -39 -7 -46 -15 -7 -8 -25 -21 -41
-30 -41 -21 -77 -42 -129 -74 l-45 -27 -3 -462 -2 -462 2769 0 2770 0 3 28 c2
18 8 26 19 24 10 -1 19 6 22 19 4 15 11 20 21 16 9 -4 16 -2 16 4 0 6 15 9 33
7 28 -3 32 -7 35 -35 3 -32 -10 -44 -23 -23 -12 19 -22 10 -17 -15 l4 -25 229
0 c192 0 229 2 229 14 0 8 10 16 23 18 23 3 26 16 13 56 -7 21 -5 22 18 16 24
-6 26 -4 26 25 0 25 4 31 20 31 24 0 76 25 105 50 11 10 27 17 36 17 9 0 51
16 93 36 41 21 79 37 82 37 4 0 21 10 38 23 17 13 52 29 79 37 26 7 47 17 47
21 0 14 -49 10 -81 -7 -18 -9 -38 -12 -47 -8 -10 4 -20 6 -24 6 -12 -3 -10 16
2 23 15 9 -6 42 -38 59 l-27 14 25 6 c14 3 54 7 90 9 49 2 75 9 105 29 22 14
75 36 117 48 55 16 82 30 93 47 9 13 21 23 28 21 7 -1 24 1 40 5 26 7 27 10
27 73 l0 65 -47 -3 c-47 -3 -48 -4 -51 -38 -8 -117 -7 -115 -75 -136 -34 -10
-69 -19 -77 -19 -9 0 -29 -10 -45 -21 -39 -27 -101 -44 -157 -44 -31 0 -54 -7
-73 -22 -37 -29 -173 -39 -194 -14 -7 9 -20 16 -27 16 -22 0 -35 47 -39 138
-4 92 -10 109 -30 92 -8 -7 -15 -7 -19 -1 -6 10 11 26 29 26 15 0 13 197 -2
202 -7 3 -17 -7 -22 -20 -6 -14 -14 -28 -20 -31 -8 -5 -7 -255 2 -299 3 -18
-38 -20 -53 -2 -7 8 -18 15 -26 15 -7 0 -41 18 -75 40 -34 22 -66 40 -70 40
-9 0 -187 79 -322 143 -48 23 -89 48 -92 57 -3 8 -6 95 -7 192 -1 159 -3 180
-20 194 -17 16 -18 15 -18 -23 0 -22 -6 -46 -13 -52 -16 -12 -39 -66 -56 -126
-6 -22 -22 -53 -36 -68 -23 -25 -29 -27 -74 -21 -29 4 -51 2 -55 -4 -7 -11
-75 -8 -131 7 -24 6 -65 7 -104 2 -76 -9 -116 -3 -239 38 -134 44 -175 48
-202 21 -18 -18 -21 -29 -16 -59 3 -20 9 -53 12 -73 5 -31 2 -41 -21 -64 -24
-24 -31 -26 -82 -21 -125 13 -311 164 -485 395 -56 74 -119 152 -138 171 -20
20 -51 56 -70 80 -21 27 -79 73 -160 126 -70 45 -145 98 -166 117 -100 89 -97
87 -359 159 -138 37 -214 23 -335 -62 -65 -45 -77 -46 -205 -19 -92 19 -132
-14 -151 -125 -11 -67 -49 -129 -112 -184 -33 -28 -63 -62 -66 -76 -7 -28 28
-138 55 -174 18 -22 25 -51 14 -51 -7 0 -109 54 -115 61 -3 3 -48 30 -100 59
-52 30 -120 70 -150 90 -30 20 -95 63 -145 95 -90 59 -148 102 -215 160 -20
16 -55 46 -78 65 -51 41 -82 88 -82 121 0 40 -63 160 -120 229 -49 58 -54 69
-58 119 -3 53 -1 59 36 103 40 48 70 94 139 213 23 39 52 82 66 97 13 14 34
46 45 70 12 23 40 61 62 82 45 44 99 134 125 211 l18 50 -37 75 c-21 41 -41
77 -46 80 -4 3 -13 24 -19 46 -6 23 -17 44 -25 47 -8 3 -19 23 -26 44 -7 21
-21 56 -31 79 -10 22 -20 53 -21 70 -1 16 -5 34 -8 39 -4 6 -10 35 -13 65 -4
30 -11 87 -16 125 -7 45 -7 93 0 135 5 36 10 75 12 87 2 12 6 26 10 29 4 4 7
15 7 24 0 10 9 29 20 42 10 14 17 27 15 30 -3 2 18 30 45 60 36 40 71 66 123
91 66 33 78 35 141 31 37 -3 80 -11 95 -19 41 -22 147 -131 172 -176 12 -24
11 -30 -10 -58 l-18 -23 -63 51 c-35 28 -73 51 -85 51 -12 0 -26 5 -32 11 -7
7 -45 11 -94 11 l-82 -2 -39 -39 c-21 -22 -38 -45 -38 -51 0 -6 -4 -18 -9 -28
-9 -18 -26 -100 -41 -193 -8 -58 0 -133 18 -151 6 -6 18 -8 26 -5 12 5 16 21
16 70 0 59 3 68 48 132 58 86 79 98 139 80 24 -7 58 -24 76 -38 18 -13 55 -36
83 -50 43 -22 64 -42 64 -62 0 -7 -72 -45 -86 -45 -8 0 -14 -4 -14 -9 0 -5
-14 -15 -30 -23 -17 -8 -47 -39 -66 -69 -34 -51 -35 -57 -31 -123 4 -55 9 -72
25 -85 24 -19 44 -65 36 -85 -3 -8 8 -23 26 -36 25 -18 46 -22 108 -24 l78 -1
58 -58 c34 -33 71 -61 87 -64 32 -6 45 -2 41 11 -2 5 7 6 19 3 31 -8 49 2 49
28 0 26 -55 134 -76 152 -9 6 -16 22 -16 35 -1 12 -6 28 -11 35 -5 7 -7 16 -4
20 8 13 -12 123 -29 154 -8 16 -20 29 -28 29 -39 0 -60 76 -31 114 14 18 16
18 57 1 30 -12 75 -18 146 -20 83 -2 109 -6 130 -21 15 -11 40 -26 55 -34 16
-8 35 -26 42 -41 9 -16 39 -39 80 -59 37 -18 76 -46 87 -61 25 -34 40 -28 37
15 -1 17 1 38 4 46 3 8 8 32 12 53 8 51 50 96 96 103 33 6 38 3 59 -27 23 -34
59 -68 71 -69 12 0 27 116 29 220 l1 105 49 43 c49 43 87 93 125 165 15 28 29
40 55 47 45 12 112 8 118 -8 3 -9 9 -9 24 -1 15 8 31 8 57 1 20 -6 79 -14 132
-18 l96 -6 24 30 c23 30 27 31 104 31 115 1 111 1 158 2 23 1 89 -2 145 -5 57
-4 131 -7 165 -7 36 0 72 -7 85 -15 21 -14 21 -16 7 -44 -15 -29 -97 -80 -129
-80 -37 0 -126 -121 -126 -170 0 -8 17 -34 39 -58 21 -23 34 -42 28 -42 -8 0
-7 -4 1 -12 8 -8 15 -8 27 2 22 18 93 15 141 -5 21 -10 53 -20 69 -24 22 -5
37 -19 54 -50 24 -44 72 -81 105 -81 32 0 54 -38 65 -113 18 -115 30 -146 73
-193 29 -31 39 -50 35 -64 -7 -29 24 -55 70 -58 69 -4 154 -25 176 -42 20 -17
21 -18 3 -63 -10 -26 -25 -56 -34 -67 -14 -17 -16 -36 -12 -109 5 -86 6 -90
45 -134 22 -25 56 -65 76 -89 20 -23 62 -61 94 -82 47 -33 68 -41 116 -44 43
-3 65 0 84 12 24 16 24 16 35 -24 6 -22 9 -52 8 -66 -2 -15 2 -29 8 -31 16 -5
25 60 13 99 -17 60 -11 113 17 156 l26 40 89 -3 c49 -2 91 1 94 5 3 4 25 11
49 14 59 9 126 56 155 107 38 68 27 144 -43 298 -31 68 -56 130 -56 137 0 8
15 34 34 59 19 24 38 55 41 67 4 13 13 37 20 53 7 17 25 71 40 120 15 50 33
111 41 137 8 26 14 55 14 66 0 10 9 45 21 78 11 32 29 91 41 129 11 39 24 79
30 89 6 11 10 48 9 82 -1 48 3 65 15 72 57 32 -67 87 -187 84 -82 -3 -143 20
-159 58 -6 14 -21 30 -33 35 -20 9 -22 18 -25 100 -3 119 -23 238 -73 430 -20
80 -7 138 30 128 11 -3 24 3 32 15 15 21 53 37 68 27 6 -3 -1 -27 -15 -56 -25
-49 -28 -79 -9 -86 10 -3 42 56 50 92 9 43 25 88 36 101 6 7 13 44 15 81 2 37
4 75 4 83 1 8 0 28 -3 45 -5 35 11 65 35 65 21 0 78 -114 78 -155 0 -41 17
-28 23 18 10 81 8 114 -8 127 -8 7 -15 19 -15 27 0 11 -32 65 -50 83 -10 10
-29 55 -32 75 -2 16 2 19 22 17 14 -2 29 -8 35 -13 5 -5 25 -9 45 -9 32 0 95
-13 275 -56 33 -8 69 -16 80 -18 57 -9 144 -40 149 -52 4 -10 -1 -13 -17 -9
-75 17 -475 95 -489 95 -23 0 -23 -16 -1 -24 9 -4 183 -40 387 -81 429 -87
484 -99 497 -112 10 -10 13 -157 49 -1918 12 -588 24 -1075 26 -1082 2 -8 12
-9 31 -4 l28 7 3 1576 2 1575 -31 7 c-17 3 -57 6 -89 6 -49 0 -278 41 -390 70
-60 16 -160 38 -305 70 -77 17 -170 40 -207 51 -36 11 -78 21 -93 23 -31 3
-83 40 -73 51 4 4 14 2 23 -5 30 -25 14 7 -20 40 -19 19 -35 29 -35 24 0 -6 5
-15 12 -22 16 -16 1 -30 -36 -34 -34 -4 -44 13 -20 37 16 15 14 19 -25 59 -22
23 -41 46 -41 51 0 6 -21 29 -45 53 -56 55 -57 70 -5 74 22 2 40 8 40 13 0 6
-18 11 -40 13 -23 2 -40 -1 -40 -7 0 -25 -31 -8 -44 23 -14 34 -139 166 -219
233 -21 18 -35 33 -30 33 4 0 0 5 -9 11 -10 5 -18 17 -18 24 0 15 -3 16 -55
20 -48 4 -109 27 -120 44 -3 6 -21 11 -39 11 -28 0 -42 11 -108 88 -73 85 -82
91 -195 146 -65 32 -134 66 -153 77 -19 11 -82 42 -140 70 -58 28 -112 56
-120 64 -8 7 -29 16 -47 20 -34 7 -58 28 -49 44 3 5 -3 7 -14 4 -14 -4 -20 0
-20 11 0 9 -6 16 -13 16 -8 0 -24 11 -37 25 -14 15 -35 25 -52 25 -19 0 -37
11 -59 35 -18 19 -38 35 -46 35 -7 0 -22 9 -32 19 -11 11 -39 25 -63 31 -24 7
-53 21 -65 32 -12 11 -26 17 -31 14 -6 -3 -16 0 -24 7 -14 14 -121 33 -243 43
-44 4 -101 15 -126 25 -26 10 -62 17 -80 17 -19 -1 -68 4 -109 11 -41 7 -82
13 -90 13 -8 1 -19 4 -25 8 -5 4 -51 4 -102 0 -129 -11 -274 -1 -281 20 -2 5
-8 8 -13 5 -4 -3 -26 3 -47 14 -43 22 -151 61 -167 61 -5 0 -21 -9 -35 -20z
m-1552 -913 c3 -14 -1 -18 -20 -15 -12 2 -24 11 -26 21 -3 14 1 18 20 15 12
-2 24 -11 26 -21z m3067 -1407 c3 -5 19 -10 35 -10 16 0 32 -4 35 -10 3 -5 17
-10 31 -10 13 0 24 -3 24 -7 0 -12 51 -33 62 -27 5 3 39 1 76 -5 105 -18 132
-19 138 -9 4 6 23 8 43 4 20 -3 61 1 91 9 l55 14 67 -34 c38 -19 78 -43 90
-55 12 -11 29 -20 38 -20 8 0 26 -8 40 -17 13 -9 31 -18 40 -19 50 -8 105 -27
115 -41 11 -14 18 -15 56 -5 57 16 169 12 169 -5 0 -7 7 -13 15 -13 8 0 15 -5
15 -11 0 -15 42 -48 61 -49 9 0 20 -7 23 -16 5 -14 16 -16 63 -10 31 4 91 1
135 -6 70 -10 82 -10 108 5 15 9 32 17 37 17 13 0 31 -106 43 -248 10 -117 20
-152 46 -152 9 0 14 -6 11 -12 -3 -12 -14 -14 -75 -17 -13 -1 -27 -11 -33 -25
-6 -13 -22 -29 -35 -35 -13 -6 -36 -17 -50 -23 -24 -12 -29 -10 -60 25 -27 29
-34 45 -34 77 0 25 -8 51 -21 69 -22 29 -42 31 -189 16 -30 -4 -78 -8 -106
-10 -34 -2 -73 -15 -115 -38 -35 -19 -70 -32 -78 -29 -8 2 -18 -2 -22 -11 -8
-13 -38 -14 -211 -11 -112 2 -225 6 -253 9 -27 3 -88 8 -134 10 -46 3 -87 8
-91 10 -4 3 -193 7 -420 10 l-413 6 -48 35 c-68 50 -70 64 -14 130 26 30 59
63 74 72 14 9 44 31 66 48 22 18 52 35 68 39 15 4 27 11 27 15 0 4 13 13 29
18 15 6 44 25 63 44 20 18 57 53 84 78 27 25 47 52 46 60 -1 8 7 33 18 55 11
21 20 44 20 50 0 16 55 55 77 55 10 0 25 5 33 10 19 12 27 12 35 0z m1827
-808 c-19 -6 -44 6 -37 18 4 7 14 6 28 -2 14 -7 17 -13 9 -16z m145 -164 c14
-15 15 -32 8 -115 -10 -130 -12 -145 -18 -163 -19 -59 -29 -99 -26 -116 1 -10
-3 -39 -10 -64 -7 -25 -19 -65 -26 -90 -33 -117 -67 -219 -79 -236 -18 -24
-39 -8 -54 45 -12 39 -37 69 -49 58 -3 -4 -1 -12 4 -19 6 -7 16 -30 22 -50 7
-21 25 -47 40 -58 22 -15 30 -31 35 -66 3 -26 14 -61 25 -78 10 -17 33 -68 51
-113 67 -170 22 -272 -134 -308 -46 -10 -50 -10 -75 16 -33 32 -81 41 -256 44
-71 1 -141 7 -155 13 -14 6 -47 31 -73 55 -53 50 -53 47 -22 157 18 64 19 92
4 107 -15 15 15 71 46 85 14 6 25 14 25 18 0 4 18 26 40 50 40 44 110 171 110
202 0 9 3 18 8 20 4 2 25 57 47 122 21 65 47 128 56 140 18 21 18 21 34 1 27
-33 55 -98 55 -128 0 -49 42 -133 61 -121 5 3 -1 20 -13 37 -20 28 -23 44 -22
127 1 173 25 338 60 417 l14 31 125 -1 c108 0 127 -3 142 -19z m-795 -536 c32
-21 72 -92 82 -145 6 -30 2 -45 -14 -72 -12 -19 -19 -39 -15 -45 3 -5 -1 -10
-10 -10 -8 0 -23 -4 -33 -9 -111 -60 -190 -69 -266 -32 -36 18 -52 33 -63 60
-33 77 -25 151 15 151 30 0 136 57 165 89 23 25 36 31 70 31 24 0 54 -8 69
-18z m-4385 -1588 c-4 -5 -415 -53 -472 -56 -51 -3 -60 0 -63 16 -3 16 0 18
25 10 44 -13 111 -9 200 12 55 13 120 19 197 20 64 0 115 -1 113 -2z m4747
-1397 c6 -9 7 -19 3 -23 -9 -9 -37 15 -37 33 0 18 20 12 34 -10z m686 -8 c0
-5 -7 -9 -15 -9 -15 0 -20 12 -9 23 8 8 24 -1 24 -14z m-425 -131 c26 -52 23
-77 -9 -65 -25 10 -54 65 -48 92 7 39 29 29 57 -27z m576 -168 c10 0 19 -6 19
-13 0 -11 -24 -27 -82 -55 -13 -6 -9 48 5 63 6 8 18 12 25 10 8 -3 22 -5 33
-5z m-1495 -66 c-3 -8 4 -33 16 -55 22 -44 19 -54 -24 -64 -24 -6 -29 -3 -38
20 -15 40 -12 108 6 133 l16 23 15 -21 c8 -11 12 -28 9 -36z m34 -14 c0 -5 -2
-10 -4 -10 -3 0 -8 5 -11 10 -3 6 -1 10 4 10 6 0 11 -4 11 -10z"></path>
<path d="M5747 4053 c-11 -10 -8 -53 3 -53 6 0 10 14 10 30 0 31 -2 35 -13 23z"></path>
<path d="M5759 3953 c-22 -62 -28 -80 -38 -123 -6 -25 -12 -65 -14 -90 -2 -35
2 -45 15 -48 15 -3 17 2 12 40 -7 51 9 100 29 92 10 -4 16 6 20 33 16 97 0
161 -24 96z"></path>
<path d="M5690 3647 c0 -34 7 -50 19 -42 10 6 0 75 -10 75 -5 0 -9 -15 -9 -33z"></path>
<path d="M5750 3644 c0 -21 4 -33 10 -29 6 3 10 19 10 36 0 16 -4 29 -10 29
-5 0 -10 -16 -10 -36z"></path>
<path d="M4470 6910 c0 -5 5 -10 10 -10 6 0 10 5 10 10 0 6 -4 10 -10 10 -5 0
-10 -4 -10 -10z"></path>
<path d="M4510 6900 c0 -5 5 -10 10 -10 6 0 10 5 10 10 0 6 -4 10 -10 10 -5 0
-10 -4 -10 -10z"></path>
<path d="M5800 6492 c0 -5 11 -13 24 -16 13 -3 31 -9 40 -12 9 -3 16 -2 16 4
0 5 -11 13 -24 16 -13 3 -31 9 -40 12 -9 3 -16 2 -16 -4z"></path>
<path d="M5900 6463 c0 -5 24 -17 53 -26 61 -19 67 -20 67 -9 0 4 -19 13 -42
19 -24 7 -51 15 -60 18 -10 4 -18 3 -18 -2z"></path>
<path d="M6040 6420 c0 -5 5 -10 10 -10 6 0 10 5 10 10 0 6 -4 10 -10 10 -5 0
-10 -4 -10 -10z"></path>
<path d="M6096 6401 c15 -14 54 -23 54 -13 0 5 -10 12 -22 16 -33 8 -44 8 -32
-3z"></path>
<path d="M6186 6371 c5 -5 72 -28 149 -51 77 -23 148 -44 158 -47 9 -3 17 -1
17 4 0 6 -71 31 -159 56 -167 49 -181 53 -165 38z"></path>
<path d="M6530 6272 c0 -8 50 -26 133 -49 9 -2 17 0 17 5 0 5 -26 16 -57 25
-32 9 -66 19 -75 22 -10 4 -18 3 -18 -3z"></path>
<path d="M6705 6210 c3 -5 10 -10 16 -10 5 0 9 5 9 10 0 6 -7 10 -16 10 -8 0
-12 -4 -9 -10z"></path>
<path d="M6750 6200 c0 -5 7 -10 16 -10 8 0 12 5 9 10 -3 6 -10 10 -16 10 -5
0 -9 -4 -9 -10z"></path>
<path d="M5990 5960 c0 -5 18 -10 40 -10 22 0 40 5 40 10 0 6 -18 10 -40 10
-22 0 -40 -4 -40 -10z"></path>
<path d="M5720 5950 c0 -5 9 -10 20 -10 11 0 20 5 20 10 0 6 -9 10 -20 10 -11
0 -20 -4 -20 -10z"></path>
<path d="M6123 5863 c-42 -4 -62 -23 -24 -23 42 0 111 13 111 21 0 9 -6 9 -87
2z"></path>
<path d="M6390 5860 c0 -5 9 -10 20 -10 11 0 20 5 20 10 0 6 -9 10 -20 10 -11
0 -20 -4 -20 -10z"></path>
<path d="M6650 5770 c0 -6 28 -10 65 -10 37 0 65 4 65 10 0 6 -28 10 -65 10
-37 0 -65 -4 -65 -10z"></path>
<path d="M6970 5700 c0 -5 7 -10 15 -10 8 0 15 5 15 10 0 6 -7 10 -15 10 -8 0
-15 -4 -15 -10z"></path>
<path d="M6950 5610 c0 -5 5 -10 10 -10 6 0 10 5 10 10 0 6 -4 10 -10 10 -5 0
-10 -4 -10 -10z"></path>
<path d="M5890 5305 c0 -14 4 -25 8 -25 4 0 9 11 10 25 1 14 -3 25 -8 25 -6 0
-10 -11 -10 -25z"></path>
<path d="M5896 5255 c4 -8 8 -15 10 -15 2 0 4 7 4 15 0 8 -4 15 -10 15 -5 0
-7 -7 -4 -15z"></path>
<path d="M5920 5155 c0 -8 5 -15 10 -15 6 0 10 7 10 15 0 8 -4 15 -10 15 -5 0
-10 -7 -10 -15z"></path>
<path d="M6446 4568 c-4 -46 -11 -162 -16 -258 -5 -96 -14 -238 -20 -315 l-11
-140 47 -90 c61 -117 112 -197 122 -191 5 3 9 38 10 79 2 68 0 76 -21 90 -31
20 -50 92 -41 157 8 61 27 91 45 73 21 -21 26 -16 38 48 14 69 5 233 -13 252
-21 23 -33 101 -17 111 19 12 12 40 -31 126 -24 46 -49 96 -57 112 -8 15 -18
28 -22 28 -3 0 -10 -37 -13 -82z m71 -74 c20 -44 24 -66 20 -99 -4 -23 -2 -57
3 -74 12 -42 1 -44 -42 -8 l-38 32 7 103 c3 56 10 102 15 102 5 0 21 -25 35
-56z m20 -284 c43 -84 51 -114 34 -124 -5 -4 -5 -18 2 -36 8 -22 8 -33 0 -41
-15 -15 -33 -3 -33 21 0 19 -18 56 -62 129 -16 25 -18 35 -8 41 10 6 10 15 0
44 -12 37 -6 60 13 53 6 -2 30 -41 54 -87z m-51 -105 c14 -35 19 -141 8 -182
-4 -13 -12 -23 -20 -23 -24 0 -37 44 -38 125 -1 117 20 151 50 80z m-5 -245
c4 -8 11 -32 14 -52 3 -21 17 -51 30 -67 26 -30 33 -65 15 -76 -9 -5 -88 141
-105 193 -6 20 -4 23 16 20 12 -2 26 -10 30 -18z"></path>
<path d="M6186 4438 c-8 -13 -18 -36 -22 -53 -4 -16 -13 -39 -20 -50 -16 -23
-18 -35 -5 -35 6 0 22 27 37 61 24 53 30 60 51 54 28 -7 30 6 5 28 -24 22 -29
21 -46 -5z"></path>
<path d="M6246 4371 c-4 -5 -2 -12 3 -15 5 -4 12 -2 15 3 4 5 2 12 -3 15 -5 4
-12 2 -15 -3z"></path>
<path d="M6246 4261 c-4 -7 -5 -15 -2 -18 9 -9 19 4 14 18 -4 11 -6 11 -12 0z"></path>
<path d="M6300 4215 c0 -8 5 -15 10 -15 6 0 10 7 10 15 0 8 -4 15 -10 15 -5 0
-10 -7 -10 -15z"></path>
<path d="M6227 4103 c-9 -15 13 -118 28 -129 8 -6 15 -26 15 -45 1 -19 7 -47
16 -64 14 -29 14 -28 10 35 -3 42 -10 68 -20 75 -9 7 -18 35 -21 66 -6 53 -18
79 -28 62z"></path>
<path d="M6152 4018 c-13 -35 -48 -118 -79 -184 -52 -114 -55 -125 -48 -175
13 -105 37 -229 45 -229 4 0 13 7 20 16 8 9 25 14 44 12 22 -2 31 1 31 12 0 8
-6 14 -13 12 -22 -4 -25 26 -4 55 36 51 38 131 2 88 -9 -11 -17 -11 -35 -3
-20 9 -23 15 -17 47 3 20 18 48 32 63 l27 27 33 -34 33 -34 -16 -61 c-18 -64
-23 -150 -8 -150 20 0 32 28 21 47 -8 13 -9 26 -1 46 15 39 35 24 26 -20 -4
-21 -2 -40 6 -49 20 -24 3 -46 -33 -42 -29 3 -33 0 -36 -24 -3 -26 -6 -27 -55
-25 l-52 2 2 -44 c1 -24 5 -51 8 -60 6 -14 8 -14 20 3 8 10 19 15 25 11 14 -9
4 -53 -17 -77 -13 -14 -11 -32 15 -165 17 -81 34 -174 37 -206 6 -49 14 -65
41 -93 19 -18 39 -46 45 -61 7 -18 13 -23 16 -15 3 8 0 19 -6 25 -6 6 -11 24
-11 39 0 17 -5 28 -14 28 -25 0 -35 25 -51 126 -9 54 -18 107 -21 116 -4 13 4
21 30 32 44 18 62 48 71 116 4 30 12 60 17 67 14 17 1 49 -28 68 -32 21 -44
12 -16 -12 26 -22 34 -68 12 -68 -8 0 -16 10 -18 23 -2 12 -8 22 -14 22 -13 0
-1 -50 16 -64 20 -16 9 -75 -19 -111 l-24 -29 -31 29 c-24 23 -30 37 -30 71 0
50 14 63 40 39 27 -24 37 1 11 29 -12 12 -21 32 -21 44 0 13 -7 34 -16 47 -19
30 -13 41 27 50 21 5 36 2 47 -8 9 -8 28 -17 42 -19 22 -3 27 -12 44 -85 l19
-81 -31 -84 c-37 -100 -47 -138 -36 -138 5 0 14 15 20 33 7 17 22 57 34 87 33
79 35 128 11 223 -18 71 -32 140 -71 342 -4 22 -20 91 -34 154 -15 67 -26 144
-26 188 0 40 -3 73 -8 73 -4 0 -18 -28 -30 -62z m25 -159 c15 -63 11 -79 -17
-79 -35 0 -80 -53 -80 -94 0 -20 -4 -36 -10 -36 -5 0 -10 19 -10 43 0 47 77
230 95 224 5 -2 15 -28 22 -58z m-47 -305 c0 -17 -31 -75 -38 -70 -6 3 -7 103
-3 126 2 9 41 -44 41 -56z m138 -137 c4 -20 -25 -34 -40 -19 -15 15 -1 44 19
40 10 -2 19 -11 21 -21z"></path>
<path d="M6040 3880 c0 -5 5 -10 10 -10 6 0 10 5 10 10 0 6 -4 10 -10 10 -5 0
-10 -4 -10 -10z"></path>
<path d="M6276 3795 c-5 -15 9 -98 20 -116 5 -9 54 10 54 20 0 4 -10 11 -22
16 -18 8 -23 18 -23 49 0 40 -18 59 -29 31z"></path>
<path d="M90 3260 c0 -5 5 -10 10 -10 6 0 10 5 10 10 0 6 -4 10 -10 10 -5 0
-10 -4 -10 -10z"></path>
<path d="M6466 3203 c-19 -55 -19 -53 -7 -53 5 0 11 9 14 21 9 33 29 12 22
-22 -5 -23 -3 -29 10 -29 15 0 16 -8 10 -62 -4 -35 -11 -73 -16 -86 -11 -30
-12 -62 0 -62 9 0 24 66 46 210 18 118 19 113 -4 105 -10 -3 -24 1 -31 10 -20
24 -27 18 -44 -32z m64 -13 c0 -5 -4 -10 -9 -10 -6 0 -13 5 -16 10 -3 6 1 10
9 10 9 0 16 -4 16 -10z"></path>
<path d="M6164 3169 c-8 -14 26 -23 39 -10 6 6 9 11 7 12 -3 0 -13 2 -22 4
-10 2 -20 -1 -24 -6z"></path>
<path d="M6347 3103 c-17 -56 -14 -84 4 -50 6 9 17 17 24 17 17 0 20 -37 4
-42 -12 -4 5 -58 20 -58 19 0 20 61 0 124 -12 37 -24 66 -28 66 -3 0 -14 -26
-24 -57z"></path>
<path d="M100 3110 c0 -5 5 -10 10 -10 6 0 10 5 10 10 0 6 -4 10 -10 10 -5 0
-10 -4 -10 -10z"></path>
<path d="M6457 3114 c-10 -11 -9 -94 2 -94 5 0 11 17 14 38 4 38 -4 68 -16 56z"></path>
<path d="M1852 3089 c2 -7 10 -15 17 -17 8 -3 12 1 9 9 -2 7 -10 15 -17 17 -8
3 -12 -1 -9 -9z"></path>
<path d="M110 2975 c0 -14 5 -25 10 -25 6 0 10 11 10 25 0 14 -4 25 -10 25 -5
0 -10 -11 -10 -25z"></path>
<path d="M1825 2940 c3 -5 8 -10 11 -10 2 0 4 5 4 10 0 6 -5 10 -11 10 -5 0
-7 -4 -4 -10z"></path>
<path d="M6282 2919 c-7 -12 -11 -24 -7 -27 7 -8 25 17 25 36 0 17 -3 15 -18
-9z"></path>
<path d="M120 2845 c0 -8 5 -15 10 -15 6 0 10 7 10 15 0 8 -4 15 -10 15 -5 0
-10 -7 -10 -15z"></path>
<path d="M1953 2850 c-26 -11 -36 -40 -28 -83 10 -53 66 -190 91 -224 32 -42
120 -82 197 -90 57 -5 65 -3 94 21 37 31 78 128 88 209 5 38 12 57 21 57 8 0
14 9 14 20 0 11 -4 20 -10 20 -5 0 -10 -4 -10 -8 0 -4 -13 -16 -30 -25 -28
-17 -65 -18 -100 -4 -8 3 -31 10 -50 16 -19 5 -82 30 -139 55 -113 50 -107 49
-138 36z"></path>
<path d="M130 2670 c0 -22 5 -40 10 -40 6 0 10 18 10 40 0 22 -4 40 -10 40 -5
0 -10 -18 -10 -40z"></path>
<path d="M5680 2650 c0 -5 5 -10 10 -10 6 0 10 5 10 10 0 6 -4 10 -10 10 -5 0
-10 -4 -10 -10z"></path>
<path d="M4709 2595 c-14 -8 -32 -28 -39 -44 -7 -17 -19 -36 -27 -43 -20 -16
-63 -84 -63 -99 0 -6 -7 -17 -15 -25 -17 -18 -20 -108 -5 -149 6 -15 23 -32
40 -38 17 -6 30 -15 30 -19 0 -4 6 -8 13 -8 7 0 29 -9 50 -20 20 -11 47 -20
60 -20 13 0 27 -3 31 -7 4 -4 18 -9 33 -11 25 -3 25 -3 19 52 -5 34 -3 56 3
61 6 3 11 14 11 24 0 12 13 22 41 30 42 13 56 8 86 -27 11 -13 17 -11 47 11
l34 26 36 -24 c45 -30 57 -31 74 -5 11 18 19 20 62 14 33 -4 55 -3 64 6 22 17
46 -1 62 -46 14 -39 10 -73 -9 -86 -6 -3 7 -26 32 -54 23 -27 45 -61 48 -76 3
-16 10 -31 14 -34 5 -3 6 -16 3 -30 -4 -17 -1 -26 10 -30 25 -10 19 -34 -8
-34 -16 0 -27 -7 -31 -19 -3 -11 -30 -56 -60 -100 -46 -70 -77 -152 -63 -166
2 -3 19 30 36 73 18 42 41 88 52 100 18 22 21 22 36 8 21 -21 28 -20 75 11 48
32 100 34 138 5 30 -22 40 -73 35 -187 -5 -136 -18 -158 -77 -134 -41 17 -135
18 -142 2 -2 -8 -22 -13 -47 -13 -47 0 -79 -14 -63 -27 6 -4 85 -7 177 -5
l167 3 3 56 c3 55 4 57 38 68 34 12 35 13 38 73 2 49 7 64 22 72 26 14 25 32
0 55 -36 32 -22 59 35 69 28 5 66 9 85 10 19 0 41 5 48 9 6 5 29 3 50 -4 20
-6 42 -13 48 -15 6 -1 14 -21 18 -43 9 -56 27 -53 20 3 -6 43 -6 44 30 61 20
10 41 25 46 35 5 10 30 23 55 29 41 10 66 33 52 47 -7 7 -106 -23 -123 -37
-10 -8 -18 -3 -34 23 -11 18 -23 45 -27 60 -9 46 -24 51 -95 36 -60 -14 -63
-16 -66 -46 -2 -18 4 -46 12 -64 21 -42 22 -65 1 -48 -12 10 -18 10 -30 0 -9
-7 -34 -17 -58 -22 -84 -18 -81 -20 -88 52 -4 36 -7 156 -8 266 l-1 201 -159
5 c-130 4 -164 8 -186 22 -31 20 -118 24 -177 7 -21 -6 -55 -16 -75 -21 -49
-14 -265 -13 -301 2 -59 23 -78 34 -94 53 -20 23 -23 61 -8 101 15 39 -5 58
-41 39z"></path>
<path d="M140 2545 c0 -30 5 -55 10 -55 6 0 10 25 10 55 0 30 -4 55 -10 55 -5
0 -10 -25 -10 -55z"></path>
<path d="M5690 2495 c0 -25 5 -45 10 -45 6 0 10 20 10 45 0 25 -4 45 -10 45
-5 0 -10 -20 -10 -45z"></path>
<path d="M150 2420 c0 -27 5 -50 10 -50 6 0 10 23 10 50 0 28 -4 50 -10 50 -5
0 -10 -22 -10 -50z"></path>
<path d="M160 2300 c0 -27 5 -50 10 -50 6 0 10 23 10 50 0 28 -4 50 -10 50 -5
0 -10 -22 -10 -50z"></path>
<path d="M6900 2292 c0 -10 83 -92 93 -92 16 0 5 23 -23 47 -16 13 -30 31 -30
39 0 8 -9 14 -20 14 -11 0 -20 -4 -20 -8z"></path>
<path d="M170 2180 c0 -27 5 -50 10 -50 6 0 10 23 10 50 0 28 -4 50 -10 50 -5
0 -10 -22 -10 -50z"></path>
<path d="M6882 2206 c-37 -12 -37 -31 1 -31 14 0 32 -6 39 -13 16 -16 1 -27
-57 -42 -65 -17 -199 -52 -212 -56 -24 -7 -13 -24 14 -24 29 0 237 47 263 60
19 9 26 86 9 106 -13 16 -11 15 -57 0z"></path>
<path d="M6308 2168 c-63 -17 -43 -28 36 -21 73 6 75 5 112 -26 21 -17 42 -31
47 -31 5 0 22 -9 38 -21 16 -11 35 -19 42 -16 6 2 -8 17 -33 32 -25 16 -62 44
-83 62 -40 36 -83 41 -159 21z"></path>
<path d="M4950 2146 c0 -8 -7 -16 -15 -20 -38 -14 -2 -60 55 -69 19 -3 67 -12
106 -20 100 -19 117 -8 69 46 -24 27 -45 35 -45 17 0 -6 -12 -15 -26 -21 -32
-12 -67 8 -92 52 -17 30 -52 40 -52 15z"></path>
<path d="M6210 2137 c0 -34 164 -159 238 -182 44 -13 21 11 -43 44 -70 36
-166 115 -162 134 1 6 -6 13 -15 15 -11 2 -18 -2 -18 -11z"></path>
<path d="M5260 2040 c0 -5 4 -10 9 -10 6 0 13 5 16 10 3 6 -1 10 -9 10 -9 0
-16 -4 -16 -10z"></path>
<path d="M435 1891 c-6 -11 53 -56 62 -47 3 3 -2 17 -11 31 -17 25 -40 33 -51
16z"></path>
<path d="M330 1882 c0 -4 27 -34 61 -67 53 -53 61 -58 70 -42 6 9 17 17 25 17
8 0 12 5 9 10 -3 6 -14 10 -23 10 -9 0 -41 18 -70 40 -51 39 -72 48 -72 32z"></path>
<path d="M241 1871 c-8 -5 -12 -15 -9 -23 7 -16 148 -91 157 -82 8 8 -106 114
-122 114 -7 0 -18 -4 -26 -9z"></path>
<path d="M530 1873 c0 -17 31 -53 46 -53 23 0 16 17 -16 40 -16 12 -30 18 -30
13z"></path>
<path d="M700 1850 c0 -5 5 -10 10 -10 6 0 10 5 10 10 0 6 -4 10 -10 10 -5 0
-10 -4 -10 -10z"></path>
<path d="M610 1823 c0 -5 11 -13 25 -20 29 -13 33 -6 8 13 -20 15 -33 18 -33
7z"></path>
<path d="M210 1640 c0 -11 5 -20 10 -20 6 0 10 9 10 20 0 11 -4 20 -10 20 -5
0 -10 -9 -10 -20z"></path>
<path d="M5431 1613 c-20 -18 -26 -36 -23 -80 3 -40 21 -25 24 20 l3 42 85 0
c82 0 85 -1 83 -22 -2 -13 2 -23 8 -23 21 0 4 54 -21 67 -38 19 -134 17 -159
-4z"></path>
<path d="M490 1609 c0 -5 5 -7 10 -4 6 3 10 8 10 11 0 2 -4 4 -10 4 -5 0 -10
-5 -10 -11z"></path>
<path d="M6740 1540 c-208 -69 -545 -177 -607 -195 -13 -3 -23 -11 -23 -16 0
-12 -14 -16 235 63 503 159 655 209 655 218 0 15 -8 13 -260 -70z"></path>
<path d="M203 1578 c3 -13 9 -74 13 -135 4 -64 11 -113 17 -113 6 0 7 36 3
103 -9 127 -15 167 -28 167 -6 0 -8 -10 -5 -22z"></path>
<path d="M605 1558 c-9 -39 -25 -45 -46 -17 -29 38 -49 19 -98 -93 -12 -26
-21 -51 -21 -55 0 -5 -7 -21 -15 -37 -8 -15 -12 -32 -9 -37 3 -5 59 -9 125 -9
92 0 120 3 117 13 -3 8 -36 14 -98 17 -51 3 -95 10 -96 15 -2 6 9 42 25 80
l28 70 44 1 c32 1 46 6 57 22 8 12 22 22 32 22 10 0 23 7 30 15 14 17 16 16
-32 19 -33 3 -38 0 -43 -26z"></path>
<path d="M700 1580 c0 -5 7 -10 15 -10 8 0 15 5 15 10 0 6 -7 10 -15 10 -8 0
-15 -4 -15 -10z"></path>
<path d="M5300 1411 c0 -10 7 -24 15 -31 12 -10 15 -10 15 3 0 23 -11 47 -21
47 -5 0 -9 -8 -9 -19z"></path>
<path d="M6969 1396 c-14 -7 -52 -21 -85 -31 -74 -23 -134 -55 -134 -72 0 -9
13 -5 40 12 22 14 45 25 52 25 23 1 114 34 139 51 31 21 21 33 -12 15z"></path>
<path d="M5455 1380 c-3 -5 1 -10 9 -10 9 0 16 5 16 10 0 6 -4 10 -9 10 -6 0
-13 -4 -16 -10z"></path>
<path d="M5570 1380 c0 -5 7 -10 15 -10 8 0 15 5 15 10 0 6 -7 10 -15 10 -8 0
-15 -4 -15 -10z"></path>
<path d="M5620 1380 c0 -5 5 -10 10 -10 6 0 10 5 10 10 0 6 -4 10 -10 10 -5 0
-10 -4 -10 -10z"></path>
<path d="M5670 1380 c0 -5 11 -10 25 -10 14 0 25 5 25 10 0 6 -11 10 -25 10
-14 0 -25 -4 -25 -10z"></path>
<path d="M5370 1370 c0 -5 11 -10 25 -10 14 0 25 5 25 10 0 6 -11 10 -25 10
-14 0 -25 -4 -25 -10z"></path>
<path d="M6040 1371 c0 -5 6 -14 14 -20 12 -10 13 -8 9 8 -5 21 -23 30 -23 12z"></path>
<path d="M230 1226 c0 -25 5 -48 10 -51 6 -3 10 -18 10 -33 0 -20 3 -23 12
-14 7 7 20 12 30 12 28 0 21 14 -12 27 -27 10 -30 15 -30 57 0 25 -4 46 -10
46 -5 0 -10 -20 -10 -44z"></path>
<path d="M355 1261 c-6 -11 9 -23 19 -14 9 9 7 23 -3 23 -6 0 -12 -4 -16 -9z"></path>
<path d="M6640 1260 c-31 -4 -64 -12 -75 -17 -11 -6 -76 -27 -145 -48 -69 -21
-135 -43 -147 -51 -12 -7 -51 -21 -87 -30 -51 -13 -73 -24 -95 -50 l-29 -33 4
-158 c5 -174 11 -223 24 -223 4 0 6 17 4 38 -2 20 -5 105 -8 189 l-4 152 33
30 c23 19 50 32 81 37 26 4 62 15 79 25 17 10 71 30 120 44 50 14 119 37 155
50 36 14 79 25 95 24 43 0 70 6 73 16 4 13 -12 14 -78 5z"></path>
<path d="M6820 1200 c0 -5 5 -10 10 -10 6 0 10 5 10 10 0 6 -4 10 -10 10 -5 0
-10 -4 -10 -10z"></path>
<path d="M6812 1107 c-7 -8 -12 -86 -13 -202 -2 -206 3 -221 49 -172 21 23 22
31 20 158 -3 132 -3 134 -26 133 -22 -1 -22 0 4 28 27 27 27 28 9 48 -21 23
-29 25 -43 7z"></path>
<path d="M6645 1051 c-3 -5 -1 -12 5 -16 12 -7 30 2 30 16 0 12 -27 12 -35 0z"></path>
<path d="M6458 1022 c-14 -27 -25 -202 -13 -202 4 0 15 5 26 11 19 9 20 19 17
111 -2 55 -6 102 -10 104 -3 2 -13 -8 -20 -24z"></path>
<path d="M6328 873 c-9 -130 -3 -306 10 -311 9 -3 12 41 12 187 0 187 -13 258
-22 124z"></path>
<path d="M6453 789 c-22 -8 -23 -14 -23 -117 0 -110 4 -129 24 -113 6 5 16 10
21 10 15 1 13 96 -2 96 -7 0 -13 5 -13 10 0 6 6 10 13 10 14 0 23 93 10 105
-4 5 -18 4 -30 -1z"></path>
<path d="M6640 755 c0 -14 5 -25 10 -25 6 0 10 11 10 25 0 14 -4 25 -10 25 -5
0 -10 -11 -10 -25z"></path>
<path d="M6637 713 c-11 -10 -8 -51 4 -58 13 -8 61 34 53 47 -3 4 -10 6 -15 2
-5 -3 -16 -1 -23 5 -7 6 -16 8 -19 4z"></path>
<path d="M6853 489 c-113 -55 -145 -79 -109 -79 8 0 18 5 21 11 4 5 12 8 18 6
6 -2 27 7 46 20 19 13 46 26 60 30 34 8 111 52 111 64 0 17 -26 8 -147 -52z"></path>
<path d="M6424 526 c-4 -10 -2 -22 4 -28 8 -8 13 -7 18 6 4 10 2 22 -4 28 -8
8 -13 7 -18 -6z"></path>
<path d="M6962 488 c-16 -16 -16 -71 0 -66 14 5 29 66 18 73 -4 2 -12 -1 -18
-7z"></path>
<path d="M6843 418 c-22 -28 -39 -133 -23 -143 20 -12 35 14 36 61 1 25 7 51
13 57 6 6 11 17 11 24 0 17 -24 17 -37 1z"></path>
<path d="M6688 353 c-16 -8 -29 -23 -29 -34 -1 -10 -2 -25 -3 -31 -1 -7 10
-13 24 -13 20 0 26 -6 30 -29 6 -35 24 -37 28 -3 2 17 -5 29 -22 41 -30 19
-34 38 -8 34 12 -2 18 5 20 25 4 30 -1 31 -40 10z"></path>
<path d="M6765 350 c3 -5 8 -10 11 -10 2 0 4 5 4 10 0 6 -5 10 -11 10 -5 0 -7
-4 -4 -10z"></path>
<path d="M6915 330 c-4 -7 -3 -16 3 -22 14 -14 45 -2 40 15 -6 16 -34 21 -43
7z"></path>
<path d="M6564 268 c-20 -25 -40 -36 -77 -43 -28 -5 -53 -16 -55 -24 -4 -11 3
-12 29 -7 19 4 51 10 72 13 29 4 41 11 48 30 5 14 18 27 29 30 24 6 26 19 4
27 -22 8 -19 10 -50 -26z"></path>
<path d="M6894 245 c-7 -18 2 -45 15 -45 14 0 33 38 26 50 -9 15 -35 12 -41
-5z"></path>
<path d="M6619 169 c-7 -14 -8 -24 -1 -31 15 -15 32 0 32 28 0 30 -15 31 -31
3z"></path>
<path d="M6792 178 c-7 -7 -12 -18 -12 -25 0 -18 29 -16 37 3 8 21 -10 37 -25
22z"></path>
<path d="M6378 167 c-43 -17 -33 -29 20 -23 26 2 49 5 51 5 2 1 -2 8 -9 16
-14 17 -24 17 -62 2z"></path>
<path d="M6910 150 c-10 -6 -16 -32 -20 -78 l-5 -70 33 1 33 1 -3 75 c-3 75
-10 89 -38 71z"></path>
<path d="M6307 144 c-4 -4 -7 -16 -7 -26 0 -11 -7 -18 -19 -18 -26 0 -51 -10
-51 -21 0 -5 20 -9 44 -9 45 0 48 3 57 67 1 10 -16 15 -24 7z"></path>
<path d="M6510 95 c0 -14 7 -28 15 -32 20 -7 24 -3 27 28 2 18 -2 25 -19 27
-19 3 -23 -1 -23 -23z"></path>
<path d="M6420 101 c0 -5 -8 -12 -17 -14 -11 -3 -7 -5 10 -6 27 -1 36 12 17
24 -5 3 -10 2 -10 -4z"></path>
<path d="M6802 78 c-7 -7 -12 -27 -12 -45 0 -29 3 -33 26 -33 23 0 25 3 22 42
-3 44 -16 56 -36 36z"></path>
<path d="M6180 65 c-21 -25 -1 -31 23 -7 17 18 18 22 5 22 -8 0 -21 -7 -28
-15z"></path>
<path d="M6670 55 c0 -8 5 -15 10 -15 6 0 10 7 10 15 0 8 -4 15 -10 15 -5 0
-10 -7 -10 -15z"></path>
<path d="M6707 43 c-13 -12 -7 -43 8 -43 8 0 15 4 15 9 0 5 3 16 6 25 6 16
-16 23 -29 9z"></path>
<path d="M6288 29 c-29 -16 -21 -29 18 -29 28 0 35 3 32 17 -4 21 -26 27 -50
12z"></path>
<path d="M5580 10 c0 -5 5 -10 10 -10 6 0 10 5 10 10 0 6 -4 10 -10 10 -5 0
-10 -4 -10 -10z"></path>
<path d="M6140 10 c0 -5 5 -10 10 -10 6 0 10 5 10 10 0 6 -4 10 -10 10 -5 0
-10 -4 -10 -10z"></path>
<path d="M6525 10 c-4 -6 5 -10 20 -10 15 0 24 4 20 10 -3 5 -12 10 -20 10 -8
0 -17 -4 -20 -10z"></path>
</g>
</svg>